<?xml version="1.0" encoding="us-ascii" standalone="no"?><svg xmlns="http://www.w3.org/2000/svg" xmlns:xlink="http://www.w3.org/1999/xlink" contentStyleType="text/css" height="358px" preserveAspectRatio="none" style="width:603px;height:358px;background:#FFFFFF;" version="1.1" viewBox="0 0 603 358" width="603px" zoomAndPan="magnify"><defs/><g><!--entity User--><g id="elem_User"><ellipse cx="164" cy="22" fill="#F1F1F1" rx="16" ry="16" style="stroke:#181818;stroke-width:1.5;"/><path d="M164,42 C168,42 171,42 175,38 C183,38 191,46 191,54 L191,58 C191,62 187,66 183,66 L145,66 C141,66 137,62 137,58 L137,54 C137,46 145,38 153,38 C157,42 160,42 164,42 " fill="#F1F1F1" style="stroke:#181818;stroke-width:1.5;"/><text fill="#000000" font-family="sans-serif" font-size="14" lengthAdjust="spacing" textLength="29" x="149.5" y="82.6074">User</text></g><!--entity POD--><g id="elem_POD"><path d="M6,176 C6,166 31,166 31,166 C31,166 56,166 56,176 L56,203.6211 C56,213.6211 31,213.6211 31,213.6211 C31,213.6211 6,213.6211 6,203.6211 L6,176 " fill="#F1F1F1" style="stroke:#181818;stroke-width:0.5;"/><path d="M6,176 C6,186 31,186 31,186 C31,186 56,186 56,176 " fill="none" style="stroke:#181818;stroke-width:0.5;"/><text fill="#000000" font-family="sans-serif" font-size="14" lengthAdjust="spacing" textLength="30" x="16" y="205.1074">POD</text></g><!--entity Database--><g id="elem_Database"><path d="M258.5,303.5 C258.5,293.5 299,293.5 299,293.5 C299,293.5 339.5,293.5 339.5,303.5 L339.5,331.1211 C339.5,341.1211 299,341.1211 299,341.1211 C299,341.1211 258.5,341.1211 258.5,331.1211 L258.5,303.5 " fill="#F1F1F1" style="stroke:#181818;stroke-width:0.5;"/><path d="M258.5,303.5 C258.5,313.5 299,313.5 299,313.5 C299,313.5 339.5,313.5 339.5,303.5 " fill="none" style="stroke:#181818;stroke-width:0.5;"/><text fill="#000000" font-family="sans-serif" font-size="14" lengthAdjust="spacing" textLength="61" x="268.5" y="332.6074">Database</text></g><!--entity LoMap--><g id="elem_LoMap"><polygon fill="#F1F1F1" points="342,190,320.5,175.5,277.5,175.5,256,190,277.5,204.5,320.5,204.5,342,190" style="stroke:#181818;stroke-width:0.5;"/><text fill="#000000" font-family="sans-serif" font-size="14" lengthAdjust="spacing" textLength="43" x="277.5" y="195.6074">LoMap</text></g><!--entity MapService--><g id="elem_MapService"><path d="M489.1258,174.1808 C492.4126,168.3569 496.7409,168.2569 501.1764,172.8523 C504.084,166.7538 507.535,166.0403 512.2659,171.0286 C515.5045,164.8907 519.449,162.8812 524.6931,168.9942 C527.5191,161.8812 532.104,159.6985 538.0363,165.8756 C542.5297,160.9287 545.9779,161.4297 548.5109,167.7053 C553.5792,162.0142 560.1082,162.5325 562.3538,170.5547 C566.6926,165.8676 571.486,165.1292 574.523,171.9333 C579.5959,166.741 584.4105,168.9231 586.6908,174.9595 C594.3019,179.2395 596.5978,184.0703 589.831,191.1405 C595.9644,197.561 594.9802,204.1509 586.718,207.897 C582.9175,213.6652 576.9735,214.2817 573.6999,207.3566 C571.0873,213.6428 564.9471,214.3686 561.0292,208.7453 C557.7806,213.2564 553.238,214.0079 550.0275,208.7026 C547.5744,214.8953 541.4581,216.2552 537.5665,210.1615 C533.915,216.6023 528.6474,216.3045 525.0674,210.091 C520.8491,214.4464 515.5444,214.1549 513.4085,207.8199 C509.5873,214.8737 504.1927,215.3473 499.4094,208.8109 C495.2903,212.5328 490.294,212.5213 488.6547,206.1647 C479.6979,205.2255 475.1893,200.2416 479.5626,191.2022 C473.1168,181.2099 477.2933,173.9037 489.1258,174.1808 " fill="#F1F1F1" style="stroke:#181818;stroke-width:0.5;"/><text fill="#000000" font-family="sans-serif" font-size="14" lengthAdjust="spacing" textLength="84" x="494" y="195.6074">Map Provider</text></g><!--link User to LoMap--><g id="link_User_LoMap"><path d="M192.8,75.2 C205.27,87.76 219.97,102.75 233,116.5 C250.55,135.02 270.18,156.71 283.43,171.51 " fill="none" id="User-to-LoMap" style="stroke:#181818;stroke-width:1.0;stroke-dasharray:7.0,7.0;"/><polygon fill="#181818" points="286.99,175.49,283.9803,166.1123,283.6602,171.7601,278.0124,171.4399,286.99,175.49" style="stroke:#181818;stroke-width:1.0;"/><text fill="#000000" font-family="sans-serif" font-size="13" lengthAdjust="spacing" textLength="103" x="251" y="131.5283">Uses the services</text></g><!--link User to POD--><g id="link_User_POD"><path d="M135.47,77.07 C111.85,102.38 78.62,137.98 56.02,162.19 " fill="none" id="User-to-POD" style="stroke:#181818;stroke-width:1.0;"/><polygon fill="#181818" points="52.49,165.97,61.5556,162.121,55.9021,162.3152,55.7079,156.6617,52.49,165.97" style="stroke:#181818;stroke-width:1.0;"/><text fill="#000000" font-family="sans-serif" font-size="13" lengthAdjust="spacing" textLength="125" x="99" y="131.5283">Controlls permissions</text></g><!--link POD to LoMap--><g id="link_POD_LoMap"><path d="M61.22,190 C107.24,190 195.34,190 250.42,190 " fill="none" id="POD-LoMap" style="stroke:#181818;stroke-width:1.0;"/><polygon fill="#181818" points="56.21,190,65.21,194,61.21,190,65.21,186,56.21,190" style="stroke:#181818;stroke-width:1.0;"/><polygon fill="#181818" points="255.64,190,246.64,186,250.64,190,246.64,194,255.64,190" style="stroke:#181818;stroke-width:1.0;"/><text fill="#000000" font-family="sans-serif" font-size="13" lengthAdjust="spacing" textLength="163" x="74.5" y="183.0283">Fetches data about the user</text></g><!--link LoMap to Database--><g id="link_LoMap_Database"><path d="M299,209.97 C299,230.66 299,264.02 299,287.9 " fill="none" id="LoMap-Database" style="stroke:#181818;stroke-width:1.0;"/><polygon fill="#181818" points="299,204.91,295,213.91,299,209.91,303,213.91,299,204.91" style="stroke:#181818;stroke-width:1.0;"/><polygon fill="#181818" points="299,293.14,303,284.14,299,288.14,295,284.14,299,293.14" style="stroke:#181818;stroke-width:1.0;"/><text fill="#000000" font-family="sans-serif" font-size="13" lengthAdjust="spacing" textLength="91" x="300" y="259.5283">Stores link data</text></g><!--reverse link LoMap to MapService--><g id="link_LoMap_MapService"><path d="M347.23,190 C385.32,190 438.58,190 478.81,190 " fill="none" id="LoMap-backto-MapService" style="stroke:#181818;stroke-width:1.0;"/><polygon fill="#181818" points="342.19,190,351.19,194,347.19,190,351.19,186,342.19,190" style="stroke:#181818;stroke-width:1.0;"/><text fill="#000000" font-family="sans-serif" font-size="13" lengthAdjust="spacing" textLength="100" x="360.5" y="183.0283">Provides the map</text></g><!--SRC=[ZL31JiCm3BtdAwnTUce5LpJj01Kd49CgFi1hlJLQ6bTnMiRVupI5SG14JdRytlFpA-1-4kj911xOHxf4g2sU0WumtrOtHixMZvXQR2E79hux0dmZuO5CKVxyJ57JqNeRBNlWOwRAx_1b3gz2mNGOyO12i7-fhqsz5gQd2vvKz8cVSJIjuwc3ZPQm3ppRZi86K40_6WgpRSdyssCWXwd-msOo26MegbtU3tV9iq3i2IJlanNKbRjqWI9Ige6T4nWf35PasP5cs_AgyqYnxLKgNGnuu2akgbEA96EsY-Pd44ffD3DbEElF2-qBz-ryXQt1P9U3XlO1]--></g></svg>