<?xml version="1.0" encoding="us-ascii" standalone="no"?><svg xmlns="http://www.w3.org/2000/svg" xmlns:xlink="http://www.w3.org/1999/xlink" contentStyleType="text/css" height="232px" preserveAspectRatio="none" style="width:530px;height:232px;background:#FFFFFF;" version="1.1" viewBox="0 0 530 232" width="530px" zoomAndPan="magnify"><defs/><g><!--cluster GitHubRepo--><g id="cluster_GitHubRepo"><path d="M6,16 C6,6 212,6 212,6 C212,6 418,6 418,16 L418,113 C418,123 212,123 212,123 C212,123 6,123 6,113 L6,16 " fill="none" style="stroke:#181818;stroke-width:1.0;"/><path d="M6,16 C6,26 212,26 212,26 C212,26 418,26 418,16 " fill="none" style="stroke:#181818;stroke-width:1.0;"/><text fill="#000000" font-family="sans-serif" font-size="14" font-weight="bold" lengthAdjust="spacing" textLength="124" x="150" y="43.1074">GitHub repository</text></g><!--cluster SOLID--><g id="cluster_SOLID"><rect fill="none" height="101" rx="2.5" ry="2.5" style="stroke:#181818;stroke-width:1.0;" width="82" x="442" y="21.5"/><path d="M494,21.5 L494,33.1211 L484,43.1211 L442,43.1211 " fill="none" style="stroke:#181818;stroke-width:1.0;"/><text fill="#000000" font-family="sans-serif" font-size="14" font-weight="bold" lengthAdjust="spacing" textLength="42" x="445" y="37.6074">SOLID</text></g><!--entity Frontend--><g id="elem_Frontend"><rect fill="#F1F1F1" height="48.6211" rx="2.5" ry="2.5" style="stroke:#181818;stroke-width:0.5;" width="98" x="173" y="58"/><rect fill="#F1F1F1" height="10" style="stroke:#181818;stroke-width:0.5;" width="15" x="251" y="63"/><rect fill="#F1F1F1" height="2" style="stroke:#181818;stroke-width:0.5;" width="4" x="249" y="65"/><rect fill="#F1F1F1" height="2" style="stroke:#181818;stroke-width:0.5;" width="4" x="249" y="69"/><text fill="#000000" font-family="sans-serif" font-size="14" lengthAdjust="spacing" textLength="58" x="188" y="93.1074">Frontend</text></g><!--entity Backend--><g id="elem_Backend"><rect fill="#F1F1F1" height="48.6211" rx="2.5" ry="2.5" style="stroke:#181818;stroke-width:0.5;" width="95" x="306.5" y="58"/><rect fill="#F1F1F1" height="10" style="stroke:#181818;stroke-width:0.5;" width="15" x="381.5" y="63"/><rect fill="#F1F1F1" height="2" style="stroke:#181818;stroke-width:0.5;" width="4" x="379.5" y="65"/><rect fill="#F1F1F1" height="2" style="stroke:#181818;stroke-width:0.5;" width="4" x="379.5" y="69"/><text fill="#000000" font-family="sans-serif" font-size="14" lengthAdjust="spacing" textLength="55" x="321.5" y="93.1074">Backend</text></g><!--entity Documentation--><g id="elem_Documentation"><path d="M22.5,65.5 L22.5,99.1211 A2.5,2.5 0 0 0 25,101.6211 L135,101.6211 A2.5,2.5 0 0 0 137.5,99.1211 L137.5,73 L127.5,63 L25,63 A2.5,2.5 0 0 0 22.5,65.5 " fill="#F1F1F1" style="stroke:#181818;stroke-width:0.5;"/><path d="M127.5,63 L127.5,70.5 A2.5,2.5 0 0 0 130,73 L137.5,73 " fill="#F1F1F1" style="stroke:#181818;stroke-width:0.5;"/><text fill="#000000" font-family="sans-serif" font-size="14" lengthAdjust="spacing" textLength="95" x="32.5" y="88.1074">Documentation</text></g><!--entity POD--><g id="elem_POD"><path d="M458,68.5 C458,58.5 483,58.5 483,58.5 C483,58.5 508,58.5 508,68.5 L508,96.1211 C508,106.1211 483,106.1211 483,106.1211 C483,106.1211 458,106.1211 458,96.1211 L458,68.5 " fill="#F1F1F1" style="stroke:#181818;stroke-width:0.5;"/><path d="M458,68.5 C458,78.5 483,78.5 483,78.5 C483,78.5 508,78.5 508,68.5 " fill="none" style="stroke:#181818;stroke-width:0.5;"/><text fill="#000000" font-family="sans-serif" font-size="14" lengthAdjust="spacing" textLength="30" x="468" y="97.6074">POD</text></g><!--entity MapService--><g id="elem_MapService"><path d="M174.1258,175.6808 C177.4126,169.8569 181.7409,169.7569 186.1764,174.3523 C189.084,168.2538 192.535,167.5403 197.2659,172.5286 C200.5045,166.3907 204.449,164.3812 209.6931,170.4942 C212.5191,163.3812 217.104,161.1985 223.0363,167.3756 C227.5297,162.4287 230.9779,162.9297 233.5109,169.2053 C238.5792,163.5142 245.1082,164.0325 247.3538,172.0547 C251.6926,167.3676 256.486,166.6292 259.523,173.4333 C264.5959,168.241 269.4105,170.4231 271.6908,176.4595 C279.3019,180.7395 281.5978,185.5703 274.831,192.6405 C280.9644,199.061 279.9802,205.6509 271.718,209.397 C267.9175,215.1652 261.9735,215.7817 258.6999,208.8566 C256.0873,215.1428 249.9471,215.8686 246.0292,210.2453 C242.7806,214.7564 238.238,215.5079 235.0275,210.2026 C232.5744,216.3953 226.4581,217.7552 222.5665,211.6615 C218.915,218.1023 213.6474,217.8045 210.0674,211.591 C205.8491,215.9464 200.5444,215.6549 198.4085,209.3199 C194.5873,216.3737 189.1927,216.8473 184.4094,210.3109 C180.2903,214.0328 175.294,214.0213 173.6547,207.6647 C164.6979,206.7255 160.1893,201.7416 164.5626,192.7022 C158.1168,182.7099 162.2933,175.4037 174.1258,175.6808 " fill="#F1F1F1" style="stroke:#181818;stroke-width:0.5;"/><text fill="#000000" font-family="sans-serif" font-size="14" lengthAdjust="spacing" textLength="84" x="179" y="197.1074">Map Provider</text></g><!--entity Database--><g id="elem_Database"><path d="M313.5,177.5 C313.5,167.5 354,167.5 354,167.5 C354,167.5 394.5,167.5 394.5,177.5 L394.5,205.1211 C394.5,215.1211 354,215.1211 354,215.1211 C354,215.1211 313.5,215.1211 313.5,205.1211 L313.5,177.5 " fill="#F1F1F1" style="stroke:#181818;stroke-width:0.5;"/><path d="M313.5,177.5 C313.5,187.5 354,187.5 354,187.5 C354,187.5 394.5,187.5 394.5,177.5 " fill="none" style="stroke:#181818;stroke-width:0.5;"/><text fill="#000000" font-family="sans-serif" font-size="14" lengthAdjust="spacing" textLength="61" x="323.5" y="206.6074">Database</text></g><!--link Backend to POD--><g id="link_Backend_POD"><path d="M401.62,99.62 C418.76,102.17 435.91,100.83 453.05,95.6 " fill="none" id="Backend-to-POD" style="stroke:#181818;stroke-width:1.0;"/><polygon fill="#181818" points="457.89,94.02,448.0922,93.0182,453.1381,95.5754,450.5809,100.6213,457.89,94.02" style="stroke:#181818;stroke-width:1.0;"/></g><!--link Backend to Database--><g id="link_Backend_Database"><path d="M354,107.25 C354,123.43 354,144.93 354,162.03 " fill="none" id="Backend-to-Database" style="stroke:#181818;stroke-width:1.0;"/><polygon fill="#181818" points="354,167.19,358,158.19,354,162.19,350,158.19,354,167.19" style="stroke:#181818;stroke-width:1.0;"/></g><!--link Frontend to Backend--><g id="link_Frontend_Backend"><path d="M276.47,82.5 C284.76,82.5 293.04,82.5 301.32,82.5 " fill="none" id="Frontend-Backend" style="stroke:#181818;stroke-width:1.0;"/><polygon fill="#181818" points="271.24,82.5,280.24,86.5,276.24,82.5,280.24,78.5,271.24,82.5" style="stroke:#181818;stroke-width:1.0;"/><polygon fill="#181818" points="306.48,82.5,297.48,78.5,301.48,82.5,297.48,86.5,306.48,82.5" style="stroke:#181818;stroke-width:1.0;"/></g><!--link Frontend to MapService--><g id="link_Frontend_MapService"><path d="M221.78,107.25 C221.63,123.32 221.43,144.64 221.27,161.68 " fill="none" id="Frontend-to-MapService" style="stroke:#181818;stroke-width:1.0;"/><polygon fill="#181818" points="221.22,166.82,225.3226,157.8663,221.2771,161.8203,217.3231,157.7749,221.22,166.82" style="stroke:#181818;stroke-width:1.0;"/></g><!--SRC=[ZP3FJiCm3CRlUGghbvw6u8uuGCGV2RI9yW9UwZ9hRLmbQM52l3jkrtOI0eHF-Ruupkzp3Y_aTfuTrd0ZFj5x0ilu6h21_kBitCGz-nO7YIv9ADAX9i0tYjAGoLS_byajLUmviNYGwlWq_jvkIaounKXmn-c-spvJAu0HigE4e3gopZXay650oqdJYYUVu3OCsBxyPb-ZsyzknSfinNMDtk00PJwDgwKhuGdRWaBFZiR_LC8cICybXUn4PQU3gNGH1CNwyS5E84lFPcrrwhzN4gWUIVxOoXG1LbVZy4MMQYn4StouL7SElPXZxodZ5m00]--></g></svg>