<?xml version="1.0" encoding="us-ascii" standalone="no"?><svg xmlns="http://www.w3.org/2000/svg" xmlns:xlink="http://www.w3.org/1999/xlink" contentStyleType="text/css" height="410px" preserveAspectRatio="none" style="width:579px;height:410px;background:#FFFFFF;" version="1.1" viewBox="0 0 579 410" width="579px" zoomAndPan="magnify"><defs/><g><!--cluster LoMap--><g id="cluster_LoMap"><rect fill="none" height="380.5" rx="2.5" ry="2.5" style="stroke:#181818;stroke-width:1.0;" width="126" x="277" y="23.5"/><line style="stroke:#181818;stroke-width:1.0;" x1="277" x2="403" y1="46.1211" y2="46.1211"/><text fill="#000000" font-family="sans-serif" font-size="14" font-weight="bold" lengthAdjust="spacing" textLength="47" x="316.5" y="40.6074">LoMap</text></g><!--cluster UserDat--><g id="cluster_UserDat"><rect fill="none" height="285.5" rx="2.5" ry="2.5" style="stroke:#181818;stroke-width:1.0;" width="122" x="7" y="7"/><line style="stroke:#181818;stroke-width:1.0;" x1="7" x2="129" y1="29.6211" y2="29.6211"/><text fill="#000000" font-family="sans-serif" font-size="14" font-weight="bold" lengthAdjust="spacing" textLength="33" x="51.5" y="24.1074">User</text></g><!--cluster External Services--><g id="cluster_External Services"><rect fill="none" height="102" rx="2.5" ry="2.5" style="stroke:#181818;stroke-width:1.0;" width="146" x="427" y="191"/><text fill="#000000" font-family="sans-serif" font-size="14" font-weight="bold" lengthAdjust="spacing" textLength="124" x="438" y="208.1074">External Services</text></g><!--entity Frontend--><g id="elem_Frontend"><rect fill="#F1F1F1" height="48.6211" rx="2.5" ry="2.5" style="stroke:#181818;stroke-width:0.5;" width="93" x="293.5" y="60.5"/><rect fill="#F1F1F1" height="10" style="stroke:#181818;stroke-width:0.5;" width="15" x="366.5" y="65.5"/><rect fill="#F1F1F1" height="2" style="stroke:#181818;stroke-width:0.5;" width="4" x="364.5" y="67.5"/><rect fill="#F1F1F1" height="2" style="stroke:#181818;stroke-width:0.5;" width="4" x="364.5" y="71.5"/><text fill="#000000" font-family="sans-serif" font-size="14" lengthAdjust="spacing" textLength="53" x="308.5" y="95.6074">Webapp</text></g><!--entity Backend--><g id="elem_Backend"><rect fill="#F1F1F1" height="48.6211" rx="2.5" ry="2.5" style="stroke:#181818;stroke-width:0.5;" width="90" x="295" y="228"/><rect fill="#F1F1F1" height="10" style="stroke:#181818;stroke-width:0.5;" width="15" x="365" y="233"/><rect fill="#F1F1F1" height="2" style="stroke:#181818;stroke-width:0.5;" width="4" x="363" y="235"/><rect fill="#F1F1F1" height="2" style="stroke:#181818;stroke-width:0.5;" width="4" x="363" y="239"/><text fill="#000000" font-family="sans-serif" font-size="14" lengthAdjust="spacing" textLength="50" x="310" y="263.1074">RestAPI</text></g><!--entity Database--><g id="elem_Database"><path d="M299.5,350 C299.5,340 340,340 340,340 C340,340 380.5,340 380.5,350 L380.5,377.6211 C380.5,387.6211 340,387.6211 340,387.6211 C340,387.6211 299.5,387.6211 299.5,377.6211 L299.5,350 " fill="#F1F1F1" style="stroke:#181818;stroke-width:0.5;"/><path d="M299.5,350 C299.5,360 340,360 340,360 C340,360 380.5,360 380.5,350 " fill="none" style="stroke:#181818;stroke-width:0.5;"/><text fill="#000000" font-family="sans-serif" font-size="14" lengthAdjust="spacing" textLength="61" x="309.5" y="379.1074">Database</text></g><!--entity User--><g id="elem_User"><ellipse cx="55" cy="61.5" fill="#F1F1F1" rx="16" ry="16" style="stroke:#181818;stroke-width:1.5;"/><path d="M55,81.5 C59,81.5 62,81.5 66,77.5 C74,77.5 82,85.5 82,93.5 L82,97.5 C82,101.5 78,105.5 74,105.5 L36,105.5 C32,105.5 28,101.5 28,97.5 L28,93.5 C28,85.5 36,77.5 44,77.5 C48,81.5 51,81.5 55,81.5 " fill="#F1F1F1" style="stroke:#181818;stroke-width:1.5;"/><text fill="#000000" font-family="sans-serif" font-size="14" lengthAdjust="spacing" textLength="29" x="40.5" y="122.1074">User</text></g><!--entity POD--><g id="elem_POD"><path d="M48,238.5 C48,228.5 73,228.5 73,228.5 C73,228.5 98,228.5 98,238.5 L98,266.1211 C98,276.1211 73,276.1211 73,276.1211 C73,276.1211 48,276.1211 48,266.1211 L48,238.5 " fill="#F1F1F1" style="stroke:#181818;stroke-width:0.5;"/><path d="M48,238.5 C48,248.5 73,248.5 73,248.5 C73,248.5 98,248.5 98,238.5 " fill="none" style="stroke:#181818;stroke-width:0.5;"/><text fill="#000000" font-family="sans-serif" font-size="14" lengthAdjust="spacing" textLength="30" x="58" y="267.6074">POD</text></g><!--entity MapService--><g id="elem_MapService"><path d="M453.1258,236.6808 C456.4126,230.8569 460.7409,230.7569 465.1764,235.3523 C468.084,229.2538 471.535,228.5403 476.2659,233.5286 C479.5045,227.3907 483.449,225.3812 488.6931,231.4942 C491.5191,224.3812 496.104,222.1985 502.0363,228.3756 C506.5297,223.4287 509.9779,223.9297 512.5109,230.2053 C517.5792,224.5142 524.1082,225.0325 526.3538,233.0547 C530.6926,228.3676 535.486,227.6292 538.523,234.4333 C543.5959,229.241 548.4105,231.4231 550.6908,237.4595 C558.3019,241.7395 560.5978,246.5703 553.831,253.6405 C559.9644,260.061 558.9802,266.6509 550.718,270.397 C546.9175,276.1652 540.9735,276.7817 537.6999,269.8566 C535.0873,276.1428 528.9471,276.8686 525.0292,271.2453 C521.7806,275.7564 517.238,276.5079 514.0275,271.2026 C511.5744,277.3953 505.4581,278.7552 501.5665,272.6615 C497.915,279.1023 492.6474,278.8045 489.0674,272.591 C484.8491,276.9464 479.5444,276.6549 477.4085,270.3199 C473.5873,277.3737 468.1927,277.8473 463.4094,271.3109 C459.2903,275.0328 454.294,275.0213 452.6547,268.6647 C443.6979,267.7255 439.1893,262.7416 443.5626,253.7022 C437.1168,243.7099 441.2933,236.4037 453.1258,236.6808 " fill="#F1F1F1" style="stroke:#181818;stroke-width:0.5;"/><text fill="#000000" font-family="sans-serif" font-size="14" lengthAdjust="spacing" textLength="84" x="458" y="258.1074">Map Provider</text></g><!--link User to Frontend--><g id="link_User_Frontend"><path d="M83.63,85 C131.38,85 227.95,85 287.98,85 " fill="none" id="User-to-Frontend" style="stroke:#181818;stroke-width:1.0;"/><polygon fill="#181818" points="293.32,85,284.32,81,288.32,85,284.32,89,293.32,85" style="stroke:#181818;stroke-width:1.0;"/><text fill="#000000" font-family="sans-serif" font-size="13" lengthAdjust="spacing" textLength="50" x="163.5" y="78.0283">interacts</text></g><!--link User to Frontend--><!--link User to POD--><g id="link_User_POD"><path d="M59.36,126.06 C62.62,156.02 66.99,196.25 69.9,222.98 " fill="none" id="User-to-POD" style="stroke:#181818;stroke-width:1.0;"/><polygon fill="#181818" points="70.46,228.14,73.4594,218.759,69.9172,223.1695,65.5067,219.6274,70.46,228.14" style="stroke:#181818;stroke-width:1.0;"/><text fill="#000000" font-family="sans-serif" font-size="13" lengthAdjust="spacing" textLength="53" x="66" y="171.0283">manages</text></g><!--link Frontend to Backend--><g id="link_Frontend_Backend"><path d="M340,109.71 C340,139.45 340,190.42 340,222.47 " fill="none" id="Frontend-to-Backend" style="stroke:#181818;stroke-width:1.0;"/><polygon fill="#181818" points="340,227.83,344,218.83,340,222.83,336,218.83,340,227.83" style="stroke:#181818;stroke-width:1.0;"/></g><!--link Backend to POD--><g id="link_Backend_POD"><path d="M294.63,252.5 C229.1,252.5 163.56,252.5 98.03,252.5 " fill="none" id="Backend-POD" style="stroke:#181818;stroke-width:1.0;"/></g><!--link Backend to Database--><g id="link_Backend_Database"><path d="M340,277.26 C340,294.02 340,316.55 340,334.32 " fill="none" id="Backend-to-Database" style="stroke:#181818;stroke-width:1.0;"/><polygon fill="#181818" points="340,339.66,344,330.66,340,334.66,336,330.66,340,339.66" style="stroke:#181818;stroke-width:1.0;"/></g><!--link Backend to MapService--><g id="link_Backend_MapService"><path d="M385,252.5 C402.51,252.5 420.01,252.5 437.52,252.5 " fill="none" id="Backend-to-MapService" style="stroke:#181818;stroke-width:1.0;"/><polygon fill="#181818" points="442.95,252.5,433.95,248.5,437.95,252.5,433.95,256.5,442.95,252.5" style="stroke:#181818;stroke-width:1.0;"/></g><!--SRC=[ZLB1JiCm3BtdAwnUUYg2AmSafe906c9Y0Ww8WvTuNRGqYPAi0o7-7MVjEa20oAMk_Twp_P8I9XjjbBODJ8oJQtZGj8LQOnEmXUxaw5YKCAME39o8kDRMOowWJ2xCqwiXm2r5rv8egv-FA6jQQgkJTXRSigV6t-4IWuAfkq4FRmBuIDTwPyacUAG5UWyOuJ8ucyYgRu0xYkbyTfqH4vJhFK1XmWL6Wde8nBiGVQFYFb8eCY47N1-QxgRSvRugp6xhJ0ua4zg6roykNX85YmRc53ejAHRxkOtRS8Eyo2ouJgkX4IS6Q5Rwhss13ERu3-Voj525wcoq1qv1Sn1u6-R1bLQAx44ALcGyR7LQGVGe-H4C6a-h7VAPLGzMzoN5ycm2AxTeiQ4encOLb_QsPqXbgl5_-FRyyHh6R1xwao_Y0m00]--></g></svg>