<?xml version="1.0" encoding="UTF-8" standalone="no"?><svg xmlns="http://www.w3.org/2000/svg" xmlns:xlink="http://www.w3.org/1999/xlink" contentStyleType="text/css" height="350px" preserveAspectRatio="none" style="width:597px;height:350px;background:#FFFFFF;" version="1.1" viewBox="0 0 597 350" width="597px" zoomAndPan="magnify"><defs/><g><!--cluster Azure Server--><g id="cluster_Azure Server"><path d="M260.5,59.495 L363.5,59.495 A3.75,3.75 0 0 1 366,61.995 L373,81.7919 L475.5,81.7919 A2.5,2.5 0 0 1 478,84.2919 L478,341.495 A2.5,2.5 0 0 1 475.5,343.995 L260.5,343.995 A2.5,2.5 0 0 1 258,341.495 L258,61.995 A2.5,2.5 0 0 1 260.5,59.495 " fill="none" style="stroke:#000000;stroke-width:1.5;"/><line style="stroke:#000000;stroke-width:1.5;" x1="258" x2="373" y1="81.7919" y2="81.7919"/><text fill="#000000" font-family="sans-serif" font-size="14" font-weight="bold" lengthAdjust="spacing" textLength="102" x="262" y="74.4901">Azure Server</text></g><!--cluster Docker Container 1--><g id="cluster_Docker Container 1"><path d="M284.5,102.495 L439.5,102.495 A3.75,3.75 0 0 1 442,104.995 L449,124.7919 L451.5,124.7919 A2.5,2.5 0 0 1 454,127.2919 L454,195.995 A2.5,2.5 0 0 1 451.5,198.495 L284.5,198.495 A2.5,2.5 0 0 1 282,195.995 L282,104.995 A2.5,2.5 0 0 1 284.5,102.495 " fill="none" style="stroke:#000000;stroke-width:1.5;"/><line style="stroke:#000000;stroke-width:1.5;" x1="282" x2="449" y1="124.7919" y2="124.7919"/><text fill="#000000" font-family="sans-serif" font-size="14" font-weight="bold" lengthAdjust="spacing" textLength="154" x="286" y="117.4901">Docker Container 1</text></g><!--cluster Docker Container 2--><g id="cluster_Docker Container 2"><path d="M285.5,222.995 L440.5,222.995 A3.75,3.75 0 0 1 443,225.495 L450,245.2919 L450.5,245.2919 A2.5,2.5 0 0 1 453,247.7919 L453,317.495 A2.5,2.5 0 0 1 450.5,319.995 L285.5,319.995 A2.5,2.5 0 0 1 283,317.495 L283,225.495 A2.5,2.5 0 0 1 285.5,222.995 " fill="none" style="stroke:#000000;stroke-width:1.5;"/><line style="stroke:#000000;stroke-width:1.5;" x1="283" x2="450" y1="245.2919" y2="245.2919"/><text fill="#000000" font-family="sans-serif" font-size="14" font-weight="bold" lengthAdjust="spacing" textLength="154" x="287" y="237.9901">Docker Container 2</text></g><!--cluster Users--><g id="cluster_Users"><path d="M8.5,101.995 L54.5,101.995 A3.75,3.75 0 0 1 57,104.495 L64,124.2919 L231.5,124.2919 A2.5,2.5 0 0 1 234,126.7919 L234,196.495 A2.5,2.5 0 0 1 231.5,198.995 L8.5,198.995 A2.5,2.5 0 0 1 6,196.495 L6,104.495 A2.5,2.5 0 0 1 8.5,101.995 " fill="none" style="stroke:#000000;stroke-width:1.5;"/><line style="stroke:#000000;stroke-width:1.5;" x1="6" x2="64" y1="124.2919" y2="124.2919"/><text fill="#000000" font-family="sans-serif" font-size="14" font-weight="bold" lengthAdjust="spacing" textLength="45" x="10" y="116.9901">Users</text></g><!--entity Web Application--><g id="elem_Web Application"><path d="M298,147.495 C298,137.495 368,137.495 368,137.495 C368,137.495 438,137.495 438,147.495 L438,172.7919 C438,182.7919 368,182.7919 368,182.7919 C368,182.7919 298,182.7919 298,172.7919 L298,147.495 " fill="#F1F1F1" style="stroke:#181818;stroke-width:0.5;"/><path d="M298,147.495 C298,157.495 368,157.495 368,157.495 C368,157.495 438,157.495 438,147.495 " fill="none" style="stroke:#181818;stroke-width:0.5;"/><text fill="#000000" font-family="sans-serif" font-size="14" lengthAdjust="spacing" textLength="120" x="308" y="174.4901">Web Application</text></g><!--entity Database--><g id="elem_Database"><rect fill="#F1F1F1" height="46.2969" rx="2.5" ry="2.5" style="stroke:#181818;stroke-width:0.5;" width="108" x="314" y="257.995"/><rect fill="#F1F1F1" height="10" style="stroke:#181818;stroke-width:0.5;" width="15" x="402" y="262.995"/><rect fill="#F1F1F1" height="2" style="stroke:#181818;stroke-width:0.5;" width="4" x="400" y="264.995"/><rect fill="#F1F1F1" height="2" style="stroke:#181818;stroke-width:0.5;" width="4" x="400" y="268.995"/><text fill="#000000" font-family="sans-serif" font-size="14" lengthAdjust="spacing" textLength="68" x="329" y="290.9901">Database</text></g><!--entity Device--><g id="elem_Device"><rect fill="#F1F1F1" height="46.2969" rx="2.5" ry="2.5" style="stroke:#181818;stroke-width:0.5;" width="89" x="22.5" y="136.995"/><rect fill="#F1F1F1" height="10" style="stroke:#181818;stroke-width:0.5;" width="15" x="91.5" y="141.995"/><rect fill="#F1F1F1" height="2" style="stroke:#181818;stroke-width:0.5;" width="4" x="89.5" y="143.995"/><rect fill="#F1F1F1" height="2" style="stroke:#181818;stroke-width:0.5;" width="4" x="89.5" y="147.995"/><text fill="#000000" font-family="sans-serif" font-size="14" lengthAdjust="spacing" textLength="49" x="37.5" y="169.9901">Device</text></g><!--entity POD--><g id="elem_POD"><rect fill="#F1F1F1" height="46.2969" rx="2.5" ry="2.5" style="stroke:#181818;stroke-width:0.5;" width="71" x="146.5" y="136.995"/><rect fill="#F1F1F1" height="10" style="stroke:#181818;stroke-width:0.5;" width="15" x="197.5" y="141.995"/><rect fill="#F1F1F1" height="2" style="stroke:#181818;stroke-width:0.5;" width="4" x="195.5" y="143.995"/><rect fill="#F1F1F1" height="2" style="stroke:#181818;stroke-width:0.5;" width="4" x="195.5" y="147.995"/><text fill="#000000" font-family="sans-serif" font-size="14" lengthAdjust="spacing" textLength="31" x="161.5" y="169.9901">POD</text></g><!--entity Map API--><g id="elem_Map API"><rect fill="#F1F1F1" height="46.2969" rx="2.5" ry="2.5" style="stroke:#181818;stroke-width:0.5;" width="97" x="494.5" y="257.995"/><rect fill="#F1F1F1" height="10" style="stroke:#181818;stroke-width:0.5;" width="15" x="571.5" y="262.995"/><rect fill="#F1F1F1" height="2" style="stroke:#181818;stroke-width:0.5;" width="4" x="569.5" y="264.995"/><rect fill="#F1F1F1" height="2" style="stroke:#181818;stroke-width:0.5;" width="4" x="569.5" y="268.995"/><text fill="#000000" font-family="sans-serif" font-size="14" lengthAdjust="spacing" textLength="57" x="509.5" y="290.9901">Map API</text></g><!--link Web Application to Database--><g id="link_Web Application_Database"><path d="M368,182.545 C368,203.844 368,236.278 368,257.798 " fill="none" id="Web Application-Database" style="stroke:#181818;stroke-width:1.0;"/><path d="M375.0711,213.0176 A10,10 0 0 0 360.9289 213.0176" fill="none" style="stroke:#181818;stroke-width:1.5;"/><ellipse cx="368" cy="220.0886" fill="#FFFFFF" rx="6" ry="6" style="stroke:#181818;stroke-width:1.5;"/></g><!--link Web Application to Map API--><g id="link_Web Application_Map API"><path d="M399.691,182.545 C431.013,203.844 478.71,236.278 510.358,257.798 " fill="none" id="Web Application-Map API" style="stroke:#181818;stroke-width:1.0;"/><path d="M453.0311,210.2652 A10,10 0 0 0 445.0789 221.9598" fill="none" style="stroke:#181818;stroke-width:1.5;"/><ellipse cx="454.9023" cy="220.0886" fill="#FFFFFF" rx="6" ry="6" style="stroke:#181818;stroke-width:1.5;"/></g><!--reverse link POD to Web Application--><g id="link_POD_Web Application"><path d="M222.614,159.995 C247.674,159.995 272.734,159.995 297.794,159.995 " fill="none" id="POD-backto-Web Application" style="stroke:#181818;stroke-width:1.0;"/><polygon fill="#181818" points="217.602,159.995,226.602,163.995,222.602,159.995,226.602,155.995,217.602,159.995" style="stroke:#181818;stroke-width:1.0;"/></g><!--link Device to Web Application--><g id="link_Device_Web Application"><path d="M73.9833,131.779 C83.8845,98.584 105.537,45.023 146.5,21.495 C173.478,6 187.498,10.236 216.5,21.495 C274.047,43.835 323.08,99.355 348.774,132.925 " fill="none" id="Device-Web Application" style="stroke:#181818;stroke-width:1.0;"/><polygon fill="#181818" points="72.4939,136.923,78.8383,129.3898,73.884,132.1201,71.1537,127.1658,72.4939,136.923" style="stroke:#181818;stroke-width:1.0;"/><polygon fill="#181818" points="352.092,137.308,349.8487,127.718,349.074,133.3216,343.4704,132.5469,352.092,137.308" style="stroke:#181818;stroke-width:1.0;"/></g><!--SRC=[VOxB2i8m44Nt-OeX6zqKrBK8HGi6j2scuZfDHodM9AJHXUA_svGgnTTkk7FkvGoYE6CPYpZPwwf02pIydYq2Htj1Isy4Z917SK2W2osF3J3NoebIDTVOlw4GJkIYRe0TvX0QKvLIk58hIk3-hpvfwrAVZ5QeN4DqIstnJbv6snfjxU4-YvTIUhANfSc2-bulMWi3OSee8ODDj0epbiHyoL9EFcGX68w2liCluZNv1QY2MQT1deOm3QnFt-47]--></g></svg>