<?xml version="1.0" encoding="us-ascii" standalone="no"?><svg xmlns="http://www.w3.org/2000/svg" xmlns:xlink="http://www.w3.org/1999/xlink" contentStyleType="text/css" height="660px" preserveAspectRatio="none" style="width:1305px;height:660px;background:#FFFFFF;" version="1.1" viewBox="0 0 1305 660" width="1305px" zoomAndPan="magnify"><defs/><g><!--class PlaceVisibility--><g id="elem_PlaceVisibility"><rect codeLine="1" fill="#F1F1F1" height="64.2969" id="PlaceVisibility" rx="2.5" ry="2.5" style="stroke:#181818;stroke-width:0.5;" width="249" x="621" y="132.5"/><ellipse cx="692.75" cy="148.5" fill="#B4A7E5" rx="11" ry="11" style="stroke:#181818;stroke-width:1.0;"/><path d="M693.7031,145.2813 L695.4219,145.2813 C695.8125,145.2813 696,145.25 696.125,145.1719 C696.3906,145.0156 696.5313,144.7344 696.5313,144.4375 C696.5313,144.1719 696.4219,143.9063 696.1875,143.7344 C696.0156,143.625 695.875,143.5938 695.4219,143.5938 L690.2813,143.5938 C689.8438,143.5938 689.7188,143.6094 689.5625,143.7031 C689.3125,143.8594 689.1563,144.1563 689.1563,144.4375 C689.1563,144.7188 689.2969,144.9688 689.5156,145.1406 C689.6719,145.25 689.8594,145.2813 690.2813,145.2813 L692,145.2813 L692,151.7969 L690.2813,151.7969 C689.8438,151.7969 689.7188,151.8125 689.5625,151.9219 C689.3125,152.0781 689.1563,152.3594 689.1563,152.6563 C689.1563,152.9063 689.2969,153.1719 689.5156,153.3281 C689.6719,153.4531 689.875,153.5 690.2813,153.5 L695.4219,153.5 C696.1719,153.5 696.5313,153.2188 696.5313,152.6563 C696.5313,152.375 696.4219,152.125 696.1875,151.9531 C696.0156,151.8281 695.875,151.7969 695.4219,151.7969 L693.7031,151.7969 L693.7031,145.2813 Z " fill="#000000"/><text fill="#000000" font-family="sans-serif" font-size="14" font-style="italic" lengthAdjust="spacing" textLength="97" x="713.25" y="153.3467">PlaceVisibility</text><line style="stroke:#181818;stroke-width:0.5;" x1="622" x2="869" y1="164.5" y2="164.5"/><line style="stroke:#181818;stroke-width:0.5;" x1="622" x2="869" y1="172.5" y2="172.5"/><text fill="#000000" font-family="sans-serif" font-size="14" lengthAdjust="spacing" textLength="237" x="627" y="189.4951">isVisibleFor(user : User) : boolean</text></g><!--class UserPlaceVisibility--><g id="elem_UserPlaceVisibility"><rect codeLine="5" fill="#F1F1F1" height="48" id="UserPlaceVisibility" rx="2.5" ry="2.5" style="stroke:#181818;stroke-width:0.5;" width="163" x="585" y="7"/><ellipse cx="600" cy="23" fill="#ADD1B2" rx="11" ry="11" style="stroke:#181818;stroke-width:1.0;"/><path d="M602.3438,18.6719 C601.4063,18.2344 600.8125,18.0938 599.9375,18.0938 C597.3125,18.0938 595.3125,20.1719 595.3125,22.8906 L595.3125,24.0156 C595.3125,26.5938 597.4219,28.4844 600.3125,28.4844 C601.5313,28.4844 602.6875,28.1875 603.4375,27.6406 C604.0156,27.2344 604.3438,26.7813 604.3438,26.3906 C604.3438,25.9375 603.9531,25.5469 603.4844,25.5469 C603.2656,25.5469 603.0625,25.625 602.875,25.8125 C602.4219,26.2969 602.4219,26.2969 602.2344,26.3906 C601.8125,26.6563 601.125,26.7813 600.3594,26.7813 C598.3125,26.7813 597.0156,25.6875 597.0156,23.9844 L597.0156,22.8906 C597.0156,21.1094 598.2656,19.7969 600,19.7969 C600.5781,19.7969 601.1875,19.9531 601.6563,20.2031 C602.1406,20.4844 602.3125,20.7031 602.4063,21.1094 C602.4688,21.5156 602.5,21.6406 602.6406,21.7656 C602.7813,21.9063 603.0156,22.0156 603.2344,22.0156 C603.5,22.0156 603.7656,21.875 603.9375,21.6563 C604.0469,21.5 604.0781,21.3125 604.0781,20.8906 L604.0781,19.4688 C604.0781,19.0313 604.0625,18.9063 603.9688,18.75 C603.8125,18.4844 603.5313,18.3438 603.2344,18.3438 C602.9375,18.3438 602.7344,18.4375 602.5156,18.75 L602.3438,18.6719 Z " fill="#000000"/><text fill="#000000" font-family="sans-serif" font-size="14" lengthAdjust="spacing" textLength="131" x="614" y="27.8467">UserPlaceVisibility</text><line style="stroke:#181818;stroke-width:0.5;" x1="586" x2="747" y1="39" y2="39"/><line style="stroke:#181818;stroke-width:0.5;" x1="586" x2="747" y1="47" y2="47"/></g><!--class FriendsPlaceVisibility--><g id="elem_FriendsPlaceVisibility"><rect codeLine="9" fill="#F1F1F1" height="48" id="FriendsPlaceVisibility" rx="2.5" ry="2.5" style="stroke:#181818;stroke-width:0.5;" width="184" x="974.5" y="7"/><ellipse cx="989.5" cy="23" fill="#ADD1B2" rx="11" ry="11" style="stroke:#181818;stroke-width:1.0;"/><path d="M991.8438,18.6719 C990.9063,18.2344 990.3125,18.0938 989.4375,18.0938 C986.8125,18.0938 984.8125,20.1719 984.8125,22.8906 L984.8125,24.0156 C984.8125,26.5938 986.9219,28.4844 989.8125,28.4844 C991.0313,28.4844 992.1875,28.1875 992.9375,27.6406 C993.5156,27.2344 993.8438,26.7813 993.8438,26.3906 C993.8438,25.9375 993.4531,25.5469 992.9844,25.5469 C992.7656,25.5469 992.5625,25.625 992.375,25.8125 C991.9219,26.2969 991.9219,26.2969 991.7344,26.3906 C991.3125,26.6563 990.625,26.7813 989.8594,26.7813 C987.8125,26.7813 986.5156,25.6875 986.5156,23.9844 L986.5156,22.8906 C986.5156,21.1094 987.7656,19.7969 989.5,19.7969 C990.0781,19.7969 990.6875,19.9531 991.1563,20.2031 C991.6406,20.4844 991.8125,20.7031 991.9063,21.1094 C991.9688,21.5156 992,21.6406 992.1406,21.7656 C992.2813,21.9063 992.5156,22.0156 992.7344,22.0156 C993,22.0156 993.2656,21.875 993.4375,21.6563 C993.5469,21.5 993.5781,21.3125 993.5781,20.8906 L993.5781,19.4688 C993.5781,19.0313 993.5625,18.9063 993.4688,18.75 C993.3125,18.4844 993.0313,18.3438 992.7344,18.3438 C992.4375,18.3438 992.2344,18.4375 992.0156,18.75 L991.8438,18.6719 Z " fill="#000000"/><text fill="#000000" font-family="sans-serif" font-size="14" lengthAdjust="spacing" textLength="152" x="1003.5" y="27.8467">FriendsPlaceVisibility</text><line style="stroke:#181818;stroke-width:0.5;" x1="975.5" x2="1157.5" y1="39" y2="39"/><line style="stroke:#181818;stroke-width:0.5;" x1="975.5" x2="1157.5" y1="47" y2="47"/></g><!--class GroupPlaceVisibility--><g id="elem_GroupPlaceVisibility"><rect codeLine="76" fill="#F1F1F1" height="48" id="GroupPlaceVisibility" rx="2.5" ry="2.5" style="stroke:#181818;stroke-width:0.5;" width="176" x="373.5" y="7"/><ellipse cx="388.5" cy="23" fill="#ADD1B2" rx="11" ry="11" style="stroke:#181818;stroke-width:1.0;"/><path d="M390.8438,18.6719 C389.9063,18.2344 389.3125,18.0938 388.4375,18.0938 C385.8125,18.0938 383.8125,20.1719 383.8125,22.8906 L383.8125,24.0156 C383.8125,26.5938 385.9219,28.4844 388.8125,28.4844 C390.0313,28.4844 391.1875,28.1875 391.9375,27.6406 C392.5156,27.2344 392.8438,26.7813 392.8438,26.3906 C392.8438,25.9375 392.4531,25.5469 391.9844,25.5469 C391.7656,25.5469 391.5625,25.625 391.375,25.8125 C390.9219,26.2969 390.9219,26.2969 390.7344,26.3906 C390.3125,26.6563 389.625,26.7813 388.8594,26.7813 C386.8125,26.7813 385.5156,25.6875 385.5156,23.9844 L385.5156,22.8906 C385.5156,21.1094 386.7656,19.7969 388.5,19.7969 C389.0781,19.7969 389.6875,19.9531 390.1563,20.2031 C390.6406,20.4844 390.8125,20.7031 390.9063,21.1094 C390.9688,21.5156 391,21.6406 391.1406,21.7656 C391.2813,21.9063 391.5156,22.0156 391.7344,22.0156 C392,22.0156 392.2656,21.875 392.4375,21.6563 C392.5469,21.5 392.5781,21.3125 392.5781,20.8906 L392.5781,19.4688 C392.5781,19.0313 392.5625,18.9063 392.4688,18.75 C392.3125,18.4844 392.0313,18.3438 391.7344,18.3438 C391.4375,18.3438 391.2344,18.4375 391.0156,18.75 L390.8438,18.6719 Z " fill="#000000"/><text fill="#000000" font-family="sans-serif" font-size="14" lengthAdjust="spacing" textLength="144" x="402.5" y="27.8467">GroupPlaceVisibility</text><line style="stroke:#181818;stroke-width:0.5;" x1="374.5" x2="548.5" y1="39" y2="39"/><line style="stroke:#181818;stroke-width:0.5;" x1="374.5" x2="548.5" y1="47" y2="47"/></g><!--class FullPlaceVisibility--><g id="elem_FullPlaceVisibility"><rect codeLine="17" fill="#F1F1F1" height="48" id="FullPlaceVisibility" rx="2.5" ry="2.5" style="stroke:#181818;stroke-width:0.5;" width="156" x="783.5" y="7"/><ellipse cx="798.5" cy="23" fill="#ADD1B2" rx="11" ry="11" style="stroke:#181818;stroke-width:1.0;"/><path d="M800.8438,18.6719 C799.9063,18.2344 799.3125,18.0938 798.4375,18.0938 C795.8125,18.0938 793.8125,20.1719 793.8125,22.8906 L793.8125,24.0156 C793.8125,26.5938 795.9219,28.4844 798.8125,28.4844 C800.0313,28.4844 801.1875,28.1875 801.9375,27.6406 C802.5156,27.2344 802.8438,26.7813 802.8438,26.3906 C802.8438,25.9375 802.4531,25.5469 801.9844,25.5469 C801.7656,25.5469 801.5625,25.625 801.375,25.8125 C800.9219,26.2969 800.9219,26.2969 800.7344,26.3906 C800.3125,26.6563 799.625,26.7813 798.8594,26.7813 C796.8125,26.7813 795.5156,25.6875 795.5156,23.9844 L795.5156,22.8906 C795.5156,21.1094 796.7656,19.7969 798.5,19.7969 C799.0781,19.7969 799.6875,19.9531 800.1563,20.2031 C800.6406,20.4844 800.8125,20.7031 800.9063,21.1094 C800.9688,21.5156 801,21.6406 801.1406,21.7656 C801.2813,21.9063 801.5156,22.0156 801.7344,22.0156 C802,22.0156 802.2656,21.875 802.4375,21.6563 C802.5469,21.5 802.5781,21.3125 802.5781,20.8906 L802.5781,19.4688 C802.5781,19.0313 802.5625,18.9063 802.4688,18.75 C802.3125,18.4844 802.0313,18.3438 801.7344,18.3438 C801.4375,18.3438 801.2344,18.4375 801.0156,18.75 L800.8438,18.6719 Z " fill="#000000"/><text fill="#000000" font-family="sans-serif" font-size="14" lengthAdjust="spacing" textLength="124" x="812.5" y="27.8467">FullPlaceVisibility</text><line style="stroke:#181818;stroke-width:0.5;" x1="784.5" x2="938.5" y1="39" y2="39"/><line style="stroke:#181818;stroke-width:0.5;" x1="784.5" x2="938.5" y1="47" y2="47"/></g><!--class GroupVisibility--><g id="elem_GroupVisibility"><rect codeLine="21" fill="#F1F1F1" height="64.2969" id="GroupVisibility" rx="2.5" ry="2.5" style="stroke:#181818;stroke-width:0.5;" width="249" x="53" y="132.5"/><ellipse cx="121.75" cy="148.5" fill="#B4A7E5" rx="11" ry="11" style="stroke:#181818;stroke-width:1.0;"/><path d="M122.7031,145.2813 L124.4219,145.2813 C124.8125,145.2813 125,145.25 125.125,145.1719 C125.3906,145.0156 125.5313,144.7344 125.5313,144.4375 C125.5313,144.1719 125.4219,143.9063 125.1875,143.7344 C125.0156,143.625 124.875,143.5938 124.4219,143.5938 L119.2813,143.5938 C118.8438,143.5938 118.7188,143.6094 118.5625,143.7031 C118.3125,143.8594 118.1563,144.1563 118.1563,144.4375 C118.1563,144.7188 118.2969,144.9688 118.5156,145.1406 C118.6719,145.25 118.8594,145.2813 119.2813,145.2813 L121,145.2813 L121,151.7969 L119.2813,151.7969 C118.8438,151.7969 118.7188,151.8125 118.5625,151.9219 C118.3125,152.0781 118.1563,152.3594 118.1563,152.6563 C118.1563,152.9063 118.2969,153.1719 118.5156,153.3281 C118.6719,153.4531 118.875,153.5 119.2813,153.5 L124.4219,153.5 C125.1719,153.5 125.5313,153.2188 125.5313,152.6563 C125.5313,152.375 125.4219,152.125 125.1875,151.9531 C125.0156,151.8281 124.875,151.7969 124.4219,151.7969 L122.7031,151.7969 L122.7031,145.2813 Z " fill="#000000"/><text fill="#000000" font-family="sans-serif" font-size="14" font-style="italic" lengthAdjust="spacing" textLength="103" x="142.25" y="153.3467">GroupVisibility</text><line style="stroke:#181818;stroke-width:0.5;" x1="54" x2="301" y1="164.5" y2="164.5"/><line style="stroke:#181818;stroke-width:0.5;" x1="54" x2="301" y1="172.5" y2="172.5"/><text fill="#000000" font-family="sans-serif" font-size="14" lengthAdjust="spacing" textLength="237" x="59" y="189.4951">isVisibleFor(user : User) : boolean</text></g><!--class PrivateGroup--><g id="elem_PrivateGroup"><rect codeLine="25" fill="#F1F1F1" height="48" id="PrivateGroup" rx="2.5" ry="2.5" style="stroke:#181818;stroke-width:0.5;" width="127" x="7" y="7"/><ellipse cx="22" cy="23" fill="#ADD1B2" rx="11" ry="11" style="stroke:#181818;stroke-width:1.0;"/><path d="M24.3438,18.6719 C23.4063,18.2344 22.8125,18.0938 21.9375,18.0938 C19.3125,18.0938 17.3125,20.1719 17.3125,22.8906 L17.3125,24.0156 C17.3125,26.5938 19.4219,28.4844 22.3125,28.4844 C23.5313,28.4844 24.6875,28.1875 25.4375,27.6406 C26.0156,27.2344 26.3438,26.7813 26.3438,26.3906 C26.3438,25.9375 25.9531,25.5469 25.4844,25.5469 C25.2656,25.5469 25.0625,25.625 24.875,25.8125 C24.4219,26.2969 24.4219,26.2969 24.2344,26.3906 C23.8125,26.6563 23.125,26.7813 22.3594,26.7813 C20.3125,26.7813 19.0156,25.6875 19.0156,23.9844 L19.0156,22.8906 C19.0156,21.1094 20.2656,19.7969 22,19.7969 C22.5781,19.7969 23.1875,19.9531 23.6563,20.2031 C24.1406,20.4844 24.3125,20.7031 24.4063,21.1094 C24.4688,21.5156 24.5,21.6406 24.6406,21.7656 C24.7813,21.9063 25.0156,22.0156 25.2344,22.0156 C25.5,22.0156 25.7656,21.875 25.9375,21.6563 C26.0469,21.5 26.0781,21.3125 26.0781,20.8906 L26.0781,19.4688 C26.0781,19.0313 26.0625,18.9063 25.9688,18.75 C25.8125,18.4844 25.5313,18.3438 25.2344,18.3438 C24.9375,18.3438 24.7344,18.4375 24.5156,18.75 L24.3438,18.6719 Z " fill="#000000"/><text fill="#000000" font-family="sans-serif" font-size="14" lengthAdjust="spacing" textLength="95" x="36" y="27.8467">PrivateGroup</text><line style="stroke:#181818;stroke-width:0.5;" x1="8" x2="133" y1="39" y2="39"/><line style="stroke:#181818;stroke-width:0.5;" x1="8" x2="133" y1="47" y2="47"/></g><!--class PublicGroup--><g id="elem_PublicGroup"><rect codeLine="29" fill="#F1F1F1" height="48" id="PublicGroup" rx="2.5" ry="2.5" style="stroke:#181818;stroke-width:0.5;" width="119" x="169" y="7"/><ellipse cx="184" cy="23" fill="#ADD1B2" rx="11" ry="11" style="stroke:#181818;stroke-width:1.0;"/><path d="M186.3438,18.6719 C185.4063,18.2344 184.8125,18.0938 183.9375,18.0938 C181.3125,18.0938 179.3125,20.1719 179.3125,22.8906 L179.3125,24.0156 C179.3125,26.5938 181.4219,28.4844 184.3125,28.4844 C185.5313,28.4844 186.6875,28.1875 187.4375,27.6406 C188.0156,27.2344 188.3438,26.7813 188.3438,26.3906 C188.3438,25.9375 187.9531,25.5469 187.4844,25.5469 C187.2656,25.5469 187.0625,25.625 186.875,25.8125 C186.4219,26.2969 186.4219,26.2969 186.2344,26.3906 C185.8125,26.6563 185.125,26.7813 184.3594,26.7813 C182.3125,26.7813 181.0156,25.6875 181.0156,23.9844 L181.0156,22.8906 C181.0156,21.1094 182.2656,19.7969 184,19.7969 C184.5781,19.7969 185.1875,19.9531 185.6563,20.2031 C186.1406,20.4844 186.3125,20.7031 186.4063,21.1094 C186.4688,21.5156 186.5,21.6406 186.6406,21.7656 C186.7813,21.9063 187.0156,22.0156 187.2344,22.0156 C187.5,22.0156 187.7656,21.875 187.9375,21.6563 C188.0469,21.5 188.0781,21.3125 188.0781,20.8906 L188.0781,19.4688 C188.0781,19.0313 188.0625,18.9063 187.9688,18.75 C187.8125,18.4844 187.5313,18.3438 187.2344,18.3438 C186.9375,18.3438 186.7344,18.4375 186.5156,18.75 L186.3438,18.6719 Z " fill="#000000"/><text fill="#000000" font-family="sans-serif" font-size="14" lengthAdjust="spacing" textLength="87" x="198" y="27.8467">PublicGroup</text><line style="stroke:#181818;stroke-width:0.5;" x1="170" x2="287" y1="39" y2="39"/><line style="stroke:#181818;stroke-width:0.5;" x1="170" x2="287" y1="47" y2="47"/></g><!--class Place--><g id="elem_Place"><rect codeLine="33" fill="#F1F1F1" height="96.8906" id="Place" rx="2.5" ry="2.5" style="stroke:#181818;stroke-width:0.5;" width="249" x="905" y="116"/><ellipse cx="1006.25" cy="132" fill="#ADD1B2" rx="11" ry="11" style="stroke:#181818;stroke-width:1.0;"/><path d="M1008.5938,127.6719 C1007.6563,127.2344 1007.0625,127.0938 1006.1875,127.0938 C1003.5625,127.0938 1001.5625,129.1719 1001.5625,131.8906 L1001.5625,133.0156 C1001.5625,135.5938 1003.6719,137.4844 1006.5625,137.4844 C1007.7813,137.4844 1008.9375,137.1875 1009.6875,136.6406 C1010.2656,136.2344 1010.5938,135.7813 1010.5938,135.3906 C1010.5938,134.9375 1010.2031,134.5469 1009.7344,134.5469 C1009.5156,134.5469 1009.3125,134.625 1009.125,134.8125 C1008.6719,135.2969 1008.6719,135.2969 1008.4844,135.3906 C1008.0625,135.6563 1007.375,135.7813 1006.6094,135.7813 C1004.5625,135.7813 1003.2656,134.6875 1003.2656,132.9844 L1003.2656,131.8906 C1003.2656,130.1094 1004.5156,128.7969 1006.25,128.7969 C1006.8281,128.7969 1007.4375,128.9531 1007.9063,129.2031 C1008.3906,129.4844 1008.5625,129.7031 1008.6563,130.1094 C1008.7188,130.5156 1008.75,130.6406 1008.8906,130.7656 C1009.0313,130.9063 1009.2656,131.0156 1009.4844,131.0156 C1009.75,131.0156 1010.0156,130.875 1010.1875,130.6563 C1010.2969,130.5 1010.3281,130.3125 1010.3281,129.8906 L1010.3281,128.4688 C1010.3281,128.0313 1010.3125,127.9063 1010.2188,127.75 C1010.0625,127.4844 1009.7813,127.3438 1009.4844,127.3438 C1009.1875,127.3438 1008.9844,127.4375 1008.7656,127.75 L1008.5938,127.6719 Z " fill="#000000"/><text fill="#000000" font-family="sans-serif" font-size="14" lengthAdjust="spacing" textLength="38" x="1026.75" y="136.8467">Place</text><line style="stroke:#181818;stroke-width:0.5;" x1="906" x2="1153" y1="148" y2="148"/><text fill="#000000" font-family="sans-serif" font-size="14" lengthAdjust="spacing" textLength="97" x="911" y="164.9951">name : String</text><text fill="#000000" font-family="sans-serif" font-size="14" lengthAdjust="spacing" textLength="185" x="911" y="181.292">coordinates : Coordinates</text><line style="stroke:#181818;stroke-width:0.5;" x1="906" x2="1153" y1="188.5938" y2="188.5938"/><text fill="#000000" font-family="sans-serif" font-size="14" lengthAdjust="spacing" textLength="237" x="911" y="205.5889">isVisibleFor(user : User) : boolean</text></g><!--class Category--><g id="elem_Category"><rect codeLine="39" fill="#F1F1F1" height="64.2969" id="Category" rx="2.5" ry="2.5" style="stroke:#181818;stroke-width:0.5;" width="109" x="1189" y="274"/><ellipse cx="1208.95" cy="290" fill="#ADD1B2" rx="11" ry="11" style="stroke:#181818;stroke-width:1.0;"/><path d="M1211.2938,285.6719 C1210.3563,285.2344 1209.7625,285.0938 1208.8875,285.0938 C1206.2625,285.0938 1204.2625,287.1719 1204.2625,289.8906 L1204.2625,291.0156 C1204.2625,293.5938 1206.3719,295.4844 1209.2625,295.4844 C1210.4813,295.4844 1211.6375,295.1875 1212.3875,294.6406 C1212.9656,294.2344 1213.2938,293.7813 1213.2938,293.3906 C1213.2938,292.9375 1212.9031,292.5469 1212.4344,292.5469 C1212.2156,292.5469 1212.0125,292.625 1211.825,292.8125 C1211.3719,293.2969 1211.3719,293.2969 1211.1844,293.3906 C1210.7625,293.6563 1210.075,293.7813 1209.3094,293.7813 C1207.2625,293.7813 1205.9656,292.6875 1205.9656,290.9844 L1205.9656,289.8906 C1205.9656,288.1094 1207.2156,286.7969 1208.95,286.7969 C1209.5281,286.7969 1210.1375,286.9531 1210.6063,287.2031 C1211.0906,287.4844 1211.2625,287.7031 1211.3563,288.1094 C1211.4188,288.5156 1211.45,288.6406 1211.5906,288.7656 C1211.7313,288.9063 1211.9656,289.0156 1212.1844,289.0156 C1212.45,289.0156 1212.7156,288.875 1212.8875,288.6563 C1212.9969,288.5 1213.0281,288.3125 1213.0281,287.8906 L1213.0281,286.4688 C1213.0281,286.0313 1213.0125,285.9063 1212.9188,285.75 C1212.7625,285.4844 1212.4813,285.3438 1212.1844,285.3438 C1211.8875,285.3438 1211.6844,285.4375 1211.4656,285.75 L1211.2938,285.6719 Z " fill="#000000"/><text fill="#000000" font-family="sans-serif" font-size="14" lengthAdjust="spacing" textLength="66" x="1224.05" y="294.8467">Category</text><line style="stroke:#181818;stroke-width:0.5;" x1="1190" x2="1297" y1="306" y2="306"/><text fill="#000000" font-family="sans-serif" font-size="14" lengthAdjust="spacing" textLength="97" x="1195" y="322.9951">name : String</text><line style="stroke:#181818;stroke-width:0.5;" x1="1190" x2="1297" y1="330.2969" y2="330.2969"/></g><!--class Picture--><g id="elem_Picture"><rect codeLine="43" fill="#F1F1F1" height="64.2969" id="Picture" rx="2.5" ry="2.5" style="stroke:#181818;stroke-width:0.5;" width="87" x="737" y="274"/><ellipse cx="753.8" cy="290" fill="#ADD1B2" rx="11" ry="11" style="stroke:#181818;stroke-width:1.0;"/><path d="M756.1438,285.6719 C755.2063,285.2344 754.6125,285.0938 753.7375,285.0938 C751.1125,285.0938 749.1125,287.1719 749.1125,289.8906 L749.1125,291.0156 C749.1125,293.5938 751.2219,295.4844 754.1125,295.4844 C755.3313,295.4844 756.4875,295.1875 757.2375,294.6406 C757.8156,294.2344 758.1438,293.7813 758.1438,293.3906 C758.1438,292.9375 757.7531,292.5469 757.2844,292.5469 C757.0656,292.5469 756.8625,292.625 756.675,292.8125 C756.2219,293.2969 756.2219,293.2969 756.0344,293.3906 C755.6125,293.6563 754.925,293.7813 754.1594,293.7813 C752.1125,293.7813 750.8156,292.6875 750.8156,290.9844 L750.8156,289.8906 C750.8156,288.1094 752.0656,286.7969 753.8,286.7969 C754.3781,286.7969 754.9875,286.9531 755.4563,287.2031 C755.9406,287.4844 756.1125,287.7031 756.2063,288.1094 C756.2688,288.5156 756.3,288.6406 756.4406,288.7656 C756.5813,288.9063 756.8156,289.0156 757.0344,289.0156 C757.3,289.0156 757.5656,288.875 757.7375,288.6563 C757.8469,288.5 757.8781,288.3125 757.8781,287.8906 L757.8781,286.4688 C757.8781,286.0313 757.8625,285.9063 757.7688,285.75 C757.6125,285.4844 757.3313,285.3438 757.0344,285.3438 C756.7375,285.3438 756.5344,285.4375 756.3156,285.75 L756.1438,285.6719 Z " fill="#000000"/><text fill="#000000" font-family="sans-serif" font-size="14" lengthAdjust="spacing" textLength="51" x="768.2" y="294.8467">Picture</text><line style="stroke:#181818;stroke-width:0.5;" x1="738" x2="823" y1="306" y2="306"/><text fill="#000000" font-family="sans-serif" font-size="14" lengthAdjust="spacing" textLength="75" x="743" y="322.9951">url : String</text><line style="stroke:#181818;stroke-width:0.5;" x1="738" x2="823" y1="330.2969" y2="330.2969"/></g><!--class Comment--><g id="elem_Comment"><rect codeLine="47" fill="#F1F1F1" height="64.2969" id="Comment" rx="2.5" ry="2.5" style="stroke:#181818;stroke-width:0.5;" width="104" x="1049.5" y="274"/><ellipse cx="1064.5" cy="290" fill="#ADD1B2" rx="11" ry="11" style="stroke:#181818;stroke-width:1.0;"/><path d="M1066.8438,285.6719 C1065.9063,285.2344 1065.3125,285.0938 1064.4375,285.0938 C1061.8125,285.0938 1059.8125,287.1719 1059.8125,289.8906 L1059.8125,291.0156 C1059.8125,293.5938 1061.9219,295.4844 1064.8125,295.4844 C1066.0313,295.4844 1067.1875,295.1875 1067.9375,294.6406 C1068.5156,294.2344 1068.8438,293.7813 1068.8438,293.3906 C1068.8438,292.9375 1068.4531,292.5469 1067.9844,292.5469 C1067.7656,292.5469 1067.5625,292.625 1067.375,292.8125 C1066.9219,293.2969 1066.9219,293.2969 1066.7344,293.3906 C1066.3125,293.6563 1065.625,293.7813 1064.8594,293.7813 C1062.8125,293.7813 1061.5156,292.6875 1061.5156,290.9844 L1061.5156,289.8906 C1061.5156,288.1094 1062.7656,286.7969 1064.5,286.7969 C1065.0781,286.7969 1065.6875,286.9531 1066.1563,287.2031 C1066.6406,287.4844 1066.8125,287.7031 1066.9063,288.1094 C1066.9688,288.5156 1067,288.6406 1067.1406,288.7656 C1067.2813,288.9063 1067.5156,289.0156 1067.7344,289.0156 C1068,289.0156 1068.2656,288.875 1068.4375,288.6563 C1068.5469,288.5 1068.5781,288.3125 1068.5781,287.8906 L1068.5781,286.4688 C1068.5781,286.0313 1068.5625,285.9063 1068.4688,285.75 C1068.3125,285.4844 1068.0313,285.3438 1067.7344,285.3438 C1067.4375,285.3438 1067.2344,285.4375 1067.0156,285.75 L1066.8438,285.6719 Z " fill="#000000"/><text fill="#000000" font-family="sans-serif" font-size="14" lengthAdjust="spacing" textLength="72" x="1078.5" y="294.8467">Comment</text><line style="stroke:#181818;stroke-width:0.5;" x1="1050.5" x2="1152.5" y1="306" y2="306"/><text fill="#000000" font-family="sans-serif" font-size="14" lengthAdjust="spacing" textLength="88" x="1055.5" y="322.9951">text : String</text><line style="stroke:#181818;stroke-width:0.5;" x1="1050.5" x2="1152.5" y1="330.2969" y2="330.2969"/></g><!--class Score--><g id="elem_Score"><rect codeLine="51" fill="#F1F1F1" height="64.2969" id="Score" rx="2.5" ry="2.5" style="stroke:#181818;stroke-width:0.5;" width="84" x="930.5" y="274"/><ellipse cx="950.45" cy="290" fill="#ADD1B2" rx="11" ry="11" style="stroke:#181818;stroke-width:1.0;"/><path d="M952.7938,285.6719 C951.8563,285.2344 951.2625,285.0938 950.3875,285.0938 C947.7625,285.0938 945.7625,287.1719 945.7625,289.8906 L945.7625,291.0156 C945.7625,293.5938 947.8719,295.4844 950.7625,295.4844 C951.9813,295.4844 953.1375,295.1875 953.8875,294.6406 C954.4656,294.2344 954.7938,293.7813 954.7938,293.3906 C954.7938,292.9375 954.4031,292.5469 953.9344,292.5469 C953.7156,292.5469 953.5125,292.625 953.325,292.8125 C952.8719,293.2969 952.8719,293.2969 952.6844,293.3906 C952.2625,293.6563 951.575,293.7813 950.8094,293.7813 C948.7625,293.7813 947.4656,292.6875 947.4656,290.9844 L947.4656,289.8906 C947.4656,288.1094 948.7156,286.7969 950.45,286.7969 C951.0281,286.7969 951.6375,286.9531 952.1063,287.2031 C952.5906,287.4844 952.7625,287.7031 952.8563,288.1094 C952.9188,288.5156 952.95,288.6406 953.0906,288.7656 C953.2313,288.9063 953.4656,289.0156 953.6844,289.0156 C953.95,289.0156 954.2156,288.875 954.3875,288.6563 C954.4969,288.5 954.5281,288.3125 954.5281,287.8906 L954.5281,286.4688 C954.5281,286.0313 954.5125,285.9063 954.4188,285.75 C954.2625,285.4844 953.9813,285.3438 953.6844,285.3438 C953.3875,285.3438 953.1844,285.4375 952.9656,285.75 L952.7938,285.6719 Z " fill="#000000"/><text fill="#000000" font-family="sans-serif" font-size="14" lengthAdjust="spacing" textLength="41" x="965.55" y="294.8467">Score</text><line style="stroke:#181818;stroke-width:0.5;" x1="931.5" x2="1013.5" y1="306" y2="306"/><text fill="#000000" font-family="sans-serif" font-size="14" lengthAdjust="spacing" textLength="72" x="936.5" y="322.9951">score : int</text><line style="stroke:#181818;stroke-width:0.5;" x1="931.5" x2="1013.5" y1="330.2969" y2="330.2969"/></g><!--class Route--><g id="elem_Route"><rect codeLine="55" fill="#F1F1F1" height="64.2969" id="Route" rx="2.5" ry="2.5" style="stroke:#181818;stroke-width:0.5;" width="109" x="1189" y="132.5"/><ellipse cx="1219.3" cy="148.5" fill="#ADD1B2" rx="11" ry="11" style="stroke:#181818;stroke-width:1.0;"/><path d="M1221.6438,144.1719 C1220.7063,143.7344 1220.1125,143.5938 1219.2375,143.5938 C1216.6125,143.5938 1214.6125,145.6719 1214.6125,148.3906 L1214.6125,149.5156 C1214.6125,152.0938 1216.7219,153.9844 1219.6125,153.9844 C1220.8313,153.9844 1221.9875,153.6875 1222.7375,153.1406 C1223.3156,152.7344 1223.6438,152.2813 1223.6438,151.8906 C1223.6438,151.4375 1223.2531,151.0469 1222.7844,151.0469 C1222.5656,151.0469 1222.3625,151.125 1222.175,151.3125 C1221.7219,151.7969 1221.7219,151.7969 1221.5344,151.8906 C1221.1125,152.1563 1220.425,152.2813 1219.6594,152.2813 C1217.6125,152.2813 1216.3156,151.1875 1216.3156,149.4844 L1216.3156,148.3906 C1216.3156,146.6094 1217.5656,145.2969 1219.3,145.2969 C1219.8781,145.2969 1220.4875,145.4531 1220.9563,145.7031 C1221.4406,145.9844 1221.6125,146.2031 1221.7063,146.6094 C1221.7688,147.0156 1221.8,147.1406 1221.9406,147.2656 C1222.0813,147.4063 1222.3156,147.5156 1222.5344,147.5156 C1222.8,147.5156 1223.0656,147.375 1223.2375,147.1563 C1223.3469,147 1223.3781,146.8125 1223.3781,146.3906 L1223.3781,144.9688 C1223.3781,144.5313 1223.3625,144.4063 1223.2688,144.25 C1223.1125,143.9844 1222.8313,143.8438 1222.5344,143.8438 C1222.2375,143.8438 1222.0344,143.9375 1221.8156,144.25 L1221.6438,144.1719 Z " fill="#000000"/><text fill="#000000" font-family="sans-serif" font-size="14" lengthAdjust="spacing" textLength="43" x="1236.7" y="153.3467">Route</text><line style="stroke:#181818;stroke-width:0.5;" x1="1190" x2="1297" y1="164.5" y2="164.5"/><text fill="#000000" font-family="sans-serif" font-size="14" lengthAdjust="spacing" textLength="97" x="1195" y="181.4951">name : String</text><line style="stroke:#181818;stroke-width:0.5;" x1="1190" x2="1297" y1="188.7969" y2="188.7969"/></g><!--class User--><g id="elem_User"><rect codeLine="59" fill="#F1F1F1" height="96.8906" id="User" rx="2.5" ry="2.5" style="stroke:#181818;stroke-width:0.5;" width="139" x="808" y="399"/><ellipse cx="857.75" cy="415" fill="#ADD1B2" rx="11" ry="11" style="stroke:#181818;stroke-width:1.0;"/><path d="M860.0938,410.6719 C859.1563,410.2344 858.5625,410.0938 857.6875,410.0938 C855.0625,410.0938 853.0625,412.1719 853.0625,414.8906 L853.0625,416.0156 C853.0625,418.5938 855.1719,420.4844 858.0625,420.4844 C859.2813,420.4844 860.4375,420.1875 861.1875,419.6406 C861.7656,419.2344 862.0938,418.7813 862.0938,418.3906 C862.0938,417.9375 861.7031,417.5469 861.2344,417.5469 C861.0156,417.5469 860.8125,417.625 860.625,417.8125 C860.1719,418.2969 860.1719,418.2969 859.9844,418.3906 C859.5625,418.6563 858.875,418.7813 858.1094,418.7813 C856.0625,418.7813 854.7656,417.6875 854.7656,415.9844 L854.7656,414.8906 C854.7656,413.1094 856.0156,411.7969 857.75,411.7969 C858.3281,411.7969 858.9375,411.9531 859.4063,412.2031 C859.8906,412.4844 860.0625,412.7031 860.1563,413.1094 C860.2188,413.5156 860.25,413.6406 860.3906,413.7656 C860.5313,413.9063 860.7656,414.0156 860.9844,414.0156 C861.25,414.0156 861.5156,413.875 861.6875,413.6563 C861.7969,413.5 861.8281,413.3125 861.8281,412.8906 L861.8281,411.4688 C861.8281,411.0313 861.8125,410.9063 861.7188,410.75 C861.5625,410.4844 861.2813,410.3438 860.9844,410.3438 C860.6875,410.3438 860.4844,410.4375 860.2656,410.75 L860.0938,410.6719 Z " fill="#000000"/><text fill="#000000" font-family="sans-serif" font-size="14" lengthAdjust="spacing" textLength="31" x="878.25" y="419.8467">User</text><line style="stroke:#181818;stroke-width:0.5;" x1="809" x2="946" y1="431" y2="431"/><text fill="#000000" font-family="sans-serif" font-size="14" lengthAdjust="spacing" textLength="127" x="814" y="447.9951">username : String</text><text fill="#000000" font-family="sans-serif" font-size="14" lengthAdjust="spacing" textLength="124" x="814" y="464.292">password : String</text><text fill="#000000" font-family="sans-serif" font-size="14" lengthAdjust="spacing" textLength="98" x="814" y="480.5889">podId : String</text><line style="stroke:#181818;stroke-width:0.5;" x1="809" x2="946" y1="487.8906" y2="487.8906"/></g><!--class Role--><g id="elem_Role"><rect codeLine="65" fill="#F1F1F1" height="96.8906" id="Role" rx="2.5" ry="2.5" style="stroke:#181818;stroke-width:0.5;" width="81" x="837" y="557"/><ellipse cx="859.65" cy="573" fill="#EB937F" rx="11" ry="11" style="stroke:#181818;stroke-width:1.0;"/><path d="M858.4469,573.875 L859.9,573.875 L859.9,573.9844 C859.9,574.3906 859.9313,574.5469 860.0094,574.7031 C860.1656,574.9531 860.4469,575.1094 860.7438,575.1094 C860.9938,575.1094 861.2594,574.9688 861.4156,574.75 C861.5406,574.5938 861.5719,574.4375 861.5719,573.9844 L861.5719,572.0625 C861.5719,571.9063 861.5719,571.8594 861.5563,571.7031 C861.4938,571.2344 861.1813,570.9219 860.7281,570.9219 C860.4781,570.9219 860.2125,571.0625 860.0406,571.2813 C859.9313,571.4531 859.9,571.6094 859.9,572.0625 L859.9,572.1875 L858.4469,572.1875 L858.4469,569.7813 L862.4313,569.7813 L862.4313,570.6406 C862.4313,571.0469 862.4625,571.2188 862.5406,571.375 C862.7125,571.625 862.9938,571.7813 863.275,571.7813 C863.5406,571.7813 863.8063,571.6406 863.9781,571.4219 C864.0875,571.25 864.1188,571.1094 864.1188,570.6406 L864.1188,568.0938 L856.4938,568.0938 C856.0563,568.0938 855.9313,568.1094 855.775,568.2031 C855.525,568.3594 855.3688,568.6563 855.3688,568.9375 C855.3688,569.2188 855.5094,569.4688 855.7281,569.6406 C855.8844,569.75 856.0719,569.7813 856.4938,569.7813 L856.7438,569.7813 L856.7438,576.2969 L856.4938,576.2969 C856.0875,576.2969 855.9313,576.3125 855.775,576.4219 C855.525,576.5938 855.3688,576.8594 855.3688,577.1563 C855.3688,577.4219 855.5094,577.6719 855.7281,577.8281 C855.8688,577.9531 856.1031,578 856.4938,578 L864.4938,578 L864.4938,575.4219 C864.4938,574.9844 864.4625,574.8438 864.3844,574.6875 C864.2125,574.4375 863.9313,574.2813 863.65,574.2813 C863.3844,574.2813 863.1188,574.3906 862.9469,574.6406 C862.8375,574.7969 862.8063,574.9375 862.8063,575.4219 L862.8063,576.2969 L858.4469,576.2969 L858.4469,573.875 Z " fill="#000000"/><text fill="#000000" font-family="sans-serif" font-size="14" lengthAdjust="spacing" textLength="32" x="875.35" y="577.8467">Role</text><line style="stroke:#181818;stroke-width:0.5;" x1="838" x2="917" y1="589" y2="589"/><text fill="#000000" font-family="sans-serif" font-size="14" lengthAdjust="spacing" textLength="56" x="843" y="605.9951">CITIZEN</text><text fill="#000000" font-family="sans-serif" font-size="14" lengthAdjust="spacing" textLength="61" x="843" y="622.292">TOURIST</text><text fill="#000000" font-family="sans-serif" font-size="14" lengthAdjust="spacing" textLength="69" x="843" y="638.5889">BUSINESS</text><line style="stroke:#181818;stroke-width:0.5;" x1="838" x2="917" y1="645.8906" y2="645.8906"/></g><!--class Group--><g id="elem_Group"><rect codeLine="71" fill="#F1F1F1" height="80.5938" id="Group" rx="2.5" ry="2.5" style="stroke:#181818;stroke-width:0.5;" width="249" x="337" y="124"/><ellipse cx="435.25" cy="140" fill="#ADD1B2" rx="11" ry="11" style="stroke:#181818;stroke-width:1.0;"/><path d="M437.5938,135.6719 C436.6563,135.2344 436.0625,135.0938 435.1875,135.0938 C432.5625,135.0938 430.5625,137.1719 430.5625,139.8906 L430.5625,141.0156 C430.5625,143.5938 432.6719,145.4844 435.5625,145.4844 C436.7813,145.4844 437.9375,145.1875 438.6875,144.6406 C439.2656,144.2344 439.5938,143.7813 439.5938,143.3906 C439.5938,142.9375 439.2031,142.5469 438.7344,142.5469 C438.5156,142.5469 438.3125,142.625 438.125,142.8125 C437.6719,143.2969 437.6719,143.2969 437.4844,143.3906 C437.0625,143.6563 436.375,143.7813 435.6094,143.7813 C433.5625,143.7813 432.2656,142.6875 432.2656,140.9844 L432.2656,139.8906 C432.2656,138.1094 433.5156,136.7969 435.25,136.7969 C435.8281,136.7969 436.4375,136.9531 436.9063,137.2031 C437.3906,137.4844 437.5625,137.7031 437.6563,138.1094 C437.7188,138.5156 437.75,138.6406 437.8906,138.7656 C438.0313,138.9063 438.2656,139.0156 438.4844,139.0156 C438.75,139.0156 439.0156,138.875 439.1875,138.6563 C439.2969,138.5 439.3281,138.3125 439.3281,137.8906 L439.3281,136.4688 C439.3281,136.0313 439.3125,135.9063 439.2188,135.75 C439.0625,135.4844 438.7813,135.3438 438.4844,135.3438 C438.1875,135.3438 437.9844,135.4375 437.7656,135.75 L437.5938,135.6719 Z " fill="#000000"/><text fill="#000000" font-family="sans-serif" font-size="14" lengthAdjust="spacing" textLength="44" x="455.75" y="144.8467">Group</text><line style="stroke:#181818;stroke-width:0.5;" x1="338" x2="585" y1="156" y2="156"/><text fill="#000000" font-family="sans-serif" font-size="14" lengthAdjust="spacing" textLength="97" x="343" y="172.9951">name : String</text><line style="stroke:#181818;stroke-width:0.5;" x1="338" x2="585" y1="180.2969" y2="180.2969"/><text fill="#000000" font-family="sans-serif" font-size="14" lengthAdjust="spacing" textLength="237" x="343" y="197.292">isVisibleFor(user : User) : boolean</text></g><!--link Place to Category--><g id="link_Place_Category"><path codeLine="80" d="M1102.55,213.118 C1133.3,233.166 1168.23,255.936 1195.63,273.793 " fill="none" id="Place-Category" style="stroke:#181818;stroke-width:1.0;"/><text fill="#000000" font-family="sans-serif" font-size="13" lengthAdjust="spacing" textLength="24" x="1087.1352" y="233.0935">0..n</text><text fill="#000000" font-family="sans-serif" font-size="13" lengthAdjust="spacing" textLength="8" x="1177.4181" y="263.0264">1</text></g><!--reverse link Place to Picture--><g id="link_Place_Picture"><path codeLine="81" d="M894.385,219.022 C879.568,226.439 864.984,234.467 851.5,243 C837.672,251.751 823.813,263.126 812.058,273.739 " fill="none" id="Place-backto-Picture" style="stroke:#181818;stroke-width:1.0;"/><polygon fill="none" points="906.301,213.206,899.1545,212.2427,895.5167,218.4689,902.6631,219.4322,906.301,213.206" style="stroke:#181818;stroke-width:1.0;"/><text fill="#000000" font-family="sans-serif" font-size="13" lengthAdjust="spacing" textLength="24" x="791.9085" y="262.9618">0..n</text></g><!--reverse link Place to Comment--><g id="link_Place_Comment"><path codeLine="82" d="M1060.27,225.119 C1068.92,241.873 1077.98,259.423 1085.39,273.793 " fill="none" id="Place-backto-Comment" style="stroke:#181818;stroke-width:1.0;"/><polygon fill="none" points="1054.08,213.118,1053.2799,220.2846,1059.5875,223.7795,1060.3876,216.6129,1054.08,213.118" style="stroke:#181818;stroke-width:1.0;"/><text fill="#000000" font-family="sans-serif" font-size="13" lengthAdjust="spacing" textLength="24" x="1055.8558" y="263.0264">0..n</text></g><!--reverse link Place to Score--><g id="link_Place_Score"><path codeLine="83" d="M1004.94,225.608 C998.155,242.213 991.066,259.563 985.251,273.793 " fill="none" id="Place-backto-Score" style="stroke:#181818;stroke-width:1.0;"/><polygon fill="none" points="1010.04,213.118,1004.0681,217.1598,1005.5021,224.2269,1011.474,220.1851,1010.04,213.118" style="stroke:#181818;stroke-width:1.0;"/><text fill="#000000" font-family="sans-serif" font-size="13" lengthAdjust="spacing" textLength="24" x="961.3989" y="263.0264">0..n</text></g><!--link PlaceVisibility to Place--><g id="link_PlaceVisibility_Place"><path codeLine="84" d="M870.027,164.5 C881.656,164.5 893.284,164.5 904.912,164.5 " fill="none" id="PlaceVisibility-Place" style="stroke:#181818;stroke-width:1.0;"/><text fill="#000000" font-family="sans-serif" font-size="13" lengthAdjust="spacing" textLength="8" x="877.8591" y="161.1049">1</text><text fill="#000000" font-family="sans-serif" font-size="13" lengthAdjust="spacing" textLength="24" x="873.0155" y="161.1403">0..n</text></g><!--link Picture to User--><g id="link_Picture_User"><path codeLine="86" d="M802.269,338.307 C814.669,356.14 830.46,378.849 844.369,398.853 " fill="none" id="Picture-User" style="stroke:#181818;stroke-width:1.0;"/><text fill="#000000" font-family="sans-serif" font-size="13" lengthAdjust="spacing" textLength="24" x="780.2839" y="358.5672">0..n</text><text fill="#000000" font-family="sans-serif" font-size="13" lengthAdjust="spacing" textLength="8" x="831.1475" y="388.0413">1</text></g><!--link Comment to User--><g id="link_Comment_User"><path codeLine="87" d="M1051.51,338.133 C1020.82,357.244 981.063,382.004 947.299,403.031 " fill="none" id="Comment-User" style="stroke:#181818;stroke-width:1.0;"/><text fill="#000000" font-family="sans-serif" font-size="13" lengthAdjust="spacing" textLength="24" x="1019.862" y="358.2945">0..n</text><text fill="#000000" font-family="sans-serif" font-size="13" lengthAdjust="spacing" textLength="8" x="954.9095" y="394.7511">1</text></g><!--link Score to User--><g id="link_Score_User"><path codeLine="88" d="M951.18,338.307 C939.036,356.14 923.57,378.849 909.948,398.853 " fill="none" id="Score-User" style="stroke:#181818;stroke-width:1.0;"/><text fill="#000000" font-family="sans-serif" font-size="13" lengthAdjust="spacing" textLength="24" x="920.3077" y="358.5672">0..n</text><text fill="#000000" font-family="sans-serif" font-size="13" lengthAdjust="spacing" textLength="8" x="905.9485" y="388.0413">1</text></g><!--link User to User--><g id="link_User_User"><path codeLine="89" d="M947.336,432.947 C966.946,433.585 982,438.436 982,447.5 C982,456.564 966.946,461.415 947.336,462.053 " fill="none" id="User-User" style="stroke:#181818;stroke-width:1.0;"/><text fill="#000000" font-family="sans-serif" font-size="13" lengthAdjust="spacing" textLength="89" x="988" y="452.0669">is friends with</text><text fill="#000000" font-family="sans-serif" font-size="13" lengthAdjust="spacing" textLength="8" x="954.9503" y="427.7522">1</text><text fill="#000000" font-family="sans-serif" font-size="13" lengthAdjust="spacing" textLength="24" x="954.8803" y="459.7813">0..n</text></g><!--link Group to User--><g id="link_Group_User"><path codeLine="90" d="M520.22,205.164 C595.921,256.299 727.378,345.095 807.984,399.544 " fill="none" id="Group-User" style="stroke:#181818;stroke-width:1.0;"/><text fill="#000000" font-family="sans-serif" font-size="13" lengthAdjust="spacing" textLength="24" x="503.374" y="224.6473">0..n</text><text fill="#000000" font-family="sans-serif" font-size="13" lengthAdjust="spacing" textLength="24" x="775.9598" y="391.1639">1..n</text></g><!--link User to Role--><g id="link_User_Role"><path codeLine="91" d="M877.5,496.153 C877.5,515.417 877.5,537.608 877.5,556.8704 " fill="none" id="User-Role" style="stroke:#181818;stroke-width:1.0;"/><text fill="#000000" font-family="sans-serif" font-size="13" lengthAdjust="spacing" textLength="24" x="851.8875" y="515.7817">0..n</text><text fill="#000000" font-family="sans-serif" font-size="13" lengthAdjust="spacing" textLength="8" x="868.9375" y="546.0606">1</text></g><!--link Place to User--><g id="link_Place_User"><path codeLine="92" d="M964.803,213.171 C945.625,230.338 926.34,251.166 913.5,274 C891.832,312.532 883.155,362.525 879.707,398.764 " fill="none" id="Place-User" style="stroke:#181818;stroke-width:1.0;"/><text fill="#000000" font-family="sans-serif" font-size="13" lengthAdjust="spacing" textLength="24" x="930.4968" y="232.8021">0..n</text><text fill="#000000" font-family="sans-serif" font-size="13" lengthAdjust="spacing" textLength="8" x="871.4549" y="387.9397">1</text></g><!--link Route to Category--><g id="link_Route_Category"><path codeLine="94" d="M1243.5,196.807 C1243.5,219.781 1243.5,250.848 1243.5,273.798 " fill="none" id="Route-Category" style="stroke:#181818;stroke-width:1.0;"/><text fill="#000000" font-family="sans-serif" font-size="13" lengthAdjust="spacing" textLength="24" x="1217.025" y="217.0672">0..n</text><text fill="#000000" font-family="sans-serif" font-size="13" lengthAdjust="spacing" textLength="8" x="1234.7125" y="263.0324">1</text></g><!--link Place to Route--><g id="link_Place_Route"><path codeLine="95" d="M1154.05,164.5 C1165.7,164.5 1177.35,164.5 1188.99,164.5 " fill="none" id="Place-Route" style="stroke:#181818;stroke-width:1.0;"/><text fill="#000000" font-family="sans-serif" font-size="13" lengthAdjust="spacing" textLength="24" x="1157.0537" y="160.5772">0..n</text><text fill="#000000" font-family="sans-serif" font-size="13" lengthAdjust="spacing" textLength="24" x="1156.8841" y="177.471">0..n</text></g><!--link UserPlaceVisibility to PlaceVisibility--><g id="link_UserPlaceVisibility_PlaceVisibility"><path codeLine="97" d="M680.442,55.207 C690.327,71.661 703.955,94.345 716.184,114.703 " fill="none" id="UserPlaceVisibility-to-PlaceVisibility" style="stroke:#181818;stroke-width:1.0;"/><polygon fill="none" points="722.359,111.388,726.658,132.137,710.358,118.598,722.359,111.388" style="stroke:#181818;stroke-width:1.0;"/></g><!--link FriendsPlaceVisibility to PlaceVisibility--><g id="link_FriendsPlaceVisibility_PlaceVisibility"><path codeLine="98" d="M1010.22,55.056 C963.231,74.305 895.246,102.155 839.94,124.812 " fill="none" id="FriendsPlaceVisibility-to-PlaceVisibility" style="stroke:#181818;stroke-width:1.0;"/><polygon fill="none" points="842.501,131.327,821.34,132.431,837.194,118.372,842.501,131.327" style="stroke:#181818;stroke-width:1.0;"/></g><!--link GroupPlaceVisibility to PlaceVisibility--><g id="link_GroupPlaceVisibility_PlaceVisibility"><path codeLine="99" d="M511.294,55.056 C552.323,74.053 611.445,101.429 660.021,123.921 " fill="none" id="GroupPlaceVisibility-to-PlaceVisibility" style="stroke:#181818;stroke-width:1.0;"/><polygon fill="none" points="663.194,117.676,678.401,132.431,657.311,130.38,663.194,117.676" style="stroke:#181818;stroke-width:1.0;"/></g><!--link FullPlaceVisibility to PlaceVisibility--><g id="link_FullPlaceVisibility_PlaceVisibility"><path codeLine="100" d="M841.029,55.207 C825.998,72.246 805.074,95.965 786.64,116.863 " fill="none" id="FullPlaceVisibility-to-PlaceVisibility" style="stroke:#181818;stroke-width:1.0;"/><polygon fill="none" points="791.646,121.769,773.166,132.137,781.147,112.508,791.646,121.769" style="stroke:#181818;stroke-width:1.0;"/></g><!--link GroupPlaceVisibility to Group--><g id="link_GroupPlaceVisibility_Group"><path codeLine="102" d="M461.5,55.207 C461.5,74.156 461.5,101.367 461.5,123.772 " fill="none" id="GroupPlaceVisibility-Group" style="stroke:#181818;stroke-width:1.0;"/><text fill="#000000" font-family="sans-serif" font-size="13" lengthAdjust="spacing" textLength="24" x="434.575" y="75.0187">0..n</text><text fill="#000000" font-family="sans-serif" font-size="13" lengthAdjust="spacing" textLength="24" x="435.5125" y="112.8958">0..n</text></g><!--link PrivateGroup to GroupVisibility--><g id="link_PrivateGroup_GroupVisibility"><path codeLine="104" d="M89.3831,55.207 C103.1797,72.162 122.359,95.733 139.302,116.556 " fill="none" id="PrivateGroup-to-GroupVisibility" style="stroke:#181818;stroke-width:1.0;"/><polygon fill="none" points="144.787,112.206,151.98,132.137,133.928,121.042,144.787,112.206" style="stroke:#181818;stroke-width:1.0;"/></g><!--link PublicGroup to GroupVisibility--><g id="link_PublicGroup_GroupVisibility"><path codeLine="105" d="M219.5,55.207 C213.248,71.327 204.677,93.427 196.907,113.46 " fill="none" id="PublicGroup-to-GroupVisibility" style="stroke:#181818;stroke-width:1.0;"/><polygon fill="none" points="203.422,116.021,189.664,132.137,190.369,110.959,203.422,116.021" style="stroke:#181818;stroke-width:1.0;"/></g><!--link GroupVisibility to Group--><g id="link_GroupVisibility_Group"><path codeLine="106" d="M302.027,164.5 C313.656,164.5 325.284,164.5 336.912,164.5 " fill="none" id="GroupVisibility-Group" style="stroke:#181818;stroke-width:1.0;"/></g><!--SRC=[dLIxRi8m5Dtz5HPJEu3QjUhK2Aei517IeLj835p9iP4VfQZjlzUndGU9WqGp9CRdt7lkYmjC4R7BSe9NrBpVGS8MAAZpDyBc0MblA5bmSQSb4VW9f-PpRxvRpYd96Ff5AAUPb1OOU6dXXG322dc5yIguFbxpe2aDmj1aOLsqCFv76Yi1dvaYrXFkog_qba8UkAz2Sa8iAudncIW1R6zlSiv50Smub0Q8sb-t1nOPipqNvv1K6mpaIWiVZXOqG8buMHAc74MHBnNW93cldSZgQ2Yco2s-vbgHgu5KQVWep6bOcACXdKmrUhUyY8iBRuJfqiXHhnR5c_XZlhJdpLkwZfEDFR-aIRoS9qblciRQSbFXGtFf9y3Uuid3RCOcU5hm4vlYoUEawPKdy1foHD-aCEZR4mPjNtggbEoKK-t5Y52LaaMc-ZXG3uArUX1qwYtK0Ach84YyS_zoV09rg9aNOJe3MrAF-pHS2bMdEmeNHZOzXEpizSoQUb-28VD-8vz_R8g1xJL63M-oCNPeUaOz3pSSGi7nwwJVhIZgBq3lkBlKHZdjVXjGfWBs1-MJ-GC0]--></g></svg>