<?xml version="1.0" encoding="us-ascii" standalone="no"?><svg xmlns="http://www.w3.org/2000/svg" xmlns:xlink="http://www.w3.org/1999/xlink" contentStyleType="text/css" height="302px" preserveAspectRatio="none" style="width:530px;height:302px;background:#FFFFFF;" version="1.1" viewBox="0 0 530 302" width="530px" zoomAndPan="magnify"><defs/><g><!--cluster GitHubRepo--><g id="cluster_GitHubRepo"><path d="M6,86.8015 C6,76.8015 212,76.8015 212,76.8015 C212,76.8015 418,76.8015 418,86.8015 L418,183.8015 C418,193.8015 212,193.8015 212,193.8015 C212,193.8015 6,193.8015 6,183.8015 L6,86.8015 " fill="none" style="stroke:#181818;stroke-width:1.0;"/><path d="M6,86.8015 C6,96.8015 212,96.8015 212,96.8015 C212,96.8015 418,96.8015 418,86.8015 " fill="none" style="stroke:#181818;stroke-width:1.0;"/><text fill="#000000" font-family="sans-serif" font-size="14" font-weight="bold" lengthAdjust="spacing" textLength="124" x="150" y="113.9089">GitHub repository</text></g><!--cluster SOLID--><g id="cluster_SOLID"><rect fill="none" height="101" rx="2.5" ry="2.5" style="stroke:#181818;stroke-width:1.0;" width="82" x="442" y="92.3015"/><path d="M494,92.3015 L494,103.9226 L484,113.9226 L442,113.9226 " fill="none" style="stroke:#181818;stroke-width:1.0;"/><text fill="#000000" font-family="sans-serif" font-size="14" font-weight="bold" lengthAdjust="spacing" textLength="42" x="445" y="108.4089">SOLID</text></g><!--entity Frontend--><g id="elem_Frontend"><rect fill="#F1F1F1" height="48.6211" rx="2.5" ry="2.5" style="stroke:#181818;stroke-width:0.5;" width="98" x="173" y="128.8015"/><rect fill="#F1F1F1" height="10" style="stroke:#181818;stroke-width:0.5;" width="15" x="251" y="133.8015"/><rect fill="#F1F1F1" height="2" style="stroke:#181818;stroke-width:0.5;" width="4" x="249" y="135.8015"/><rect fill="#F1F1F1" height="2" style="stroke:#181818;stroke-width:0.5;" width="4" x="249" y="139.8015"/><text fill="#000000" font-family="sans-serif" font-size="14" lengthAdjust="spacing" textLength="58" x="188" y="163.9089">Frontend</text></g><!--entity Backend--><g id="elem_Backend"><rect fill="#F1F1F1" height="48.6211" rx="2.5" ry="2.5" style="stroke:#181818;stroke-width:0.5;" width="95" x="306.5" y="128.8015"/><rect fill="#F1F1F1" height="10" style="stroke:#181818;stroke-width:0.5;" width="15" x="381.5" y="133.8015"/><rect fill="#F1F1F1" height="2" style="stroke:#181818;stroke-width:0.5;" width="4" x="379.5" y="135.8015"/><rect fill="#F1F1F1" height="2" style="stroke:#181818;stroke-width:0.5;" width="4" x="379.5" y="139.8015"/><text fill="#000000" font-family="sans-serif" font-size="14" lengthAdjust="spacing" textLength="55" x="321.5" y="163.9089">Backend</text></g><!--entity Documentation--><g id="elem_Documentation"><path d="M22.5,136.3015 L22.5,169.9226 A2.5,2.5 0 0 0 25,172.4226 L135,172.4226 A2.5,2.5 0 0 0 137.5,169.9226 L137.5,143.8015 L127.5,133.8015 L25,133.8015 A2.5,2.5 0 0 0 22.5,136.3015 " fill="#F1F1F1" style="stroke:#181818;stroke-width:0.5;"/><path d="M127.5,133.8015 L127.5,141.3015 A2.5,2.5 0 0 0 130,143.8015 L137.5,143.8015 " fill="#F1F1F1" style="stroke:#181818;stroke-width:0.5;"/><text fill="#000000" font-family="sans-serif" font-size="14" lengthAdjust="spacing" textLength="95" x="32.5" y="158.9089">Documentation</text></g><!--entity POD--><g id="elem_POD"><path d="M458,139.3015 C458,129.3015 483,129.3015 483,129.3015 C483,129.3015 508,129.3015 508,139.3015 L508,166.9226 C508,176.9226 483,176.9226 483,176.9226 C483,176.9226 458,176.9226 458,166.9226 L458,139.3015 " fill="#F1F1F1" style="stroke:#181818;stroke-width:0.5;"/><path d="M458,139.3015 C458,149.3015 483,149.3015 483,149.3015 C483,149.3015 508,149.3015 508,139.3015 " fill="none" style="stroke:#181818;stroke-width:0.5;"/><text fill="#000000" font-family="sans-serif" font-size="14" lengthAdjust="spacing" textLength="30" x="468" y="168.4089">POD</text></g><!--entity MapService--><g id="elem_MapService"><path d="M307.1258,20.4823 C310.4126,14.6584 314.7409,14.5583 319.1764,19.1537 C322.084,13.0553 325.535,12.3418 330.2659,17.33 C333.5045,11.1921 337.449,9.1827 342.6931,15.2957 C345.5191,8.1826 350.104,6 356.0363,12.177 C360.5297,7.2302 363.9779,7.7312 366.5109,14.0067 C371.5792,8.3157 378.1082,8.834 380.3538,16.8562 C384.6926,12.1691 389.486,11.4307 392.523,18.2348 C397.5959,13.0425 402.4105,15.2246 404.6908,21.261 C412.3019,25.5409 414.5978,30.3718 407.831,37.442 C413.9644,43.8625 412.9802,50.4523 404.718,54.1984 C400.9175,59.9666 394.9735,60.5831 391.6999,53.6581 C389.0873,59.9443 382.9471,60.67 379.0292,55.0468 C375.7806,59.5578 371.238,60.3093 368.0275,55.004 C365.5744,61.1968 359.4581,62.5566 355.5665,56.463 C351.915,62.9038 346.6474,62.606 343.0674,56.3925 C338.8491,60.7478 333.5444,60.4564 331.4085,54.1213 C327.5873,61.1752 322.1927,61.6487 317.4094,55.1124 C313.2903,58.8343 308.294,58.8227 306.6547,52.4661 C297.6979,51.5269 293.1893,46.543 297.5626,37.5036 C291.1168,27.5113 295.2933,20.2052 307.1258,20.4823 " fill="#F1F1F1" style="stroke:#181818;stroke-width:0.5;"/><text fill="#000000" font-family="sans-serif" font-size="14" lengthAdjust="spacing" textLength="84" x="312" y="41.9089">Map Provider</text></g><!--entity Database--><g id="elem_Database"><path d="M313.5,247.8015 C313.5,237.8015 354,237.8015 354,237.8015 C354,237.8015 394.5,237.8015 394.5,247.8015 L394.5,275.4226 C394.5,285.4226 354,285.4226 354,285.4226 C354,285.4226 313.5,285.4226 313.5,275.4226 L313.5,247.8015 " fill="#F1F1F1" style="stroke:#181818;stroke-width:0.5;"/><path d="M313.5,247.8015 C313.5,257.8015 354,257.8015 354,257.8015 C354,257.8015 394.5,257.8015 394.5,247.8015 " fill="none" style="stroke:#181818;stroke-width:0.5;"/><text fill="#000000" font-family="sans-serif" font-size="14" lengthAdjust="spacing" textLength="61" x="323.5" y="276.9089">Database</text></g><!--link Backend to POD--><g id="link_Backend_POD"><path d="M401.62,170.4215 C418.76,172.9715 435.91,171.6315 453.05,166.4015 " fill="none" id="Backend-to-POD" style="stroke:#181818;stroke-width:1.0;"/><polygon fill="#181818" points="457.89,164.8215,448.0922,163.8197,453.1381,166.3769,450.5809,171.4228,457.89,164.8215" style="stroke:#181818;stroke-width:1.0;"/></g><!--reverse link MapService to Backend--><g id="link_MapService_Backend"><path d="M354,66.1415 C354,85.4915 354,110.6515 354,128.7815 " fill="none" id="MapService-backto-Backend" style="stroke:#181818;stroke-width:1.0;"/><polygon fill="#181818" points="354,60.8515,350,69.8515,354,65.8515,358,69.8515,354,60.8515" style="stroke:#181818;stroke-width:1.0;"/></g><!--link Backend to Database--><g id="link_Backend_Database"><path d="M354,177.9415 C354,194.0415 354,215.4515 354,232.4715 " fill="none" id="Backend-to-Database" style="stroke:#181818;stroke-width:1.0;"/><polygon fill="#181818" points="354,237.6015,358,228.6015,354,232.6015,350,228.6015,354,237.6015" style="stroke:#181818;stroke-width:1.0;"/></g><!--link Frontend to Backend--><g id="link_Frontend_Backend"><path d="M276.47,153.3015 C284.76,153.3015 293.04,153.3015 301.32,153.3015 " fill="none" id="Frontend-Backend" style="stroke:#181818;stroke-width:1.0;"/><polygon fill="#181818" points="271.24,153.3015,280.24,157.3015,276.24,153.3015,280.24,149.3015,271.24,153.3015" style="stroke:#181818;stroke-width:1.0;"/><polygon fill="#181818" points="306.48,153.3015,297.48,149.3015,301.48,153.3015,297.48,157.3015,306.48,153.3015" style="stroke:#181818;stroke-width:1.0;"/></g><!--SRC=[ZP3FJiCm3CRlUGghbvw6u8uuGCGV2RI9yW9UwZ9hRLmbQM52l3jkrxKI0eHF-RuuzYzV3Y_aTfuTrd0ZFj5x0ilu6h21_kBitCGz-nO7YIv9ADAX9i0tYjAGoLS_byajLUmviNYGwlWq_jvkIaounKXmn-c-spvJAu0HigE4e3gopZXay650oqdJYYUVu3OCsBxyPb-Zsv_SYfNPYkiQlS41odmQLqjNmXEs1OMU7OtxLC8cICybXMoXijF1L1e4GR5-VB0JoDopMLkT-kz80jKZoH-fJ5-0rTKuV9QT6WltufVgpwIdME1ItQdb2m00]--></g></svg>