<?xml version="1.0" encoding="us-ascii" standalone="no"?><svg xmlns="http://www.w3.org/2000/svg" xmlns:xlink="http://www.w3.org/1999/xlink" contentStyleType="text/css" height="416.7px" preserveAspectRatio="none" style="width:1316px;height:416px;background:#FFFFFF;" version="1.1" viewBox="0 0 1316 416" width="1316.7px" zoomAndPan="magnify"><defs/><g><!--cluster Frontend--><g id="cluster_Frontend"><rect fill="none" height="405" rx="2.25" ry="2.25" style="stroke:#181818;stroke-width:0.9;" width="1206.9" x="104.4" y="6.3"/><rect fill="none" height="9" style="stroke:#181818;stroke-width:0.9;" width="13.5" x="1293.3" y="10.8"/><rect fill="none" height="1.8" style="stroke:#181818;stroke-width:0.9;" width="3.6" x="1291.5" y="12.6"/><rect fill="none" height="1.8" style="stroke:#181818;stroke-width:0.9;" width="3.6" x="1291.5" y="16.2"/><text fill="#000000" font-family="sans-serif" font-size="12.6" font-weight="bold" lengthAdjust="spacing" textLength="51.3" x="682.2" y="31.5967">Webapp</text></g><!--cluster App--><g id="cluster_App"><rect fill="none" height="328.5" rx="2.25" ry="2.25" style="stroke:#181818;stroke-width:0.9;" width="1123.2" x="159.3" y="54"/><path d="M192.6,54 L192.6,64.459 L183.6,73.459 L159.3,73.459 " fill="none" style="stroke:#181818;stroke-width:0.9;"/><text fill="#000000" font-family="sans-serif" font-size="12.6" font-weight="bold" lengthAdjust="spacing" textLength="24.3" x="162" y="68.4967">App</text></g><!--cluster MapView--><g id="cluster_MapView"><rect fill="none" height="252" rx="2.25" ry="2.25" style="stroke:#181818;stroke-width:0.9;" width="455.4" x="798.3" y="101.7"/><path d="M886.5,101.7 L886.5,112.159 L877.5,121.159 L798.3,121.159 " fill="none" style="stroke:#181818;stroke-width:0.9;"/><text fill="#000000" font-family="sans-serif" font-size="12.6" font-weight="bold" lengthAdjust="spacing" textLength="79.2" x="801" y="116.1967">MapView.tsx</text></g><!--cluster SlidingPanel--><g id="cluster_SlidingPanel"><rect fill="none" height="189.9" rx="2.25" ry="2.25" style="stroke:#181818;stroke-width:0.9;" width="323.1" x="909" y="142.2"/><path d="M996.3,142.2 L996.3,152.659 L987.3,161.659 L909,161.659 " fill="none" style="stroke:#181818;stroke-width:0.9;"/><text fill="#000000" font-family="sans-serif" font-size="12.6" font-weight="bold" lengthAdjust="spacing" textLength="78.3" x="911.7" y="156.6967">SlidingPanel</text></g><!--cluster NavBar--><g id="cluster_NavBar"><rect fill="none" height="168.3" rx="2.25" ry="2.25" style="stroke:#181818;stroke-width:0.9;" width="90" x="686.7" y="153"/><path d="M764.1,153 L764.1,163.459 L755.1,172.459 L686.7,172.459 " fill="none" style="stroke:#181818;stroke-width:0.9;"/><text fill="#000000" font-family="sans-serif" font-size="12.6" font-weight="bold" lengthAdjust="spacing" textLength="68.4" x="689.4" y="167.4967">NavBar.tsx</text></g><!--cluster LoginForm--><g id="cluster_LoginForm"><rect fill="none" height="70.2" rx="2.25" ry="2.25" style="stroke:#181818;stroke-width:0.9;" width="104.4" x="560.7" y="153"/><path d="M659.7,153 L659.7,163.459 L650.7,172.459 L560.7,172.459 " fill="none" style="stroke:#181818;stroke-width:0.9;"/><text fill="#000000" font-family="sans-serif" font-size="12.6" font-weight="bold" lengthAdjust="spacing" textLength="90" x="563.4" y="167.4967">LoginForm.tsx</text></g><!--cluster UserProfile--><g id="cluster_UserProfile"><rect fill="none" height="168.3" rx="2.25" ry="2.25" style="stroke:#181818;stroke-width:0.9;" width="108" x="431.1" y="153"/><path d="M533.7,153 L533.7,163.459 L524.7,172.459 L431.1,172.459 " fill="none" style="stroke:#181818;stroke-width:0.9;"/><text fill="#000000" font-family="sans-serif" font-size="12.6" font-weight="bold" lengthAdjust="spacing" textLength="93.6" x="433.8" y="167.4967">UserProfile.tsx</text></g><!--entity Api--><g id="elem_Api"><ellipse cx="126.9" cy="197.55" fill="#F1F1F1" rx="7.2" ry="7.2" style="stroke:#181818;stroke-width:0.45;"/><text fill="#000000" font-family="sans-serif" font-size="12.6" lengthAdjust="spacing" textLength="18" x="117.9" y="226.4467">Api</text></g><!--entity About--><g id="elem_About"><rect fill="#F1F1F1" height="43.759" rx="2.25" ry="2.25" style="stroke:#181818;stroke-width:0.45;" width="88.2" x="328.5" y="175.5"/><path d="M357.9,175.5 L357.9,180 L351.6,186.3 L328.5,186.3 " fill="none" style="stroke:#181818;stroke-width:0.45;"/><text fill="#000000" font-family="sans-serif" font-size="12.6" lengthAdjust="spacing" textLength="52.2" x="342" y="207.0967">About.tsx</text></g><!--entity Contact--><g id="elem_Contact"><rect fill="#F1F1F1" height="43.759" rx="2.25" ry="2.25" style="stroke:#181818;stroke-width:0.45;" width="99" x="198" y="175.5"/><path d="M231,175.5 L231,180 L224.7,186.3 L198,186.3 " fill="none" style="stroke:#181818;stroke-width:0.45;"/><text fill="#000000" font-family="sans-serif" font-size="12.6" lengthAdjust="spacing" textLength="63" x="211.5" y="207.0967">Contact.tsx</text></g><!--entity Mav--><g id="elem_Mav"><rect fill="#F1F1F1" height="43.759" rx="2.25" ry="2.25" style="stroke:#181818;stroke-width:0.45;" width="79.2" x="812.7" y="175.5"/><path d="M839.1,175.5 L839.1,180 L832.8,186.3 L812.7,186.3 " fill="none" style="stroke:#181818;stroke-width:0.45;"/><text fill="#000000" font-family="sans-serif" font-size="12.6" lengthAdjust="spacing" textLength="43.2" x="826.2" y="207.0967">map.tsx</text></g><!--entity FriendP--><g id="elem_FriendP"><rect fill="#F1F1F1" height="43.759" rx="2.25" ry="2.25" style="stroke:#181818;stroke-width:0.45;" width="124.2" x="923.4" y="175.5"/><path d="M964.8,175.5 L964.8,180 L958.5,186.3 L923.4,186.3 " fill="none" style="stroke:#181818;stroke-width:0.45;"/><text fill="#000000" font-family="sans-serif" font-size="12.6" lengthAdjust="spacing" textLength="88.2" x="936.9" y="207.0967">FriendPanel.tsx</text></g><!--entity CommentForm--><g id="elem_CommentForm"><rect fill="#F1F1F1" height="43.759" rx="2.25" ry="2.25" style="stroke:#181818;stroke-width:0.45;" width="138.6" x="1079.1" y="175.5"/><path d="M1125.3,175.5 L1125.3,180 L1119,186.3 L1079.1,186.3 " fill="none" style="stroke:#181818;stroke-width:0.45;"/><text fill="#000000" font-family="sans-serif" font-size="12.6" lengthAdjust="spacing" textLength="102.6" x="1092.6" y="207.0967">CommentForm.tsx</text></g><!--entity CommentList--><g id="elem_CommentList"><rect fill="#F1F1F1" height="43.759" rx="2.25" ry="2.25" style="stroke:#181818;stroke-width:0.45;" width="128.7" x="923.85" y="273.6"/><path d="M966.75,273.6 L966.75,278.1 L960.45,284.4 L923.85,284.4 " fill="none" style="stroke:#181818;stroke-width:0.45;"/><text fill="#000000" font-family="sans-serif" font-size="12.6" lengthAdjust="spacing" textLength="92.7" x="937.35" y="305.1967">CommentList.tsx</text></g><!--entity InfoWindow--><g id="elem_InfoWindow"><rect fill="#F1F1F1" height="43.759" rx="2.25" ry="2.25" style="stroke:#181818;stroke-width:0.45;" width="119.7" x="1084.05" y="273.6"/><path d="M1123.95,273.6 L1123.95,278.1 L1117.65,284.4 L1084.05,284.4 " fill="none" style="stroke:#181818;stroke-width:0.45;"/><text fill="#000000" font-family="sans-serif" font-size="12.6" lengthAdjust="spacing" textLength="83.7" x="1097.55" y="305.1967">InfoWindow.tsx</text></g><!--entity Login--><g id="elem_Login"><rect fill="#F1F1F1" height="22.159" rx="2.25" ry="2.25" style="stroke:#181818;stroke-width:0.45;" width="53.1" x="705.15" y="284.4"/><text fill="#000000" font-family="sans-serif" font-size="12.6" lengthAdjust="spacing" textLength="35.1" x="714.15" y="300.6967">Log in</text></g><!--entity Signup--><g id="elem_Signup"><rect fill="#F1F1F1" height="22.159" rx="2.25" ry="2.25" style="stroke:#181818;stroke-width:0.45;" width="61.2" x="701.1" y="186.3"/><text fill="#000000" font-family="sans-serif" font-size="12.6" lengthAdjust="spacing" textLength="43.2" x="710.1" y="202.5967">Sign up</text></g><!--entity Provider--><g id="elem_Provider"><rect fill="#F1F1F1" height="22.159" rx="2.25" ry="2.25" style="stroke:#181818;stroke-width:0.45;" width="65.7" x="580.05" y="186.3"/><text fill="#000000" font-family="sans-serif" font-size="12.6" lengthAdjust="spacing" textLength="47.7" x="589.05" y="202.5967">Provider</text></g><!--entity username--><g id="elem_username"><rect fill="#F1F1F1" height="22.159" rx="2.25" ry="2.25" style="stroke:#181818;stroke-width:0.45;" width="74.7" x="447.75" y="284.4"/><text fill="#000000" font-family="sans-serif" font-size="12.6" lengthAdjust="spacing" textLength="56.7" x="456.75" y="300.6967">username</text></g><!--entity webid--><g id="elem_webid"><rect fill="#F1F1F1" height="22.159" rx="2.25" ry="2.25" style="stroke:#181818;stroke-width:0.45;" width="50.4" x="459.9" y="186.3"/><text fill="#000000" font-family="sans-serif" font-size="12.6" lengthAdjust="spacing" textLength="32.4" x="468.9" y="202.5967">webid</text></g><!--entity RestAPI--><g id="elem_RestAPI"><rect fill="#F1F1F1" height="43.759" rx="2.25" ry="2.25" style="stroke:#181818;stroke-width:0.45;" width="81" x="6.3" y="175.5"/><rect fill="#F1F1F1" height="9" style="stroke:#181818;stroke-width:0.45;" width="13.5" x="69.3" y="180"/><rect fill="#F1F1F1" height="1.8" style="stroke:#181818;stroke-width:0.45;" width="3.6" x="67.5" y="181.8"/><rect fill="#F1F1F1" height="1.8" style="stroke:#181818;stroke-width:0.45;" width="3.6" x="67.5" y="185.4"/><text fill="#000000" font-family="sans-serif" font-size="12.6" lengthAdjust="spacing" textLength="45" x="19.8" y="207.0967">RestAPI</text></g><!--link App to Api--><g id="link_App_Api"><path d="M159.2617,197.55 C159.1935,197.55 159.1253,197.55 159.0571,197.55 C158.9207,197.55 158.7843,197.55 158.6479,197.55 C158.375,197.55 158.1022,197.55 157.8294,197.55 C157.2837,197.55 156.738,197.55 156.1923,197.55 C155.1009,197.55 154.0094,197.55 152.9179,197.55 C148.5518,197.55 144.1845,197.55 139.815,197.55 " fill="none" id="App-Api" style="stroke:#181818;stroke-width:0.9;"/><polygon fill="#181818" points="159.2617,197.55,151.1617,193.95,154.7617,197.55,151.1617,201.15,159.2617,197.55" style="stroke:#181818;stroke-width:0.9;"/><polygon fill="#181818" points="135.252,197.55,143.352,201.15,139.752,197.55,143.352,193.95,135.252,197.55" style="stroke:#181818;stroke-width:0.9;"/></g><!--link RestAPI to Api--><g id="link_RestAPI_Api"><path d="M92.097,197.55 C99.405,197.55 106.722,197.55 114.03,197.55 " fill="none" id="RestAPI-Api" style="stroke:#181818;stroke-width:0.9;"/><polygon fill="#181818" points="87.48,197.55,95.58,201.15,91.98,197.55,95.58,193.95,87.48,197.55" style="stroke:#181818;stroke-width:0.9;"/><polygon fill="#181818" points="118.584,197.55,110.484,193.95,114.084,197.55,110.484,201.15,118.584,197.55" style="stroke:#181818;stroke-width:0.9;"/></g><!--link webid to username--><!--link Signup to Login--><!--SRC=[ZLF1QkCm4BthAmPVSahPzbZAGh8bK4XBQDZsiEn1iSVfK5iIiknqMVBl7OtTsi5ngS3mHdhlZJJZcS6ofY8ZiuTbOTDNU28ym2tflTSbD9SNFzGCrjXW0LVNy8mxxPogNiau7Gaw3TPlmxy2GH-miYMgsVpyKhDRpCbG86l0vgsqcgQdjdJMe0bTLj0LhBmr0KtsNm4lOknpdI8i7CbEpdUAaOEMqU_TQoSlOvEamnUXUai6n26v4MAfdP3EKBO5nQ9jjE7Ad7hqf9Kdlkn6l3eS-MFFNlBBbYM_UMLzAR91_0tPcgembCNuAzcToUqpcSosXUd3iUYengWrUT3DKdinQA68JskIQf_1skx928yHToyPKxQqDxMqEeaGQfTCvXMxpq9zHkVQAjuRRnlAq4yQ_gxGCocd-3UpvI2UDAsPOrWyFZdWZhB9N8kThTjM2JgjzqTFJU0XwVefkASTrL4DHkGHgx3OtAblJv_7GaVynG36CRgP_vJXueznmT579daUpF-yK9QX-JllAz7rS70alL7g7G00]--></g></svg>