<?xml version="1.0" encoding="us-ascii" standalone="no"?><svg xmlns="http://www.w3.org/2000/svg" xmlns:xlink="http://www.w3.org/1999/xlink" contentStyleType="text/css" height="730px" preserveAspectRatio="none" style="width:1770px;height:730px;background:#FFFFFF;" version="1.1" viewBox="0 0 1770 730" width="1770px" zoomAndPan="magnify"><defs/><g><!--cluster Backend--><g id="cluster_Backend"><rect fill="none" height="647.5" rx="2.5" ry="2.5" style="stroke:#181818;stroke-width:1.0;" width="1477" x="117" y="76.76"/><rect fill="none" height="10" style="stroke:#181818;stroke-width:1.0;" width="15" x="1574" y="81.76"/><rect fill="none" height="2" style="stroke:#181818;stroke-width:1.0;" width="4" x="1572" y="83.76"/><rect fill="none" height="2" style="stroke:#181818;stroke-width:1.0;" width="4" x="1572" y="87.76"/><text fill="#000000" font-family="sans-serif" font-size="14" font-weight="bold" lengthAdjust="spacing" textLength="54" x="828.5" y="104.8674">RestAPI</text></g><!--cluster Repositories--><g id="cluster_Repositories"><rect fill="none" height="562.5" rx="2.5" ry="2.5" style="stroke:#181818;stroke-width:1.0;" width="793" x="769" y="129.76"/><rect fill="none" height="10" style="stroke:#181818;stroke-width:1.0;" width="15" x="1542" y="134.76"/><rect fill="none" height="2" style="stroke:#181818;stroke-width:1.0;" width="4" x="1540" y="136.76"/><rect fill="none" height="2" style="stroke:#181818;stroke-width:1.0;" width="4" x="1540" y="140.76"/><text fill="#000000" font-family="sans-serif" font-size="14" font-weight="bold" lengthAdjust="spacing" textLength="90" x="1120.5" y="157.8674">Repositories</text></g><!--cluster PodAccess--><g id="cluster_PodAccess"><rect fill="none" height="216" rx="2.5" ry="2.5" style="stroke:#181818;stroke-width:1.0;" width="541" x="973" y="263.26"/><rect fill="none" height="10" style="stroke:#181818;stroke-width:1.0;" width="15" x="1494" y="268.26"/><rect fill="none" height="2" style="stroke:#181818;stroke-width:1.0;" width="4" x="1492" y="270.26"/><rect fill="none" height="2" style="stroke:#181818;stroke-width:1.0;" width="4" x="1492" y="274.26"/><text fill="#000000" font-family="sans-serif" font-size="14" font-weight="bold" lengthAdjust="spacing" textLength="77" x="1205" y="291.3674">PodAccess</text></g><!--cluster Services--><g id="cluster_Services"><rect fill="none" height="546.5" rx="2.5" ry="2.5" style="stroke:#181818;stroke-width:1.0;" width="182" x="555" y="137.76"/><rect fill="none" height="10" style="stroke:#181818;stroke-width:1.0;" width="15" x="717" y="142.76"/><rect fill="none" height="2" style="stroke:#181818;stroke-width:1.0;" width="4" x="715" y="144.76"/><rect fill="none" height="2" style="stroke:#181818;stroke-width:1.0;" width="4" x="715" y="148.76"/><text fill="#000000" font-family="sans-serif" font-size="14" font-weight="bold" lengthAdjust="spacing" textLength="62" x="615" y="165.8674">Services</text></g><!--cluster Controllers--><g id="cluster_Controllers"><rect fill="none" height="559.5" rx="2.5" ry="2.5" style="stroke:#181818;stroke-width:1.0;" width="167" x="356" y="131.26"/><rect fill="none" height="10" style="stroke:#181818;stroke-width:1.0;" width="15" x="503" y="136.26"/><rect fill="none" height="2" style="stroke:#181818;stroke-width:1.0;" width="4" x="501" y="138.26"/><rect fill="none" height="2" style="stroke:#181818;stroke-width:1.0;" width="4" x="501" y="142.26"/><text fill="#000000" font-family="sans-serif" font-size="14" font-weight="bold" lengthAdjust="spacing" textLength="79" x="400" y="159.3674">Controllers</text></g><!--cluster Domain--><g id="cluster_Domain"><rect fill="none" height="92" rx="2.5" ry="2.5" style="stroke:#181818;stroke-width:1.0;" width="183" x="141" y="139.26"/><rect fill="none" height="10" style="stroke:#181818;stroke-width:1.0;" width="15" x="304" y="144.26"/><rect fill="none" height="2" style="stroke:#181818;stroke-width:1.0;" width="4" x="302" y="146.26"/><rect fill="none" height="2" style="stroke:#181818;stroke-width:1.0;" width="4" x="302" y="150.26"/><text fill="#000000" font-family="sans-serif" font-size="14" font-weight="bold" lengthAdjust="spacing" textLength="52" x="206.5" y="167.3674">Domain</text></g><!--entity CommentRepo--><g id="elem_CommentRepo"><rect fill="#F1F1F1" height="41.6211" rx="2.5" ry="2.5" style="stroke:#181818;stroke-width:0.5;" width="170" x="793" y="174.76"/><polygon fill="#F1F1F1" points="946,179.76,946,193.76,958,193.76,958,185.76,952,179.76,946,179.76" style="stroke:#181818;stroke-width:0.5;"/><line style="stroke:#181818;stroke-width:0.5;" x1="952" x2="952" y1="179.76" y2="185.76"/><line style="stroke:#181818;stroke-width:0.5;" x1="958" x2="952" y1="185.76" y2="185.76"/><text fill="#000000" font-family="sans-serif" font-size="14" lengthAdjust="spacing" textLength="140" x="803" y="202.8674">commentRepository.ts</text></g><!--entity PictureRepo--><g id="elem_PictureRepo"><rect fill="#F1F1F1" height="41.6211" rx="2.5" ry="2.5" style="stroke:#181818;stroke-width:0.5;" width="156" x="793" y="308.26"/><polygon fill="#F1F1F1" points="932,313.26,932,327.26,944,327.26,944,319.26,938,313.26,932,313.26" style="stroke:#181818;stroke-width:0.5;"/><line style="stroke:#181818;stroke-width:0.5;" x1="938" x2="938" y1="313.26" y2="319.26"/><line style="stroke:#181818;stroke-width:0.5;" x1="944" x2="938" y1="319.26" y2="319.26"/><text fill="#000000" font-family="sans-serif" font-size="14" lengthAdjust="spacing" textLength="126" x="803" y="336.3674">pictureRepository.ts</text></g><!--entity PlaceRepo--><g id="elem_PlaceRepo"><rect fill="#F1F1F1" height="41.6211" rx="2.5" ry="2.5" style="stroke:#181818;stroke-width:0.5;" width="147" x="793.5" y="413.26"/><polygon fill="#F1F1F1" points="923.5,418.26,923.5,432.26,935.5,432.26,935.5,424.26,929.5,418.26,923.5,418.26" style="stroke:#181818;stroke-width:0.5;"/><line style="stroke:#181818;stroke-width:0.5;" x1="929.5" x2="929.5" y1="418.26" y2="424.26"/><line style="stroke:#181818;stroke-width:0.5;" x1="935.5" x2="929.5" y1="424.26" y2="424.26"/><text fill="#000000" font-family="sans-serif" font-size="14" lengthAdjust="spacing" textLength="117" x="803.5" y="441.3674">placeRepository.ts</text></g><!--entity ScoreRepo--><g id="elem_ScoreRepo"><rect fill="#F1F1F1" height="41.6211" rx="2.5" ry="2.5" style="stroke:#181818;stroke-width:0.5;" width="148" x="793" y="521.26"/><polygon fill="#F1F1F1" points="924,526.26,924,540.26,936,540.26,936,532.26,930,526.26,924,526.26" style="stroke:#181818;stroke-width:0.5;"/><line style="stroke:#181818;stroke-width:0.5;" x1="930" x2="930" y1="526.26" y2="532.26"/><line style="stroke:#181818;stroke-width:0.5;" x1="936" x2="930" y1="532.26" y2="532.26"/><text fill="#000000" font-family="sans-serif" font-size="14" lengthAdjust="spacing" textLength="118" x="803" y="549.3674">scoreRepository.ts</text></g><!--entity UserRepo--><g id="elem_UserRepo"><rect fill="#F1F1F1" height="41.6211" rx="2.5" ry="2.5" style="stroke:#181818;stroke-width:0.5;" width="141" x="794.5" y="626.26"/><polygon fill="#F1F1F1" points="918.5,631.26,918.5,645.26,930.5,645.26,930.5,637.26,924.5,631.26,918.5,631.26" style="stroke:#181818;stroke-width:0.5;"/><line style="stroke:#181818;stroke-width:0.5;" x1="924.5" x2="924.5" y1="631.26" y2="637.26"/><line style="stroke:#181818;stroke-width:0.5;" x1="930.5" x2="924.5" y1="637.26" y2="637.26"/><text fill="#000000" font-family="sans-serif" font-size="14" lengthAdjust="spacing" textLength="111" x="804.5" y="654.3674">userRepository.ts</text></g><!--entity EntityParser--><g id="elem_EntityParser"><rect fill="#F1F1F1" height="41.6211" rx="2.5" ry="2.5" style="stroke:#181818;stroke-width:0.5;" width="122" x="997" y="308.26"/><polygon fill="#F1F1F1" points="1102,313.26,1102,327.26,1114,327.26,1114,319.26,1108,313.26,1102,313.26" style="stroke:#181818;stroke-width:0.5;"/><line style="stroke:#181818;stroke-width:0.5;" x1="1108" x2="1108" y1="313.26" y2="319.26"/><line style="stroke:#181818;stroke-width:0.5;" x1="1114" x2="1108" y1="319.26" y2="319.26"/><text fill="#000000" font-family="sans-serif" font-size="14" lengthAdjust="spacing" textLength="92" x="1007" y="336.3674">EntityParser.ts</text></g><!--entity PodDataManager--><g id="elem_PodDataManager"><rect fill="#F1F1F1" height="41.6211" rx="2.5" ry="2.5" style="stroke:#181818;stroke-width:0.5;" width="156" x="1154" y="308.26"/><polygon fill="#F1F1F1" points="1293,313.26,1293,327.26,1305,327.26,1305,319.26,1299,313.26,1293,313.26" style="stroke:#181818;stroke-width:0.5;"/><line style="stroke:#181818;stroke-width:0.5;" x1="1299" x2="1299" y1="313.26" y2="319.26"/><line style="stroke:#181818;stroke-width:0.5;" x1="1305" x2="1299" y1="319.26" y2="319.26"/><text fill="#000000" font-family="sans-serif" font-size="14" lengthAdjust="spacing" textLength="126" x="1164" y="336.3674">PodDataManager.ts</text></g><!--entity PodManager--><g id="elem_PodManager"><rect fill="#F1F1F1" height="41.6211" rx="2.5" ry="2.5" style="stroke:#181818;stroke-width:0.5;" width="126" x="1345" y="308.26"/><polygon fill="#F1F1F1" points="1454,313.26,1454,327.26,1466,327.26,1466,319.26,1460,313.26,1454,313.26" style="stroke:#181818;stroke-width:0.5;"/><line style="stroke:#181818;stroke-width:0.5;" x1="1460" x2="1460" y1="313.26" y2="319.26"/><line style="stroke:#181818;stroke-width:0.5;" x1="1466" x2="1460" y1="319.26" y2="319.26"/><text fill="#000000" font-family="sans-serif" font-size="14" lengthAdjust="spacing" textLength="96" x="1355" y="336.3674">PodManager.ts</text></g><!--entity PodSessionManager--><g id="elem_PodSessionManager"><rect fill="#F1F1F1" height="41.6211" rx="2.5" ry="2.5" style="stroke:#181818;stroke-width:0.5;" width="176" x="997" y="413.26"/><polygon fill="#F1F1F1" points="1156,418.26,1156,432.26,1168,432.26,1168,424.26,1162,418.26,1156,418.26" style="stroke:#181818;stroke-width:0.5;"/><line style="stroke:#181818;stroke-width:0.5;" x1="1162" x2="1162" y1="418.26" y2="424.26"/><line style="stroke:#181818;stroke-width:0.5;" x1="1168" x2="1162" y1="424.26" y2="424.26"/><text fill="#000000" font-family="sans-serif" font-size="14" lengthAdjust="spacing" textLength="146" x="1007" y="441.3674">PodSessionManager.ts</text></g><!--entity RDFCreator--><g id="elem_RDFCreator"><rect fill="#F1F1F1" height="41.6211" rx="2.5" ry="2.5" style="stroke:#181818;stroke-width:0.5;" width="122" x="1208" y="413.26"/><polygon fill="#F1F1F1" points="1313,418.26,1313,432.26,1325,432.26,1325,424.26,1319,418.26,1313,418.26" style="stroke:#181818;stroke-width:0.5;"/><line style="stroke:#181818;stroke-width:0.5;" x1="1319" x2="1319" y1="418.26" y2="424.26"/><line style="stroke:#181818;stroke-width:0.5;" x1="1325" x2="1319" y1="424.26" y2="424.26"/><text fill="#000000" font-family="sans-serif" font-size="14" lengthAdjust="spacing" textLength="92" x="1218" y="441.3674">RDFCreator.ts</text></g><!--entity CommentService--><g id="elem_CommentService"><rect fill="#F1F1F1" height="41.6211" rx="2.5" ry="2.5" style="stroke:#181818;stroke-width:0.5;" width="149" x="571.5" y="174.76"/><polygon fill="#F1F1F1" points="703.5,179.76,703.5,193.76,715.5,193.76,715.5,185.76,709.5,179.76,703.5,179.76" style="stroke:#181818;stroke-width:0.5;"/><line style="stroke:#181818;stroke-width:0.5;" x1="709.5" x2="709.5" y1="179.76" y2="185.76"/><line style="stroke:#181818;stroke-width:0.5;" x1="715.5" x2="709.5" y1="185.76" y2="185.76"/><text fill="#000000" font-family="sans-serif" font-size="14" lengthAdjust="spacing" textLength="119" x="581.5" y="202.8674">commentService.ts</text></g><!--entity PictureService--><g id="elem_PictureService"><rect fill="#F1F1F1" height="41.6211" rx="2.5" ry="2.5" style="stroke:#181818;stroke-width:0.5;" width="135" x="578.5" y="308.26"/><polygon fill="#F1F1F1" points="696.5,313.26,696.5,327.26,708.5,327.26,708.5,319.26,702.5,313.26,696.5,313.26" style="stroke:#181818;stroke-width:0.5;"/><line style="stroke:#181818;stroke-width:0.5;" x1="702.5" x2="702.5" y1="313.26" y2="319.26"/><line style="stroke:#181818;stroke-width:0.5;" x1="708.5" x2="702.5" y1="319.26" y2="319.26"/><text fill="#000000" font-family="sans-serif" font-size="14" lengthAdjust="spacing" textLength="105" x="588.5" y="336.3674">pictureService.ts</text></g><!--entity PlaceService--><g id="elem_PlaceService"><rect fill="#F1F1F1" height="41.6211" rx="2.5" ry="2.5" style="stroke:#181818;stroke-width:0.5;" width="126" x="583" y="413.26"/><polygon fill="#F1F1F1" points="692,418.26,692,432.26,704,432.26,704,424.26,698,418.26,692,418.26" style="stroke:#181818;stroke-width:0.5;"/><line style="stroke:#181818;stroke-width:0.5;" x1="698" x2="698" y1="418.26" y2="424.26"/><line style="stroke:#181818;stroke-width:0.5;" x1="704" x2="698" y1="424.26" y2="424.26"/><text fill="#000000" font-family="sans-serif" font-size="14" lengthAdjust="spacing" textLength="96" x="593" y="441.3674">placeService.ts</text></g><!--entity ScoreService--><g id="elem_ScoreService"><rect fill="#F1F1F1" height="41.6211" rx="2.5" ry="2.5" style="stroke:#181818;stroke-width:0.5;" width="127" x="582.5" y="521.26"/><polygon fill="#F1F1F1" points="692.5,526.26,692.5,540.26,704.5,540.26,704.5,532.26,698.5,526.26,692.5,526.26" style="stroke:#181818;stroke-width:0.5;"/><line style="stroke:#181818;stroke-width:0.5;" x1="698.5" x2="698.5" y1="526.26" y2="532.26"/><line style="stroke:#181818;stroke-width:0.5;" x1="704.5" x2="698.5" y1="532.26" y2="532.26"/><text fill="#000000" font-family="sans-serif" font-size="14" lengthAdjust="spacing" textLength="97" x="592.5" y="549.3674">scoreService.ts</text></g><!--entity UserService--><g id="elem_UserService"><rect fill="#F1F1F1" height="41.6211" rx="2.5" ry="2.5" style="stroke:#181818;stroke-width:0.5;" width="120" x="586" y="626.26"/><polygon fill="#F1F1F1" points="689,631.26,689,645.26,701,645.26,701,637.26,695,631.26,689,631.26" style="stroke:#181818;stroke-width:0.5;"/><line style="stroke:#181818;stroke-width:0.5;" x1="695" x2="695" y1="631.26" y2="637.26"/><line style="stroke:#181818;stroke-width:0.5;" x1="701" x2="695" y1="637.26" y2="637.26"/><text fill="#000000" font-family="sans-serif" font-size="14" lengthAdjust="spacing" textLength="90" x="596" y="654.3674">userService.ts</text></g><!--entity CommentController--><g id="elem_CommentController"><rect fill="#F1F1F1" height="34.6211" rx="2.5" ry="2.5" style="stroke:#181818;stroke-width:0.5;" width="95" x="403.5" y="180.26"/><rect fill="#F1F1F1" height="34.6211" rx="2.5" ry="2.5" style="stroke:#181818;stroke-width:0.5;" width="95" x="399.5" y="176.26"/><text fill="#000000" font-family="sans-serif" font-size="14" lengthAdjust="spacing" textLength="79" x="407.5" y="199.3674">comments.ts</text></g><!--entity PictureController--><g id="elem_PictureController"><rect fill="#F1F1F1" height="34.6211" rx="2.5" ry="2.5" style="stroke:#181818;stroke-width:0.5;" width="81" x="417.5" y="313.76"/><rect fill="#F1F1F1" height="34.6211" rx="2.5" ry="2.5" style="stroke:#181818;stroke-width:0.5;" width="81" x="413.5" y="309.76"/><text fill="#000000" font-family="sans-serif" font-size="14" lengthAdjust="spacing" textLength="65" x="421.5" y="332.8674">pictures.ts</text></g><!--entity PlaceController--><g id="elem_PlaceController"><rect fill="#F1F1F1" height="34.6211" rx="2.5" ry="2.5" style="stroke:#181818;stroke-width:0.5;" width="72" x="426" y="418.76"/><rect fill="#F1F1F1" height="34.6211" rx="2.5" ry="2.5" style="stroke:#181818;stroke-width:0.5;" width="72" x="422" y="414.76"/><text fill="#000000" font-family="sans-serif" font-size="14" lengthAdjust="spacing" textLength="56" x="430" y="437.8674">places.ts</text></g><!--entity ScoreController--><g id="elem_ScoreController"><rect fill="#F1F1F1" height="34.6211" rx="2.5" ry="2.5" style="stroke:#181818;stroke-width:0.5;" width="73" x="425.5" y="526.76"/><rect fill="#F1F1F1" height="34.6211" rx="2.5" ry="2.5" style="stroke:#181818;stroke-width:0.5;" width="73" x="421.5" y="522.76"/><text fill="#000000" font-family="sans-serif" font-size="14" lengthAdjust="spacing" textLength="57" x="429.5" y="545.8674">scores.ts</text></g><!--entity UserController--><g id="elem_UserController"><rect fill="#F1F1F1" height="34.6211" rx="2.5" ry="2.5" style="stroke:#181818;stroke-width:0.5;" width="66" x="431" y="631.76"/><rect fill="#F1F1F1" height="34.6211" rx="2.5" ry="2.5" style="stroke:#181818;stroke-width:0.5;" width="66" x="427" y="627.76"/><text fill="#000000" font-family="sans-serif" font-size="14" lengthAdjust="spacing" textLength="50" x="435" y="650.8674">users.ts</text></g><!--entity Entities--><g id="elem_Entities"><path d="M242,178.76 L242,212.3811 A2.5,2.5 0 0 0 244.5,214.8811 L305.5,214.8811 A2.5,2.5 0 0 0 308,212.3811 L308,186.26 L298,176.26 L244.5,176.26 A2.5,2.5 0 0 0 242,178.76 " fill="#F1F1F1" style="stroke:#181818;stroke-width:0.5;"/><path d="M298,176.26 L298,183.76 A2.5,2.5 0 0 0 300.5,186.26 L308,186.26 " fill="#F1F1F1" style="stroke:#181818;stroke-width:0.5;"/><text fill="#000000" font-family="sans-serif" font-size="14" lengthAdjust="spacing" textLength="46" x="252" y="201.3674">Entities</text></g><!--entity Dtos--><g id="elem_Dtos"><path d="M157.5,178.76 L157.5,212.3811 A2.5,2.5 0 0 0 160,214.8811 L204,214.8811 A2.5,2.5 0 0 0 206.5,212.3811 L206.5,186.26 L196.5,176.26 L160,176.26 A2.5,2.5 0 0 0 157.5,178.76 " fill="#F1F1F1" style="stroke:#181818;stroke-width:0.5;"/><path d="M196.5,176.26 L196.5,183.76 A2.5,2.5 0 0 0 199,186.26 L206.5,186.26 " fill="#F1F1F1" style="stroke:#181818;stroke-width:0.5;"/><text fill="#000000" font-family="sans-serif" font-size="14" lengthAdjust="spacing" textLength="29" x="167.5" y="201.3674">Dtos</text></g><!--entity Database--><g id="elem_Database"><path d="M1672.5,528.26 C1672.5,518.26 1713,518.26 1713,518.26 C1713,518.26 1753.5,518.26 1753.5,528.26 L1753.5,555.8811 C1753.5,565.8811 1713,565.8811 1713,565.8811 C1713,565.8811 1672.5,565.8811 1672.5,555.8811 L1672.5,528.26 " fill="#F1F1F1" style="stroke:#181818;stroke-width:0.5;"/><path d="M1672.5,528.26 C1672.5,538.26 1713,538.26 1713,538.26 C1713,538.26 1753.5,538.26 1753.5,528.26 " fill="none" style="stroke:#181818;stroke-width:0.5;"/><text fill="#000000" font-family="sans-serif" font-size="14" lengthAdjust="spacing" textLength="61" x="1682.5" y="557.3674">Database</text></g><!--entity POD--><g id="elem_POD"><path d="M1610,420.26 C1610,410.26 1635,410.26 1635,410.26 C1635,410.26 1660,410.26 1660,420.26 L1660,447.8811 C1660,457.8811 1635,457.8811 1635,457.8811 C1635,457.8811 1610,457.8811 1610,447.8811 L1610,420.26 " fill="#F1F1F1" style="stroke:#181818;stroke-width:0.5;"/><path d="M1610,420.26 C1610,430.26 1635,430.26 1635,430.26 C1635,430.26 1660,430.26 1660,420.26 " fill="none" style="stroke:#181818;stroke-width:0.5;"/><text fill="#000000" font-family="sans-serif" font-size="14" lengthAdjust="spacing" textLength="30" x="1620" y="449.3674">POD</text></g><!--entity WebApp--><g id="elem_WebApp"><rect fill="#F1F1F1" height="48.6211" rx="2.5" ry="2.5" style="stroke:#181818;stroke-width:0.5;" width="94" x="7" y="171.26"/><rect fill="#F1F1F1" height="10" style="stroke:#181818;stroke-width:0.5;" width="15" x="81" y="176.26"/><rect fill="#F1F1F1" height="2" style="stroke:#181818;stroke-width:0.5;" width="4" x="79" y="178.26"/><rect fill="#F1F1F1" height="2" style="stroke:#181818;stroke-width:0.5;" width="4" x="79" y="182.26"/><text fill="#000000" font-family="sans-serif" font-size="14" lengthAdjust="spacing" textLength="54" x="22" y="206.3674">WebApp</text></g><!--link WebApp to Controllers--><g id="link_WebApp_Controllers"><path d="M63.79,166.15 C77.99,128.65 108.23,65.69 158.5,38.76 C216.48,7.7 249.46,6 306.5,38.76 C337.21,56.4 351.7075,92.8825 358.4713,126.2425 C358.6826,127.285 358.8864,128.3245 359.083,129.3602 C359.1812,129.878 359.2777,130.395 359.3723,130.9109 " fill="none" id="WebApp-Controllers" style="stroke:#181818;stroke-width:1.0;"/><polygon fill="#181818" points="61.98,171.04,68.8477,163.9806,63.7105,166.349,61.3421,161.2118,61.98,171.04" style="stroke:#181818;stroke-width:1.0;"/><polygon fill="#181818" points="359.3723,130.9109,361.6827,121.3369,358.4701,125.993,353.814,122.7804,359.3723,130.9109" style="stroke:#181818;stroke-width:1.0;"/></g><!--link CommentController to PictureController--><!--link PictureController to PlaceController--><!--link PlaceController to ScoreController--><!--link ScoreController to UserController--><!--link CommentRepo to PictureRepo--><!--link PictureRepo to PlaceRepo--><!--link PlaceRepo to ScoreRepo--><!--link ScoreRepo to UserRepo--><!--link CommentService to PictureService--><!--link PictureService to PlaceService--><!--link PlaceService to ScoreService--><!--link ScoreService to UserService--><!--link CommentService to CommentRepo--><g id="link_CommentService_CommentRepo"><path d="M720.77,195.76 C743.13,195.76 765.49,195.76 787.86,195.76 " fill="none" id="CommentService-to-CommentRepo" style="stroke:#181818;stroke-width:1.0;"/><polygon fill="#181818" points="792.93,195.76,783.93,191.76,787.93,195.76,783.93,199.76,792.93,195.76" style="stroke:#181818;stroke-width:1.0;"/></g><!--link PictureService to PictureRepo--><g id="link_PictureService_PictureRepo"><path d="M713.68,329.26 C738.35,329.26 763.02,329.26 787.69,329.26 " fill="none" id="PictureService-to-PictureRepo" style="stroke:#181818;stroke-width:1.0;"/><polygon fill="#181818" points="792.95,329.26,783.95,325.26,787.95,329.26,783.95,333.26,792.95,329.26" style="stroke:#181818;stroke-width:1.0;"/></g><!--link PlaceService to PlaceRepo--><g id="link_PlaceService_PlaceRepo"><path d="M709.02,434.26 C735.34,434.26 761.67,434.26 787.99,434.26 " fill="none" id="PlaceService-to-PlaceRepo" style="stroke:#181818;stroke-width:1.0;"/><polygon fill="#181818" points="793.26,434.26,784.26,430.26,788.26,434.26,784.26,438.26,793.26,434.26" style="stroke:#181818;stroke-width:1.0;"/></g><!--link ScoreService to ScoreRepo--><g id="link_ScoreService_ScoreRepo"><path d="M709.88,542.26 C735.77,542.26 761.67,542.26 787.56,542.26 " fill="none" id="ScoreService-to-ScoreRepo" style="stroke:#181818;stroke-width:1.0;"/><polygon fill="#181818" points="792.74,542.26,783.74,538.26,787.74,542.26,783.74,546.26,792.74,542.26" style="stroke:#181818;stroke-width:1.0;"/></g><!--link UserService to UserRepo--><g id="link_UserService_UserRepo"><path d="M706.31,647.26 C733.93,647.26 761.55,647.26 789.18,647.26 " fill="none" id="UserService-to-UserRepo" style="stroke:#181818;stroke-width:1.0;"/><polygon fill="#181818" points="794.33,647.26,785.33,643.26,789.33,647.26,785.33,651.26,794.33,647.26" style="stroke:#181818;stroke-width:1.0;"/></g><!--link CommentController to CommentService--><g id="link_CommentController_CommentService"><path d="M498.63,195.76 C521.2,195.76 543.77,195.76 566.33,195.76 " fill="none" id="CommentController-to-CommentService" style="stroke:#181818;stroke-width:1.0;"/><polygon fill="#181818" points="571.45,195.76,562.45,191.76,566.45,195.76,562.45,199.76,571.45,195.76" style="stroke:#181818;stroke-width:1.0;"/></g><!--link PictureController to PictureService--><g id="link_PictureController_PictureService"><path d="M498.68,329.26 C523.48,329.26 548.28,329.26 573.09,329.26 " fill="none" id="PictureController-to-PictureService" style="stroke:#181818;stroke-width:1.0;"/><polygon fill="#181818" points="578.38,329.26,569.38,325.26,573.38,329.26,569.38,333.26,578.38,329.26" style="stroke:#181818;stroke-width:1.0;"/></g><!--link PlaceController to PlaceService--><g id="link_PlaceController_PlaceService"><path d="M498.14,434.26 C524.59,434.26 551.03,434.26 577.47,434.26 " fill="none" id="PlaceController-to-PlaceService" style="stroke:#181818;stroke-width:1.0;"/><polygon fill="#181818" points="582.76,434.26,573.76,430.26,577.76,434.26,573.76,438.26,582.76,434.26" style="stroke:#181818;stroke-width:1.0;"/></g><!--link ScoreController to ScoreService--><g id="link_ScoreController_ScoreService"><path d="M498.51,542.26 C524.7,542.26 550.9,542.26 577.1,542.26 " fill="none" id="ScoreController-to-ScoreService" style="stroke:#181818;stroke-width:1.0;"/><polygon fill="#181818" points="582.34,542.26,573.34,538.26,577.34,542.26,573.34,546.26,582.34,542.26" style="stroke:#181818;stroke-width:1.0;"/></g><!--link UserController to UserService--><g id="link_UserController_UserService"><path d="M497.22,647.26 C525.03,647.26 552.84,647.26 580.66,647.26 " fill="none" id="UserController-to-UserService" style="stroke:#181818;stroke-width:1.0;"/><polygon fill="#181818" points="585.85,647.26,576.85,643.26,580.85,647.26,576.85,651.26,585.85,647.26" style="stroke:#181818;stroke-width:1.0;"/></g><!--link PictureRepo to PodAccess--><!--link Repositories to Database--><g id="link_Repositories_Database"><path d="M1562.2383,208.3499 C1562.4462,208.647 1562.6575,208.9493 1562.8722,209.2567 C1564.5898,211.7163 1566.5252,214.5073 1568.65,217.6009 C1577.1494,229.9756 1588.68,247.1938 1601.4275,267.4225 C1626.9225,307.88 1657.285,360.38 1678,410.26 C1692.14,444.3 1702.07,485.7 1707.66,512.73 " fill="none" id="Repositories-Database" style="stroke:#181818;stroke-width:1.0;"/><polygon fill="#181818" points="1562.2383,208.3499,1564.1206,218.0173,1565.1048,212.4467,1570.6754,213.4309,1562.2383,208.3499" style="stroke:#181818;stroke-width:1.0;"/><polygon fill="#181818" points="1708.72,517.93,1710.8665,508.3179,1707.7339,513.0282,1703.0236,509.8956,1708.72,517.93" style="stroke:#181818;stroke-width:1.0;"/></g><!--link PodAccess to POD--><g id="link_PodAccess_POD"><path d="M1514.1493,336.7659 C1514.5034,337.0487 1514.8674,337.3394 1515.2412,337.6378 C1515.9888,338.2348 1516.7752,338.8627 1517.598,339.5197 C1524.1803,344.7756 1533.0919,351.8913 1543.0813,359.8675 C1563.06,375.82 1587.35,395.215 1605.94,410.06 " fill="none" id="PodAccess-POD" style="stroke:#181818;stroke-width:1.0;"/><polygon fill="#181818" points="1514.1493,336.7659,1518.6863,345.5075,1518.0565,339.8859,1523.6782,339.256,1514.1493,336.7659" style="stroke:#181818;stroke-width:1.0;"/><polygon fill="#181818" points="1609.91,413.23,1605.3771,404.4863,1606.0043,410.1083,1600.3823,410.7355,1609.91,413.23" style="stroke:#181818;stroke-width:1.0;"/></g><!--SRC=[ZLR1ZjiW4Btp5MWlFddLzbX5bfAubIgrQhHHsqFL0uj9YcA31IIhQDL_Bn0R3n1RwqCKPkODupV3mmNUd7dRS774crRI4_x9sGkkEJagqk7B-yTtgC1VsOMr-CD7_8izaxv7-iH5Jrm0eKQglRcs39CNfcN7K57UVr1HimCNt70fi3pSe7e-dCgkbu89Wv-ODklT5qmqtX1wOg9vHGZR1uRqKdERa3EDNxtJFKGPVh0RuQtiEXldmboQ1pgjFUpwQFH33jjnQiwA1LW_hHTXBQ40DAwM87igmJvwN2r1VcYc0k8yBEu09fPsibbJoZIaA4hvIHXkhZkYR3QV5XgYfF7xogOcXdmZWXm7O6nQX2Qmjq3szXti62N8s3gVuAd-l5MCMA8ySbf6a7_ezfjCsfwf2wUBKpQ4m44RJ8jJ1c5zP5gOiWW430jJ1Y4Q6EQd32BEqpe0CfAsKXWbsvOfo1Dr5khElnwfcW8XMpgPtmasK9N01hOMO8wP5EHiyn1FLGBnRCr375K9mh6bvtcgPKUu01GTk5LIV-YiaCNMsaWzPB5v6dkudecsvk7FPDbzhn5GJwlPQwlPRzPbnLhYtsSU0TkxAjko2flaRIr__-LDmyIVCcyUoji9m-EceRI983Hf5agR1qBZ9eMAlP3cjJepWhT0Mjyj8EXzMfDtJzgUrE6zA56Dl8Z1WnATI4i9OL0NqeB6e4W9ahB6cAoo2jwZMJbLJ5fKHGNOYhUk055GQwmZemXsj4hKzjuiLHc3wGXLCNNPt5GnQya97seCV1NmO9Hdw_Q7jWXt1h2X8lfcyPvmy1D4iDyVHULUOxpQKPHsLPPDwVOSLMBw15XPJ-N4uZy0]--></g></svg>