<?xml version="1.0" encoding="us-ascii" standalone="no"?><svg xmlns="http://www.w3.org/2000/svg" xmlns:xlink="http://www.w3.org/1999/xlink" contentStyleType="text/css" height="410px" preserveAspectRatio="none" style="width:596px;height:410px;background:#FFFFFF;" version="1.1" viewBox="0 0 596 410" width="596px" zoomAndPan="magnify"><defs/><g><!--cluster LoMap--><g id="cluster_LoMap"><rect fill="none" height="380.5" rx="2.5" ry="2.5" style="stroke:#181818;stroke-width:1.0;" width="146" x="262" y="23.5"/><line style="stroke:#181818;stroke-width:1.0;" x1="262" x2="408" y1="46.1211" y2="46.1211"/><text fill="#000000" font-family="sans-serif" font-size="14" font-weight="bold" lengthAdjust="spacing" textLength="47" x="311.5" y="40.6074">LoMap</text></g><!--cluster UserDat--><g id="cluster_UserDat"><rect fill="none" height="285.5" rx="2.5" ry="2.5" style="stroke:#181818;stroke-width:1.0;" width="122" x="7" y="7"/><line style="stroke:#181818;stroke-width:1.0;" x1="7" x2="129" y1="29.6211" y2="29.6211"/><text fill="#000000" font-family="sans-serif" font-size="14" font-weight="bold" lengthAdjust="spacing" textLength="33" x="51.5" y="24.1074">User</text></g><!--cluster External Services--><g id="cluster_External Services"><rect fill="none" height="213.5" rx="2.5" ry="2.5" style="stroke:#181818;stroke-width:1.0;" width="158" x="432" y="191"/><text fill="#000000" font-family="sans-serif" font-size="14" font-weight="bold" lengthAdjust="spacing" textLength="124" x="449" y="208.1074">External Services</text></g><!--entity Frontend--><g id="elem_Frontend"><rect fill="#F1F1F1" height="48.6211" rx="2.5" ry="2.5" style="stroke:#181818;stroke-width:0.5;" width="93" x="293.5" y="60.5"/><rect fill="#F1F1F1" height="10" style="stroke:#181818;stroke-width:0.5;" width="15" x="366.5" y="65.5"/><rect fill="#F1F1F1" height="2" style="stroke:#181818;stroke-width:0.5;" width="4" x="364.5" y="67.5"/><rect fill="#F1F1F1" height="2" style="stroke:#181818;stroke-width:0.5;" width="4" x="364.5" y="71.5"/><text fill="#000000" font-family="sans-serif" font-size="14" lengthAdjust="spacing" textLength="53" x="308.5" y="95.6074">Webapp</text></g><!--entity Backend--><g id="elem_Backend"><rect fill="#F1F1F1" height="48.6211" rx="2.5" ry="2.5" style="stroke:#181818;stroke-width:0.5;" width="114" x="278" y="228"/><rect fill="#F1F1F1" height="10" style="stroke:#181818;stroke-width:0.5;" width="15" x="372" y="233"/><rect fill="#F1F1F1" height="2" style="stroke:#181818;stroke-width:0.5;" width="4" x="370" y="235"/><rect fill="#F1F1F1" height="2" style="stroke:#181818;stroke-width:0.5;" width="4" x="370" y="239"/><text fill="#000000" font-family="sans-serif" font-size="14" lengthAdjust="spacing" textLength="74" x="293" y="263.1074">LoMapCore</text></g><!--entity Database--><g id="elem_Database"><path d="M294.5,350 C294.5,340 335,340 335,340 C335,340 375.5,340 375.5,350 L375.5,377.6211 C375.5,387.6211 335,387.6211 335,387.6211 C335,387.6211 294.5,387.6211 294.5,377.6211 L294.5,350 " fill="#F1F1F1" style="stroke:#181818;stroke-width:0.5;"/><path d="M294.5,350 C294.5,360 335,360 335,360 C335,360 375.5,360 375.5,350 " fill="none" style="stroke:#181818;stroke-width:0.5;"/><text fill="#000000" font-family="sans-serif" font-size="14" lengthAdjust="spacing" textLength="61" x="304.5" y="379.1074">Database</text></g><!--entity User--><g id="elem_User"><ellipse cx="55" cy="61.5" fill="#F1F1F1" rx="16" ry="16" style="stroke:#181818;stroke-width:1.5;"/><path d="M55,81.5 C59,81.5 62,81.5 66,77.5 C74,77.5 82,85.5 82,93.5 L82,97.5 C82,101.5 78,105.5 74,105.5 L36,105.5 C32,105.5 28,101.5 28,97.5 L28,93.5 C28,85.5 36,77.5 44,77.5 C48,81.5 51,81.5 55,81.5 " fill="#F1F1F1" style="stroke:#181818;stroke-width:1.5;"/><text fill="#000000" font-family="sans-serif" font-size="14" lengthAdjust="spacing" textLength="29" x="40.5" y="122.1074">User</text></g><!--entity POD--><g id="elem_POD"><path d="M48,238.5 C48,228.5 73,228.5 73,228.5 C73,228.5 98,228.5 98,238.5 L98,266.1211 C98,276.1211 73,276.1211 73,276.1211 C73,276.1211 48,276.1211 48,266.1211 L48,238.5 " fill="#F1F1F1" style="stroke:#181818;stroke-width:0.5;"/><path d="M48,238.5 C48,248.5 73,248.5 73,248.5 C73,248.5 98,248.5 98,238.5 " fill="none" style="stroke:#181818;stroke-width:0.5;"/><text fill="#000000" font-family="sans-serif" font-size="14" lengthAdjust="spacing" textLength="30" x="58" y="267.6074">POD</text></g><!--entity MapService--><g id="elem_MapService"><path d="M461.1258,236.6808 C464.4126,230.8569 468.7409,230.7569 473.1764,235.3523 C476.084,229.2538 479.535,228.5403 484.2659,233.5286 C487.5045,227.3907 491.449,225.3812 496.6931,231.4942 C499.5191,224.3812 504.104,222.1985 510.0363,228.3756 C514.5297,223.4287 517.9779,223.9297 520.5109,230.2053 C525.5792,224.5142 532.1082,225.0325 534.3538,233.0547 C538.6926,228.3676 543.486,227.6292 546.523,234.4333 C551.5959,229.241 556.4105,231.4231 558.6908,237.4595 C566.3019,241.7395 568.5978,246.5703 561.831,253.6405 C567.9644,260.061 566.9802,266.6509 558.718,270.397 C554.9175,276.1652 548.9735,276.7817 545.6999,269.8566 C543.0873,276.1428 536.9471,276.8686 533.0292,271.2453 C529.7806,275.7564 525.238,276.5079 522.0275,271.2026 C519.5744,277.3953 513.4581,278.7552 509.5665,272.6615 C505.915,279.1023 500.6474,278.8045 497.0674,272.591 C492.8491,276.9464 487.5444,276.6549 485.4085,270.3199 C481.5873,277.3737 476.1927,277.8473 471.4094,271.3109 C467.2903,275.0328 462.294,275.0213 460.6547,268.6647 C451.6979,267.7255 447.1893,262.7416 451.5626,253.7022 C445.1168,243.7099 449.2933,236.4037 461.1258,236.6808 " fill="#F1F1F1" style="stroke:#181818;stroke-width:0.5;"/><text fill="#000000" font-family="sans-serif" font-size="14" lengthAdjust="spacing" textLength="84" x="466" y="258.1074">Map Provider</text></g><!--entity ImgService--><g id="elem_ImgService"><path d="M457.6208,349.4006 C460.0087,343.7193 463.6756,342.4086 468.7416,346.2844 C471.2759,340.4726 475.6724,341.0782 479.2716,345.1499 C481.8552,340.131 487.5018,338.952 490.8589,344.2841 C492.941,338.3496 497.2744,337.6536 501.9988,341.1695 C504.3958,336.0455 508.5163,336.1979 511.8754,340.1191 C515.3787,335.7806 519.4217,336.5646 522.1009,341.0718 C526.8749,334.884 532.9061,336.3574 534.7726,343.779 C537.9833,339.2081 542.1329,339.4415 544.2542,344.8175 C548.5455,340.318 551.9097,340.9823 554.8534,346.276 C559.2193,342.6586 563.5604,343.5461 565.7864,348.8875 C574.756,351.4013 578.9648,358.0456 571.3518,365.9638 C577.7461,372.7832 574.7061,377.1658 567.5215,380.3765 C564.1651,387.7165 559.1473,388.5774 553.2736,383.1958 C549.8435,389.7505 544.639,391.6901 539.674,384.7416 C535.6394,390.7595 531.1093,391.787 526.5306,385.3141 C523.0982,392.1928 518.141,393.7278 512.9936,387.0234 C507.6884,392.9272 502.8579,392.2739 498.5356,385.8688 C493.8558,391.5958 487.8088,391.2402 484.4595,384.3808 C479.1567,390.4218 473.733,389.0561 471.2931,381.59 C466.69,389.0408 461.1301,387.1047 457.2552,380.8445 C447.5237,377.8024 446.4642,372.137 452.5835,364.5503 C447.0486,357.3662 448.3914,351.6756 457.6208,349.4006 " fill="#F1F1F1" style="stroke:#181818;stroke-width:0.5;"/><text fill="#000000" font-family="sans-serif" font-size="14" lengthAdjust="spacing" textLength="95" x="463.5" y="369.6074">Image Provider</text></g><!--link User to Frontend--><g id="link_User_Frontend"><path d="M83.63,85 C131.38,85 227.95,85 287.98,85 " fill="none" id="User-to-Frontend" style="stroke:#181818;stroke-width:1.0;"/><polygon fill="#181818" points="293.32,85,284.32,81,288.32,85,284.32,89,293.32,85" style="stroke:#181818;stroke-width:1.0;"/><text fill="#000000" font-family="sans-serif" font-size="13" lengthAdjust="spacing" textLength="50" x="163.5" y="78.0283">interacts</text></g><!--link User to Frontend--><!--link User to POD--><g id="link_User_POD"><path d="M59.36,126.06 C62.62,156.02 66.99,196.25 69.9,222.98 " fill="none" id="User-to-POD" style="stroke:#181818;stroke-width:1.0;"/><polygon fill="#181818" points="70.46,228.14,73.4594,218.759,69.9172,223.1695,65.5067,219.6274,70.46,228.14" style="stroke:#181818;stroke-width:1.0;"/><text fill="#000000" font-family="sans-serif" font-size="13" lengthAdjust="spacing" textLength="53" x="66" y="171.0283">manages</text></g><!--link Frontend to Backend--><g id="link_Frontend_Backend"><path d="M339.28,109.71 C338.39,139.45 336.85,190.42 335.88,222.47 " fill="none" id="Frontend-to-Backend" style="stroke:#181818;stroke-width:1.0;"/><polygon fill="#181818" points="335.72,227.83,340.0007,218.9601,335.8771,222.8325,332.0047,218.7088,335.72,227.83" style="stroke:#181818;stroke-width:1.0;"/></g><!--link Backend to POD--><g id="link_Backend_POD"><path d="M277.62,252.5 C217.77,252.5 157.92,252.5 98.07,252.5 " fill="none" id="Backend-POD" style="stroke:#181818;stroke-width:1.0;"/></g><!--link Backend to Database--><g id="link_Backend_Database"><path d="M335,277.26 C335,294.02 335,316.55 335,334.32 " fill="none" id="Backend-to-Database" style="stroke:#181818;stroke-width:1.0;"/><polygon fill="#181818" points="335,339.66,339,330.66,335,334.66,331,330.66,335,339.66" style="stroke:#181818;stroke-width:1.0;"/></g><!--link Backend to MapService--><g id="link_Backend_MapService"><path d="M392.1,252.5 C410.04,252.5 427.97,252.5 445.9,252.5 " fill="none" id="Backend-to-MapService" style="stroke:#181818;stroke-width:1.0;"/><polygon fill="#181818" points="450.96,252.5,441.96,248.5,445.96,252.5,441.96,256.5,450.96,252.5" style="stroke:#181818;stroke-width:1.0;"/></g><!--link Backend to ImgService--><g id="link_Backend_ImgService"><path d="M373.19,277.26 C401.31,294.75 439.54,318.54 468.61,336.62 " fill="none" id="Backend-to-ImgService" style="stroke:#181818;stroke-width:1.0;"/><polygon fill="#181818" points="473.19,339.47,467.6657,331.3164,468.946,336.8264,463.4359,338.1068,473.19,339.47" style="stroke:#181818;stroke-width:1.0;"/></g><!--link MapService to ImgService--><!--SRC=[ZL8zJyCm4DtzAqvPCWNHbO6X14Ib8YfLm80OhlQHMdLiotPJ4EA_O-UhAQ8INdA-U-_TtNDocE-b4b9NC5U6x-1PqW5AYPN36fhPnINBOKaDAPWnlvFQOYeW3yQjmwSYm0DvKnFBYxyFoqjwbre6QJIOzuxguJoUenEmD0zeuOj1FDpKrcZI0LveWzO2UhXpHWVIuXUWfTqOHmapHxuR8083Rj0Jb7t0lXdhMcLFdboM22c8zRvjEsYRErLOFPQ9x8W7r5Lq8Blz2EGqAbYJQoGddmsJAxEF3T8gAsSQAVf6CT53fx15ZHMT0XTrDG3JlF_rs9725Flp39OMWy8LrwENS0Ko1Yuk7ebmBuKWVTI2BIaB1ncsu2to-Clq6g_R5laMPO_lqfL4b8z-HUKQTTpEix5P4Kl32oL8eOhntdyx_lXYOpODFR7m93znx0YPp3W5i1y0]--></g></svg>