<?xml version="1.0" encoding="UTF-8" standalone="no"?>
<svg xmlns="http://www.w3.org/2000/svg" xmlns:xlink="http://www.w3.org/1999/xlink" contentStyleType="text/css" height="395px" preserveAspectRatio="none" style="width:591px;height:395px;background:#FFFFFF;" version="1.1" viewBox="0 0 591 395" width="591px" zoomAndPan="magnify"><defs/><g><!--cluster LoMap--><g id="cluster_LoMap"><path d="M272.5,34.5 L326.5,34.5 A3.75,3.75 0 0 1 329,37 L336,56.7969 L387.5,56.7969 A2.5,2.5 0 0 1 390,59.2969 L390,385.5 A2.5,2.5 0 0 1 387.5,388 L272.5,388 A2.5,2.5 0 0 1 270,385.5 L270,37 A2.5,2.5 0 0 1 272.5,34.5 " fill="none" style="stroke:#000000;stroke-width:1.5;"/><line style="stroke:#000000;stroke-width:1.5;" x1="270" x2="336" y1="56.7969" y2="56.7969"/><text fill="#000000" font-family="sans-serif" font-size="14" font-weight="bold" lengthAdjust="spacing" textLength="53" x="274" y="49.4951">LoMap</text></g><!--cluster UserDat--><g id="cluster_UserDat"><path d="M8.5,6 L45.5,6 A3.75,3.75 0 0 1 48,8.5 L55,28.2969 L132.5,28.2969 A2.5,2.5 0 0 1 135,30.7969 L135,277 A2.5,2.5 0 0 1 132.5,279.5 L8.5,279.5 A2.5,2.5 0 0 1 6,277 L6,8.5 A2.5,2.5 0 0 1 8.5,6 " fill="none" style="stroke:#000000;stroke-width:1.5;"/><line style="stroke:#000000;stroke-width:1.5;" x1="6" x2="55" y1="28.2969" y2="28.2969"/><text fill="#000000" font-family="sans-serif" font-size="14" font-weight="bold" lengthAdjust="spacing" textLength="36" x="10" y="20.9951">User</text></g><!--cluster External Services--><g id="cluster_External Services"><path d="M416.5,183 L556.5,183 A3.75,3.75 0 0 1 559,185.5 L566,205.2969 L581.5,205.2969 A2.5,2.5 0 0 1 584,207.7969 L584,386 A2.5,2.5 0 0 1 581.5,388.5 L416.5,388.5 A2.5,2.5 0 0 1 414,386 L414,185.5 A2.5,2.5 0 0 1 416.5,183 " fill="none" style="stroke:#000000;stroke-width:1.5;"/><line style="stroke:#000000;stroke-width:1.5;" x1="414" x2="566" y1="205.2969" y2="205.2969"/><text fill="#000000" font-family="sans-serif" font-size="14" font-weight="bold" lengthAdjust="spacing" textLength="139" x="418" y="197.9951">External Services</text></g><!--entity Frontend--><g id="elem_Frontend"><rect fill="#F1F1F1" height="22.2969" rx="2.5" ry="2.5" style="stroke:#181818;stroke-width:0.5;" width="81" x="292.5" y="69.5"/><text fill="#000000" font-family="sans-serif" font-size="14" lengthAdjust="spacing" textLength="61" x="302.5" y="85.4951">Webapp</text></g><!--entity Backend--><g id="elem_Backend"><rect fill="#F1F1F1" height="22.2969" rx="2.5" ry="2.5" style="stroke:#181818;stroke-width:0.5;" width="76" x="295" y="230"/><text fill="#000000" font-family="sans-serif" font-size="14" lengthAdjust="spacing" textLength="56" x="305" y="245.9951">RestAPI</text></g><!--entity Database--><g id="elem_Database"><path d="M286,337 C286,327 330,327 330,327 C330,327 374,327 374,337 L374,362.2969 C374,372.2969 330,372.2969 330,372.2969 C330,372.2969 286,372.2969 286,362.2969 L286,337 " fill="#F1F1F1" style="stroke:#181818;stroke-width:0.5;"/><path d="M286,337 C286,347 330,347 330,347 C330,347 374,347 374,337 " fill="none" style="stroke:#181818;stroke-width:0.5;"/><text fill="#000000" font-family="sans-serif" font-size="14" lengthAdjust="spacing" textLength="68" x="296" y="363.9951">Database</text></g><!--entity User--><g id="elem_User"><ellipse cx="54" cy="58.5" fill="#F1F1F1" rx="16" ry="16" style="stroke:#181818;stroke-width:1.5;"/><path d="M54,78.5 C58,78.5 61,78.5 65,74.5 C73,74.5 81,82.5 81,90.5 L81,94.5 C81,98.5 77,102.5 73,102.5 L35,102.5 C31,102.5 27,98.5 27,94.5 L27,90.5 C27,82.5 35,74.5 43,74.5 C47,78.5 50,78.5 54,78.5 " fill="#F1F1F1" style="stroke:#181818;stroke-width:1.5;"/><text fill="#000000" font-family="sans-serif" font-size="14" lengthAdjust="spacing" textLength="31" x="38.5" y="116.9951">User</text></g><!--entity POD--><g id="elem_POD"><path d="M49.5,228.5 C49.5,218.5 75,218.5 75,218.5 C75,218.5 100.5,218.5 100.5,228.5 L100.5,253.7969 C100.5,263.7969 75,263.7969 75,263.7969 C75,263.7969 49.5,263.7969 49.5,253.7969 L49.5,228.5 " fill="#F1F1F1" style="stroke:#181818;stroke-width:0.5;"/><path d="M49.5,228.5 C49.5,238.5 75,238.5 75,238.5 C75,238.5 100.5,238.5 100.5,228.5 " fill="none" style="stroke:#181818;stroke-width:0.5;"/><text fill="#000000" font-family="sans-serif" font-size="14" lengthAdjust="spacing" textLength="31" x="59.5" y="255.4951">POD</text></g><!--entity MapService--><g id="elem_MapService"><path d="M441.9187,227.4121 C445.9039,221.3994 452.5068,220.563 456.5838,227.3067 C458.8286,221.1619 464.6005,218.2987 469.5535,224.4502 C473.0082,219.0522 478.5427,218.623 482.1844,224.2357 C487.2979,217.5977 492.1743,216.6906 496.9392,224.5895 C500.4663,217.869 506.3418,218.0627 510.2317,224.2148 C515.1204,219.6642 519.0035,219.9572 522.0725,226.2094 C527.1271,220.1432 531.638,218.1081 536.9561,225.9269 C542.2553,220.4174 547.1512,221.5349 550.4718,228.1351 C556.9104,231.8723 557.9208,237.5025 551.261,241.986 C557.3185,246.795 557.2258,252.1072 551.0424,256.7348 C547.4051,264.4471 540.449,264.6835 536.4962,257.0336 C532.5674,264.4406 528.5137,264.0861 523.5433,258.0361 C520.2012,264.6591 513.2097,264.9723 508.8254,259.2816 C505.4556,265.0582 501.1791,265.6543 496.4003,260.9524 C490.8687,266.0246 486.2813,265.884 482.5944,258.849 C478.7376,264.966 473.6735,266.5049 469.0136,259.6926 C464.2235,266.5408 458.0868,265.4664 455.0635,257.9739 C451.358,263.6962 445.7778,264.6789 442.3049,257.7396 C432.057,255.6364 430.1782,249.8864 435.1069,241.1846 C430.6152,233.7924 433.206,228.2735 441.9187,227.4121 " fill="#F1F1F1" style="stroke:#181818;stroke-width:0.5;"/><text fill="#000000" font-family="sans-serif" font-size="14" lengthAdjust="spacing" textLength="94" x="448" y="245.9951">Map Provider</text></g><!--entity ImgService--><g id="elem_ImgService"><path d="M438.0967,335.947 C442.7395,328.2755 447.3373,328.157 452.3895,335.5587 C455.7676,330.4435 459.334,329.7729 463.0282,335.2408 C466.5435,328.3632 471.2768,326.9553 476.6697,333.3043 C479.5488,327.345 484.8491,326.1357 488.8676,332.143 C491.7635,326.0842 497.3358,326.0376 500.5982,331.7788 C504.8012,327.7294 509.518,327.3266 511.7885,333.8283 C515.8993,327.9227 520.1083,327.8421 524.2298,333.8171 C528.0712,327.1893 532.9138,327.1789 537.0577,333.5178 C541.376,326.8567 546.477,327.8092 549.7409,334.5181 C553.8081,329.8287 558.9176,330.8683 561.3109,336.4109 C570.8357,336.9467 572.7245,341.8958 569.6692,350.1082 C575.7165,358.7502 571.2956,365.9669 561.4706,366.8238 C557.6001,372.1026 552.6574,372.9336 548.7724,366.8401 C545.4142,374.3664 541.3781,374.4825 535.9599,368.845 C533.0435,374.2539 527.0497,373.8498 523.9454,369.0665 C521.462,375.2345 517.3837,375.5632 513.3075,370.5869 C509.9463,376.985 506.0478,378.8768 500.5357,372.7867 C495.9151,378.8205 490.3901,376.6082 488.1693,370.3687 C484.3855,375.5702 478.8714,376.6136 475.7265,369.712 C472.2929,374.871 467.9219,374.2229 464.5685,369.6203 C459.9018,374.1826 455.3255,374.4079 452.0565,368.0228 C447.4883,373.6976 441.8129,374.0816 438.2667,366.9245 C427.4003,366.4066 425.45,359.1338 430.852,351.0279 C425.9223,342.9391 428.1111,336.8706 438.0967,335.947 " fill="#F1F1F1" style="stroke:#181818;stroke-width:0.5;"/><text fill="#000000" font-family="sans-serif" font-size="14" lengthAdjust="spacing" textLength="108" x="445" y="354.4951">Image Provider</text></g><!--link User to Frontend--><g id="link_User_Frontend"><path d="M82.5467,80.5 C130.81,80.5 228.936,80.5 287.004,80.5 " fill="none" id="User-to-Frontend" style="stroke:#181818;stroke-width:1.0;"/><polygon fill="#181818" points="292.15,80.5,283.15,76.5,287.15,80.5,283.15,84.5,292.15,80.5" style="stroke:#181818;stroke-width:1.0;"/><text fill="#000000" font-family="sans-serif" font-size="13" lengthAdjust="spacing" textLength="56" x="159.5" y="73.5669">interacts</text></g><!--link User to Frontend--><!--link User to POD--><g id="link_User_POD"><path d="M59.1372,120.273 C62.9462,149.022 68.0422,187.485 71.4184,212.968 " fill="none" id="User-to-POD" style="stroke:#181818;stroke-width:1.0;"/><polygon fill="#181818" points="72.1117,218.2,74.8941,208.7524,71.4545,213.2434,66.9635,209.8038,72.1117,218.2" style="stroke:#181818;stroke-width:1.0;"/><text fill="#000000" font-family="sans-serif" font-size="13" lengthAdjust="spacing" textLength="60" x="67" y="163.0669">manages</text></g><!--link Frontend to Backend--><g id="link_Frontend_Backend"><path d="M333,91.9 C333,119.113 333,192.533 333,224.629 " fill="none" id="Frontend-to-Backend" style="stroke:#181818;stroke-width:1.0;"/><polygon fill="#181818" points="333,229.768,337,220.768,333,224.768,329,220.768,333,229.768" style="stroke:#181818;stroke-width:1.0;"/><path d="M325.9289,163.5044 A10,10 0 0 0 340.0711 163.5044" fill="none" style="stroke:#181818;stroke-width:1.5;"/><ellipse cx="333" cy="156.4334" fill="#FFFFFF" rx="6" ry="6" style="stroke:#181818;stroke-width:1.5;"/></g><!--link Backend to POD--><g id="link_Backend_POD"><path d="M294.888,241 C230.159,241 165.429,241 100.699,241 " fill="none" id="Backend-POD" style="stroke:#181818;stroke-width:1.0;"/><path d="M204.8649,248.0711 A10,10 0 0 0 204.8649 233.9289" fill="none" style="stroke:#181818;stroke-width:1.5;"/><ellipse cx="197.7939" cy="241" fill="#FFFFFF" rx="6" ry="6" style="stroke:#181818;stroke-width:1.5;"/></g><!--link Backend to Database--><g id="link_Backend_Database"><path d="M332.712,252.212 C332.267,268.021 331.396,298.947 330.761,321.4974 " fill="none" id="Backend-to-Database" style="stroke:#181818;stroke-width:1.0;"/><polygon fill="#181818" points="330.613,326.7474,334.8649,317.8636,330.7538,321.7494,326.8681,317.6383,330.613,326.7474" style="stroke:#181818;stroke-width:1.0;"/></g><!--link Backend to MapService--><g id="link_Backend_MapService"><path d="M371.285,241 C389.985,241 408.685,241 427.385,241 " fill="none" id="Backend-to-MapService" style="stroke:#181818;stroke-width:1.0;"/><polygon fill="#181818" points="432.659,241,423.659,237,427.659,241,423.659,245,432.659,241" style="stroke:#181818;stroke-width:1.0;"/></g><!--link Backend to ImgService--><g id="link_Backend_ImgService"><path d="M348.617,252.019 C373.978,268.29 424.853,300.929 460.372,323.7173 " fill="none" id="Backend-to-ImgService" style="stroke:#181818;stroke-width:1.0;"/><polygon fill="#181818" points="464.624,326.4458,459.2089,318.2192,460.4156,323.7458,454.889,324.9526,464.624,326.4458" style="stroke:#181818;stroke-width:1.0;"/></g><!--link MapService to ImgService--><!--SRC=[ZL9DImCn4BtdLmnxAHvMwhM7WcKL2uh5eXx4mxYPRaEpoPB4Lf7-ToVjVgGWnLnsCk-zcJUJ7S6jioQGaLegKy5Cst83BufsK2Yi7DQm7LzU2RzHfi5unJ9OjmpVcW1tv6rD06AK_tqOAMYbZ0hA6h2hezgV4u1eiDnWHN1l7x217m5yIdGINka3cmRGzwO7x8byk5xC8pXZVOT93FY1dg3e0h7l6sJFdbmM9J5WHjliOFAGEwsnU2oYV72OtNm5SWOrBCbjLKa-w_ng-oaXYmCidDqgsJRYH4jDQVCwLZiXpkkg8-x_lrv76cDyPiCYpWMvowVz5c42YWF7SqSXt2afoIJ5rgGRsAcm1i-Zyt_I5dbR7vZlqKh_94T8SlsuhmdKQ7WwB_fk-VY2mUwL8YdNdEepxVTOetkt8JjDbvXaauqDXCHZGlW5]--></g></svg>