<?xml version="1.0" encoding="UTF-8" standalone="no"?>
<svg xmlns="http://www.w3.org/2000/svg" xmlns:xlink="http://www.w3.org/1999/xlink" contentStyleType="text/css" height="328px" preserveAspectRatio="none" style="width:357px;height:328px;background:#000000;" version="1.1" viewBox="0 0 357 328" width="357px" zoomAndPan="magnify"><defs/><g><!--cluster POD--><g id="cluster_POD"><path d="M199.5,6 L233.5,6 A3.75,3.75 0 0 1 236,8.5 L243,28.2969 L347.5,28.2969 A2.5,2.5 0 0 1 350,30.7969 L350,106.5 A2.5,2.5 0 0 1 347.5,109 L199.5,109 A2.5,2.5 0 0 1 197,106.5 L197,8.5 A2.5,2.5 0 0 1 199.5,6 " fill="none" style="stroke:#FFFFFF;stroke-width:1.5;"/><line style="stroke:#FFFFFF;stroke-width:1.5;" x1="197" x2="243" y1="28.2969" y2="28.2969"/><text fill="#FFFFFF" font-family="sans-serif" font-size="14" font-weight="bold" lengthAdjust="spacing" textLength="33" x="201" y="20.9951">POD</text></g><!--entity UserData--><g id="elem_UserData"><path d="M240.5,51.5 L240.5,82.7969 A2.5,2.5 0 0 0 243,85.2969 L323,85.2969 A2.5,2.5 0 0 0 325.5,82.7969 L325.5,59 L315.5,49 L243,49 A2.5,2.5 0 0 0 240.5,51.5 " fill="#303030" style="stroke:#E7E7E7;stroke-width:0.5;"/><path d="M315.5,49 L315.5,56.5 A2.5,2.5 0 0 0 318,59 L325.5,59 " fill="#303030" style="stroke:#E7E7E7;stroke-width:0.5;"/><text fill="#FFFFFF" font-family="sans-serif" font-size="14" lengthAdjust="spacing" textLength="65" x="250.5" y="71.9951">UserData</text></g><!--entity User--><g id="elem_User"><ellipse cx="141" cy="45" fill="#303030" rx="16" ry="16" style="stroke:#E7E7E7;stroke-width:1.5;"/><path d="M141,65 C145,65 148,65 152,61 C160,61 168,69 168,77 L168,81 C168,85 164,89 160,89 L122,89 C118,89 114,85 114,81 L114,77 C114,69 122,61 130,61 C134,65 137,65 141,65 " fill="#303030" style="stroke:#E7E7E7;stroke-width:1.5;"/><text fill="#FFFFFF" font-family="sans-serif" font-size="14" lengthAdjust="spacing" textLength="31" x="125.5" y="103.4951">User</text></g><!--entity LoMap--><g id="elem_LoMap"><polygon fill="#303030" points="129.5,176.5,139.5,166.5,216.5,166.5,216.5,202.7969,206.5,212.7969,129.5,212.7969,129.5,176.5" style="stroke:#E7E7E7;stroke-width:0.5;"/><line style="stroke:#E7E7E7;stroke-width:0.5;" x1="206.5" x2="216.5" y1="176.5" y2="166.5"/><line style="stroke:#E7E7E7;stroke-width:0.5;" x1="129.5" x2="206.5" y1="176.5" y2="176.5"/><line style="stroke:#E7E7E7;stroke-width:0.5;" x1="206.5" x2="206.5" y1="176.5" y2="212.7969"/><text fill="#FFFFFF" font-family="sans-serif" font-size="14" lengthAdjust="spacing" textLength="47" x="144.5" y="199.4951">LoMap</text></g><!--entity c1--><g id="elem_c1"><path d="M48.7157,281.3109 C51.9218,276.3037 57.4614,276.5425 60.3776,281.6454 C63.4232,275.0547 68.0983,275.1184 72.4194,280.3457 C75.8688,273.4096 81.233,274.1996 85.6478,279.2833 C88.5062,273.7442 94.3518,273.1518 98.04,278.3231 C101.3694,273.3166 106.8248,273.8792 108.9661,279.5399 C112.8834,274.2899 118.3996,274.7174 121.828,280.1298 C125.5809,274.7325 130.4209,274.4543 134.1248,280.184 C138.8793,275.6767 142.2835,276.6185 144.5606,282.6396 C152.6093,285.8963 155.1445,290.3491 148.6598,297.5905 C152.8588,303.676 153.2776,308.1477 145.0248,310.809 C141.8352,317.826 138.0695,318.874 132.6354,312.9593 C129.9183,318.666 124.8058,318.4697 121.579,313.4864 C118.6854,319.4848 113.8299,319.5406 109.9016,314.59 C107.1937,320.5976 101.3448,321.1548 97.2114,316.2473 C92.5503,321.4044 87.8314,320.3914 84.5381,314.6559 C81.0786,319.825 76.796,320.3878 72.9945,315.0309 C69.1222,320.1345 63.0886,320.1198 60.4809,313.6621 C56.858,318.2963 50.836,318.8245 48.6617,312.1482 C39.2403,310.9591 35.3446,305.6604 40.9737,296.8886 C35.806,288.1227 38.2374,282.3008 48.7157,281.3109 " fill="#303030" style="stroke:#E7E7E7;stroke-width:0.5;"/><text fill="#FFFFFF" font-family="sans-serif" font-size="14" lengthAdjust="spacing" textLength="83" x="54.5" y="300.4951">MapService</text></g><!--entity c2--><g id="elem_c2"><path d="M195.8937,281.3458 C199.5244,276.5082 203.8753,275.6491 207.4584,281.3978 C210.3607,275.9248 215.8389,274.4558 219.6441,280.4373 C222.7312,274.8966 226.0755,275.0817 229.7581,279.8532 C233.7669,273.0395 237.7973,274.6435 242.0684,279.5783 C244.6081,274.1022 248.1083,273.6205 251.7076,278.6017 C256.268,272.7839 260.2823,272.4923 264.194,279.246 C266.8973,274.1136 271.943,274.6466 274.3234,279.5711 C278.0648,274.0597 283.061,274.4078 286.0929,280.3031 C289.8182,275.6407 294.313,275.6241 297.3454,281.0741 C300.0387,275.6649 305.2764,275.627 308.1483,280.8934 C315.7339,284.0371 317.951,291.6979 311.3615,297.5724 C316.4845,302.8687 315.1506,308.9892 307.7562,310.8993 C304.7703,316.2288 299.378,317.4188 295.6236,311.7468 C292.505,317.6518 288.288,316.7913 284.471,312.5115 C280.7423,317.0438 277.2106,318.4713 273.3141,312.6931 C270.1767,318.3957 265.8758,318.5673 262.2385,313.1929 C259.3728,317.543 255.5181,316.8169 252.8281,312.9907 C249.3945,317.7632 244.5441,318.1453 241.3998,312.6681 C238.2797,317.8164 233.1902,318.0592 229.8351,312.9326 C227.2024,318.0216 222.1358,319.3051 218.8725,313.5712 C214.5499,318.5174 210.144,319.3035 206.6799,312.6674 C203.3173,316.8915 199.9374,316.3743 197.2119,311.9685 C188.7378,309.2944 187.8416,301.7557 193.7432,295.9656 C187.1492,290.1629 187.8356,284.9932 195.8937,281.3458 " fill="#303030" style="stroke:#E7E7E7;stroke-width:0.5;"/><text fill="#FFFFFF" font-family="sans-serif" font-size="14" lengthAdjust="spacing" textLength="97" x="202.5" y="300.4951">ImageService</text></g><!--entity Database--><g id="elem_Database"><path d="M6,177 C6,167 50,167 50,167 C50,167 94,167 94,177 L94,202.2969 C94,212.2969 50,212.2969 50,212.2969 C50,212.2969 6,212.2969 6,202.2969 L6,177 " fill="#303030" style="stroke:#E7E7E7;stroke-width:0.5;"/><path d="M6,177 C6,187 50,187 50,187 C50,187 94,187 94,177 " fill="none" style="stroke:#E7E7E7;stroke-width:0.5;"/><text fill="#FFFFFF" font-family="sans-serif" font-size="14" lengthAdjust="spacing" textLength="68" x="16" y="203.9951">Database</text></g><!--link User to LoMap--><g id="link_User_LoMap"><path d="M152.667,111.935 C157.036,128.384 161.87,146.589 165.729,161.119 " fill="none" id="User-LoMap" style="stroke:#E7E7E7;stroke-width:1.0;"/><polygon fill="#E7E7E7" points="151.301,106.79,149.7439,116.515,152.5838,111.6226,157.4762,114.4625,151.301,106.79" style="stroke:#E7E7E7;stroke-width:1.0;"/><polygon fill="#E7E7E7" points="167.103,166.295,168.6594,156.5699,165.8198,161.4625,160.9273,158.6229,167.103,166.295" style="stroke:#E7E7E7;stroke-width:1.0;"/></g><!--link User to POD--><g id="link_User_POD"><path d="M169.5,67 C175.324,67 181.1483,67 186.9725,67 C189.8846,67 192.7967,67 195.7088,67 C196.0729,67 196.4369,67 196.8009,67 C196.8464,67 196.8919,67 196.9374,67 " fill="none" id="User-to-POD" style="stroke:#E7E7E7;stroke-width:1.0;"/><polygon fill="#E7E7E7" points="196.9374,67,187.9374,63,191.9374,67,187.9374,71,196.9374,67" style="stroke:#E7E7E7;stroke-width:1.0;"/></g><!--reverse link LoMap to c1--><g id="link_LoMap_c1"><path d="M153.518,216.813 C140.785,234.0107 124.347,256.2135 112.306,272.4761 " fill="none" id="LoMap-backto-c1" style="stroke:#E7E7E7;stroke-width:1.0;"/><polygon fill="#E7E7E7" points="156.67,212.556,148.0987,217.407,153.6938,216.5738,154.5271,222.1689,156.67,212.556" style="stroke:#E7E7E7;stroke-width:1.0;"/></g><!--reverse link LoMap to c2--><g id="link_LoMap_c2"><path d="M192.735,216.813 C205.633,234.0107 222.285,256.2135 234.482,272.4761 " fill="none" id="LoMap-backto-c2" style="stroke:#E7E7E7;stroke-width:1.0;"/><polygon fill="#E7E7E7" points="189.542,212.556,191.742,222.156,192.542,216.556,198.142,217.356,189.542,212.556" style="stroke:#E7E7E7;stroke-width:1.0;"/></g><!--link POD to LoMap--><g id="link_POD_LoMap"><path d="M196.9239,98.4113 C196.8492,98.6927 196.7741,98.9753 196.6988,99.2591 C196.3974,100.394 196.0912,101.5469 195.7809,102.7156 C190.8153,121.4145 184.7805,144.1395 180.17,161.501 " fill="none" id="POD-to-LoMap" style="stroke:#E7E7E7;stroke-width:1.0;"/><polygon fill="#E7E7E7" points="178.853,166.46,185.0282,158.7875,180.1358,161.6274,177.2959,156.735,178.853,166.46" style="stroke:#E7E7E7;stroke-width:1.0;"/></g><!--link Database to LoMap--><g id="link_Database_LoMap"><path d="M99.4117,189.5 C107.66,189.5 115.908,189.5 124.157,189.5 " fill="none" id="Database-LoMap" style="stroke:#E7E7E7;stroke-width:1.0;"/><polygon fill="#E7E7E7" points="94.2031,189.5,103.2031,193.5,99.2031,189.5,103.2031,185.5,94.2031,189.5" style="stroke:#E7E7E7;stroke-width:1.0;"/><polygon fill="#E7E7E7" points="129.292,189.5,120.292,185.5,124.292,189.5,120.292,193.5,129.292,189.5" style="stroke:#E7E7E7;stroke-width:1.0;"/></g><!--SRC=[bKzDImCn4BtdLpnwwMb5zrnwqBq8YaBr1qmtapgOJPOaRHNnlpjPQQiW1NEQUM_oFkRNsoo1SyPD38NV2ZgXJQ81kykB5Z3vLS985Q2-nBGgxvv1UyvnOANdpTzFcOwT12aI0wA3QfJ0AP_xCZdWENE22T4oxk8zZJ0kUglOuqE73_LqeX7gLKU5O3vh33ozS6RinNki6NdaNfomXQTIvNeVjnRz5IXZfg8hJZlfUNPasecv7MZ39ywgmPfKjpiC_sYSMBrrFbjvAhjeR6oMXxOJr2HHf3Ost_12hpN-pwqzRPwRtySAB8-flm00]--></g></svg>