<?xml version="1.0" encoding="us-ascii" standalone="no"?><svg xmlns="http://www.w3.org/2000/svg" xmlns:xlink="http://www.w3.org/1999/xlink" contentStyleType="text/css" height="235px" preserveAspectRatio="none" style="width:2408px;height:235px;background:#FFFFFF;" version="1.1" viewBox="0 0 2408 235" width="2408px" zoomAndPan="magnify"><defs/><g><!--class ScoreService--><g id="elem_ScoreService"><rect codeLine="1" fill="#F1F1F1" height="113.1875" id="ScoreService" rx="2.5" ry="2.5" style="stroke:#181818;stroke-width:0.5;" width="550" x="7" y="7"/><ellipse cx="230.75" cy="23" fill="#B4A7E5" rx="11" ry="11" style="stroke:#181818;stroke-width:1.0;"/><path d="M231.7031,19.7813 L233.4219,19.7813 C233.8125,19.7813 234,19.75 234.125,19.6719 C234.3906,19.5156 234.5313,19.2344 234.5313,18.9375 C234.5313,18.6719 234.4219,18.4063 234.1875,18.2344 C234.0156,18.125 233.875,18.0938 233.4219,18.0938 L228.2813,18.0938 C227.8438,18.0938 227.7188,18.1094 227.5625,18.2031 C227.3125,18.3594 227.1563,18.6563 227.1563,18.9375 C227.1563,19.2188 227.2969,19.4688 227.5156,19.6406 C227.6719,19.75 227.8594,19.7813 228.2813,19.7813 L230,19.7813 L230,26.2969 L228.2813,26.2969 C227.8438,26.2969 227.7188,26.3125 227.5625,26.4219 C227.3125,26.5781 227.1563,26.8594 227.1563,27.1563 C227.1563,27.4063 227.2969,27.6719 227.5156,27.8281 C227.6719,27.9531 227.875,28 228.2813,28 L233.4219,28 C234.1719,28 234.5313,27.7188 234.5313,27.1563 C234.5313,26.875 234.4219,26.625 234.1875,26.4531 C234.0156,26.3281 233.875,26.2969 233.4219,26.2969 L231.7031,26.2969 L231.7031,19.7813 Z " fill="#000000"/><text fill="#000000" font-family="sans-serif" font-size="14" font-style="italic" lengthAdjust="spacing" textLength="94" x="251.25" y="27.8467">ScoreService</text><line style="stroke:#181818;stroke-width:0.5;" x1="8" x2="556" y1="39" y2="39"/><line style="stroke:#181818;stroke-width:0.5;" x1="8" x2="556" y1="47" y2="47"/><text fill="#000000" font-family="sans-serif" font-size="14" lengthAdjust="spacing" textLength="538" x="13" y="63.9951">add(picture: ScoreDto, user: UserDto, place: PlaceDto): Promise&lt;boolean&gt;</text><text fill="#000000" font-family="sans-serif" font-size="14" lengthAdjust="spacing" textLength="263" x="13" y="80.292">findById(id: string): Promise&lt;Score&gt;</text><text fill="#000000" font-family="sans-serif" font-size="14" lengthAdjust="spacing" textLength="324" x="13" y="96.5889">findByUser(user: UserDto): Promise&lt;Score[]&gt;</text><text fill="#000000" font-family="sans-serif" font-size="14" lengthAdjust="spacing" textLength="338" x="13" y="112.8857">findByPlace(user: PlaceDto): Promise&lt;Score[]&gt;</text></g><!--class PlaceService--><g id="elem_PlaceService"><rect codeLine="9" fill="#F1F1F1" height="113.1875" id="PlaceService" rx="2.5" ry="2.5" style="stroke:#181818;stroke-width:0.5;" width="579" x="592.5" y="7"/><ellipse cx="832.25" cy="23" fill="#B4A7E5" rx="11" ry="11" style="stroke:#181818;stroke-width:1.0;"/><path d="M833.2031,19.7813 L834.9219,19.7813 C835.3125,19.7813 835.5,19.75 835.625,19.6719 C835.8906,19.5156 836.0313,19.2344 836.0313,18.9375 C836.0313,18.6719 835.9219,18.4063 835.6875,18.2344 C835.5156,18.125 835.375,18.0938 834.9219,18.0938 L829.7813,18.0938 C829.3438,18.0938 829.2188,18.1094 829.0625,18.2031 C828.8125,18.3594 828.6563,18.6563 828.6563,18.9375 C828.6563,19.2188 828.7969,19.4688 829.0156,19.6406 C829.1719,19.75 829.3594,19.7813 829.7813,19.7813 L831.5,19.7813 L831.5,26.2969 L829.7813,26.2969 C829.3438,26.2969 829.2188,26.3125 829.0625,26.4219 C828.8125,26.5781 828.6563,26.8594 828.6563,27.1563 C828.6563,27.4063 828.7969,27.6719 829.0156,27.8281 C829.1719,27.9531 829.375,28 829.7813,28 L834.9219,28 C835.6719,28 836.0313,27.7188 836.0313,27.1563 C836.0313,26.875 835.9219,26.625 835.6875,26.4531 C835.5156,26.3281 835.375,26.2969 834.9219,26.2969 L833.2031,26.2969 L833.2031,19.7813 Z " fill="#000000"/><text fill="#000000" font-family="sans-serif" font-size="14" font-style="italic" lengthAdjust="spacing" textLength="91" x="852.75" y="27.8467">PlaceService</text><line style="stroke:#181818;stroke-width:0.5;" x1="593.5" x2="1170.5" y1="39" y2="39"/><line style="stroke:#181818;stroke-width:0.5;" x1="593.5" x2="1170.5" y1="47" y2="47"/><text fill="#000000" font-family="sans-serif" font-size="14" lengthAdjust="spacing" textLength="332" x="598.5" y="63.9951">getAllPlaces(user: UserDto): Promise&lt;Place[]&gt;</text><text fill="#000000" font-family="sans-serif" font-size="14" lengthAdjust="spacing" textLength="567" x="598.5" y="80.292">getPlacesByVisibility(user: UserDto, visibilty: PlaceVisibility): Promise&lt;Place[]&gt;</text><text fill="#000000" font-family="sans-serif" font-size="14" lengthAdjust="spacing" textLength="401" x="598.5" y="96.5889">add(place: PlaceDto, user: UserDto): Promise&lt;boolean&gt;</text><text fill="#000000" font-family="sans-serif" font-size="14" lengthAdjust="spacing" textLength="260" x="598.5" y="112.8857">findById(id: string): Promise&lt;Place&gt;</text></g><!--class PictureService--><g id="elem_PictureService"><rect codeLine="17" fill="#F1F1F1" height="113.1875" id="PictureService" rx="2.5" ry="2.5" style="stroke:#181818;stroke-width:0.5;" width="560" x="1207" y="7"/><ellipse cx="1431.75" cy="23" fill="#B4A7E5" rx="11" ry="11" style="stroke:#181818;stroke-width:1.0;"/><path d="M1432.7031,19.7813 L1434.4219,19.7813 C1434.8125,19.7813 1435,19.75 1435.125,19.6719 C1435.3906,19.5156 1435.5313,19.2344 1435.5313,18.9375 C1435.5313,18.6719 1435.4219,18.4063 1435.1875,18.2344 C1435.0156,18.125 1434.875,18.0938 1434.4219,18.0938 L1429.2813,18.0938 C1428.8438,18.0938 1428.7188,18.1094 1428.5625,18.2031 C1428.3125,18.3594 1428.1563,18.6563 1428.1563,18.9375 C1428.1563,19.2188 1428.2969,19.4688 1428.5156,19.6406 C1428.6719,19.75 1428.8594,19.7813 1429.2813,19.7813 L1431,19.7813 L1431,26.2969 L1429.2813,26.2969 C1428.8438,26.2969 1428.7188,26.3125 1428.5625,26.4219 C1428.3125,26.5781 1428.1563,26.8594 1428.1563,27.1563 C1428.1563,27.4063 1428.2969,27.6719 1428.5156,27.8281 C1428.6719,27.9531 1428.875,28 1429.2813,28 L1434.4219,28 C1435.1719,28 1435.5313,27.7188 1435.5313,27.1563 C1435.5313,26.875 1435.4219,26.625 1435.1875,26.4531 C1435.0156,26.3281 1434.875,26.2969 1434.4219,26.2969 L1432.7031,26.2969 L1432.7031,19.7813 Z " fill="#000000"/><text fill="#000000" font-family="sans-serif" font-size="14" font-style="italic" lengthAdjust="spacing" textLength="102" x="1452.25" y="27.8467">PictureService</text><line style="stroke:#181818;stroke-width:0.5;" x1="1208" x2="1766" y1="39" y2="39"/><line style="stroke:#181818;stroke-width:0.5;" x1="1208" x2="1766" y1="47" y2="47"/><text fill="#000000" font-family="sans-serif" font-size="14" lengthAdjust="spacing" textLength="548" x="1213" y="63.9951">add(picture: PictureDto, user: UserDto, place: PlaceDto): Promise&lt;boolean&gt;</text><text fill="#000000" font-family="sans-serif" font-size="14" lengthAdjust="spacing" textLength="273" x="1213" y="80.292">findById(id: string): Promise&lt;Picture&gt;</text><text fill="#000000" font-family="sans-serif" font-size="14" lengthAdjust="spacing" textLength="334" x="1213" y="96.5889">findByUser(user: UserDto): Promise&lt;Picture[]&gt;</text><text fill="#000000" font-family="sans-serif" font-size="14" lengthAdjust="spacing" textLength="357" x="1213" y="112.8857">findByPlace(place: PlaceDto): Promise&lt;Picture[]&gt;</text></g><!--class CommentService--><g id="elem_CommentService"><rect codeLine="25" fill="#F1F1F1" height="113.1875" id="CommentService" rx="2.5" ry="2.5" style="stroke:#181818;stroke-width:0.5;" width="599" x="1802.5" y="7"/><ellipse cx="2036.25" cy="23" fill="#B4A7E5" rx="11" ry="11" style="stroke:#181818;stroke-width:1.0;"/><path d="M2037.2031,19.7813 L2038.9219,19.7813 C2039.3125,19.7813 2039.5,19.75 2039.625,19.6719 C2039.8906,19.5156 2040.0313,19.2344 2040.0313,18.9375 C2040.0313,18.6719 2039.9219,18.4063 2039.6875,18.2344 C2039.5156,18.125 2039.375,18.0938 2038.9219,18.0938 L2033.7813,18.0938 C2033.3438,18.0938 2033.2188,18.1094 2033.0625,18.2031 C2032.8125,18.3594 2032.6563,18.6563 2032.6563,18.9375 C2032.6563,19.2188 2032.7969,19.4688 2033.0156,19.6406 C2033.1719,19.75 2033.3594,19.7813 2033.7813,19.7813 L2035.5,19.7813 L2035.5,26.2969 L2033.7813,26.2969 C2033.3438,26.2969 2033.2188,26.3125 2033.0625,26.4219 C2032.8125,26.5781 2032.6563,26.8594 2032.6563,27.1563 C2032.6563,27.4063 2032.7969,27.6719 2033.0156,27.8281 C2033.1719,27.9531 2033.375,28 2033.7813,28 L2038.9219,28 C2039.6719,28 2040.0313,27.7188 2040.0313,27.1563 C2040.0313,26.875 2039.9219,26.625 2039.6875,26.4531 C2039.5156,26.3281 2039.375,26.2969 2038.9219,26.2969 L2037.2031,26.2969 L2037.2031,19.7813 Z " fill="#000000"/><text fill="#000000" font-family="sans-serif" font-size="14" font-style="italic" lengthAdjust="spacing" textLength="123" x="2056.75" y="27.8467">CommentService</text><line style="stroke:#181818;stroke-width:0.5;" x1="1803.5" x2="2400.5" y1="39" y2="39"/><line style="stroke:#181818;stroke-width:0.5;" x1="1803.5" x2="2400.5" y1="47" y2="47"/><text fill="#000000" font-family="sans-serif" font-size="14" lengthAdjust="spacing" textLength="587" x="1808.5" y="63.9951">add(comment: CommentDto, user: UserDto, place: PlaceDto): Promise&lt;boolean&gt;</text><text fill="#000000" font-family="sans-serif" font-size="14" lengthAdjust="spacing" textLength="294" x="1808.5" y="80.292">findById(id: string): Promise&lt;Comment&gt;</text><text fill="#000000" font-family="sans-serif" font-size="14" lengthAdjust="spacing" textLength="355" x="1808.5" y="96.5889">findByUser(user: UserDto): Promise&lt;Comment[]&gt;</text><text fill="#000000" font-family="sans-serif" font-size="14" lengthAdjust="spacing" textLength="369" x="1808.5" y="112.8857">findByPlace(user: PlaceDto): Promise&lt;Comment[]&gt;</text></g><!--class ScoreServiceImpl--><g id="elem_ScoreServiceImpl"><rect codeLine="33" fill="#F1F1F1" height="48" id="ScoreServiceImpl" rx="2.5" ry="2.5" style="stroke:#181818;stroke-width:0.5;" width="158" x="203" y="180"/><ellipse cx="218" cy="196" fill="#ADD1B2" rx="11" ry="11" style="stroke:#181818;stroke-width:1.0;"/><path d="M220.3438,191.6719 C219.4063,191.2344 218.8125,191.0938 217.9375,191.0938 C215.3125,191.0938 213.3125,193.1719 213.3125,195.8906 L213.3125,197.0156 C213.3125,199.5938 215.4219,201.4844 218.3125,201.4844 C219.5313,201.4844 220.6875,201.1875 221.4375,200.6406 C222.0156,200.2344 222.3438,199.7813 222.3438,199.3906 C222.3438,198.9375 221.9531,198.5469 221.4844,198.5469 C221.2656,198.5469 221.0625,198.625 220.875,198.8125 C220.4219,199.2969 220.4219,199.2969 220.2344,199.3906 C219.8125,199.6563 219.125,199.7813 218.3594,199.7813 C216.3125,199.7813 215.0156,198.6875 215.0156,196.9844 L215.0156,195.8906 C215.0156,194.1094 216.2656,192.7969 218,192.7969 C218.5781,192.7969 219.1875,192.9531 219.6563,193.2031 C220.1406,193.4844 220.3125,193.7031 220.4063,194.1094 C220.4688,194.5156 220.5,194.6406 220.6406,194.7656 C220.7813,194.9063 221.0156,195.0156 221.2344,195.0156 C221.5,195.0156 221.7656,194.875 221.9375,194.6563 C222.0469,194.5 222.0781,194.3125 222.0781,193.8906 L222.0781,192.4688 C222.0781,192.0313 222.0625,191.9063 221.9688,191.75 C221.8125,191.4844 221.5313,191.3438 221.2344,191.3438 C220.9375,191.3438 220.7344,191.4375 220.5156,191.75 L220.3438,191.6719 Z " fill="#000000"/><text fill="#000000" font-family="sans-serif" font-size="14" lengthAdjust="spacing" textLength="126" x="232" y="200.8467">ScoreServiceImpl</text><line style="stroke:#181818;stroke-width:0.5;" x1="204" x2="360" y1="212" y2="212"/><line style="stroke:#181818;stroke-width:0.5;" x1="204" x2="360" y1="220" y2="220"/></g><!--class PlaceServiceImpl--><g id="elem_PlaceServiceImpl"><rect codeLine="34" fill="#F1F1F1" height="48" id="PlaceServiceImpl" rx="2.5" ry="2.5" style="stroke:#181818;stroke-width:0.5;" width="155" x="804.5" y="180"/><ellipse cx="819.5" cy="196" fill="#ADD1B2" rx="11" ry="11" style="stroke:#181818;stroke-width:1.0;"/><path d="M821.8438,191.6719 C820.9063,191.2344 820.3125,191.0938 819.4375,191.0938 C816.8125,191.0938 814.8125,193.1719 814.8125,195.8906 L814.8125,197.0156 C814.8125,199.5938 816.9219,201.4844 819.8125,201.4844 C821.0313,201.4844 822.1875,201.1875 822.9375,200.6406 C823.5156,200.2344 823.8438,199.7813 823.8438,199.3906 C823.8438,198.9375 823.4531,198.5469 822.9844,198.5469 C822.7656,198.5469 822.5625,198.625 822.375,198.8125 C821.9219,199.2969 821.9219,199.2969 821.7344,199.3906 C821.3125,199.6563 820.625,199.7813 819.8594,199.7813 C817.8125,199.7813 816.5156,198.6875 816.5156,196.9844 L816.5156,195.8906 C816.5156,194.1094 817.7656,192.7969 819.5,192.7969 C820.0781,192.7969 820.6875,192.9531 821.1563,193.2031 C821.6406,193.4844 821.8125,193.7031 821.9063,194.1094 C821.9688,194.5156 822,194.6406 822.1406,194.7656 C822.2813,194.9063 822.5156,195.0156 822.7344,195.0156 C823,195.0156 823.2656,194.875 823.4375,194.6563 C823.5469,194.5 823.5781,194.3125 823.5781,193.8906 L823.5781,192.4688 C823.5781,192.0313 823.5625,191.9063 823.4688,191.75 C823.3125,191.4844 823.0313,191.3438 822.7344,191.3438 C822.4375,191.3438 822.2344,191.4375 822.0156,191.75 L821.8438,191.6719 Z " fill="#000000"/><text fill="#000000" font-family="sans-serif" font-size="14" lengthAdjust="spacing" textLength="123" x="833.5" y="200.8467">PlaceServiceImpl</text><line style="stroke:#181818;stroke-width:0.5;" x1="805.5" x2="958.5" y1="212" y2="212"/><line style="stroke:#181818;stroke-width:0.5;" x1="805.5" x2="958.5" y1="220" y2="220"/></g><!--class PictureServiceImpl--><g id="elem_PictureServiceImpl"><rect codeLine="35" fill="#F1F1F1" height="48" id="PictureServiceImpl" rx="2.5" ry="2.5" style="stroke:#181818;stroke-width:0.5;" width="168" x="1403" y="180"/><ellipse cx="1418" cy="196" fill="#ADD1B2" rx="11" ry="11" style="stroke:#181818;stroke-width:1.0;"/><path d="M1420.3438,191.6719 C1419.4063,191.2344 1418.8125,191.0938 1417.9375,191.0938 C1415.3125,191.0938 1413.3125,193.1719 1413.3125,195.8906 L1413.3125,197.0156 C1413.3125,199.5938 1415.4219,201.4844 1418.3125,201.4844 C1419.5313,201.4844 1420.6875,201.1875 1421.4375,200.6406 C1422.0156,200.2344 1422.3438,199.7813 1422.3438,199.3906 C1422.3438,198.9375 1421.9531,198.5469 1421.4844,198.5469 C1421.2656,198.5469 1421.0625,198.625 1420.875,198.8125 C1420.4219,199.2969 1420.4219,199.2969 1420.2344,199.3906 C1419.8125,199.6563 1419.125,199.7813 1418.3594,199.7813 C1416.3125,199.7813 1415.0156,198.6875 1415.0156,196.9844 L1415.0156,195.8906 C1415.0156,194.1094 1416.2656,192.7969 1418,192.7969 C1418.5781,192.7969 1419.1875,192.9531 1419.6563,193.2031 C1420.1406,193.4844 1420.3125,193.7031 1420.4063,194.1094 C1420.4688,194.5156 1420.5,194.6406 1420.6406,194.7656 C1420.7813,194.9063 1421.0156,195.0156 1421.2344,195.0156 C1421.5,195.0156 1421.7656,194.875 1421.9375,194.6563 C1422.0469,194.5 1422.0781,194.3125 1422.0781,193.8906 L1422.0781,192.4688 C1422.0781,192.0313 1422.0625,191.9063 1421.9688,191.75 C1421.8125,191.4844 1421.5313,191.3438 1421.2344,191.3438 C1420.9375,191.3438 1420.7344,191.4375 1420.5156,191.75 L1420.3438,191.6719 Z " fill="#000000"/><text fill="#000000" font-family="sans-serif" font-size="14" lengthAdjust="spacing" textLength="136" x="1432" y="200.8467">PictureServiceImpl</text><line style="stroke:#181818;stroke-width:0.5;" x1="1404" x2="1570" y1="212" y2="212"/><line style="stroke:#181818;stroke-width:0.5;" x1="1404" x2="1570" y1="220" y2="220"/></g><!--class CommentServiceImpl--><g id="elem_CommentServiceImpl"><rect codeLine="36" fill="#F1F1F1" height="48" id="CommentServiceImpl" rx="2.5" ry="2.5" style="stroke:#181818;stroke-width:0.5;" width="189" x="2007.5" y="180"/><ellipse cx="2022.5" cy="196" fill="#ADD1B2" rx="11" ry="11" style="stroke:#181818;stroke-width:1.0;"/><path d="M2024.8438,191.6719 C2023.9063,191.2344 2023.3125,191.0938 2022.4375,191.0938 C2019.8125,191.0938 2017.8125,193.1719 2017.8125,195.8906 L2017.8125,197.0156 C2017.8125,199.5938 2019.9219,201.4844 2022.8125,201.4844 C2024.0313,201.4844 2025.1875,201.1875 2025.9375,200.6406 C2026.5156,200.2344 2026.8438,199.7813 2026.8438,199.3906 C2026.8438,198.9375 2026.4531,198.5469 2025.9844,198.5469 C2025.7656,198.5469 2025.5625,198.625 2025.375,198.8125 C2024.9219,199.2969 2024.9219,199.2969 2024.7344,199.3906 C2024.3125,199.6563 2023.625,199.7813 2022.8594,199.7813 C2020.8125,199.7813 2019.5156,198.6875 2019.5156,196.9844 L2019.5156,195.8906 C2019.5156,194.1094 2020.7656,192.7969 2022.5,192.7969 C2023.0781,192.7969 2023.6875,192.9531 2024.1563,193.2031 C2024.6406,193.4844 2024.8125,193.7031 2024.9063,194.1094 C2024.9688,194.5156 2025,194.6406 2025.1406,194.7656 C2025.2813,194.9063 2025.5156,195.0156 2025.7344,195.0156 C2026,195.0156 2026.2656,194.875 2026.4375,194.6563 C2026.5469,194.5 2026.5781,194.3125 2026.5781,193.8906 L2026.5781,192.4688 C2026.5781,192.0313 2026.5625,191.9063 2026.4688,191.75 C2026.3125,191.4844 2026.0313,191.3438 2025.7344,191.3438 C2025.4375,191.3438 2025.2344,191.4375 2025.0156,191.75 L2024.8438,191.6719 Z " fill="#000000"/><text fill="#000000" font-family="sans-serif" font-size="14" lengthAdjust="spacing" textLength="157" x="2036.5" y="200.8467">CommentServiceImpl</text><line style="stroke:#181818;stroke-width:0.5;" x1="2008.5" x2="2195.5" y1="212" y2="212"/><line style="stroke:#181818;stroke-width:0.5;" x1="2008.5" x2="2195.5" y1="220" y2="220"/></g><!--reverse link CommentService to CommentServiceImpl--><g id="link_CommentService_CommentServiceImpl"><path codeLine="38" d="M2102,140.4102 C2102,154.826 2102,168.8532 2102,179.9619 " fill="none" id="CommentService-backto-CommentServiceImpl" style="stroke:#181818;stroke-width:1.0;"/><polygon fill="none" points="2095,140.0353,2102,120.035,2109,140.0352,2095,140.0353" style="stroke:#181818;stroke-width:1.0;"/></g><!--reverse link PictureService to PictureServiceImpl--><g id="link_PictureService_PictureServiceImpl"><path codeLine="39" d="M1487,140.4102 C1487,154.826 1487,168.8532 1487,179.9619 " fill="none" id="PictureService-backto-PictureServiceImpl" style="stroke:#181818;stroke-width:1.0;"/><polygon fill="none" points="1480,140.0353,1487,120.035,1494,140.0352,1480,140.0353" style="stroke:#181818;stroke-width:1.0;"/></g><!--reverse link PlaceService to PlaceServiceImpl--><g id="link_PlaceService_PlaceServiceImpl"><path codeLine="40" d="M882,140.4102 C882,154.826 882,168.8532 882,179.9619 " fill="none" id="PlaceService-backto-PlaceServiceImpl" style="stroke:#181818;stroke-width:1.0;"/><polygon fill="none" points="875,140.0353,882,120.035,889,140.0352,875,140.0353" style="stroke:#181818;stroke-width:1.0;"/></g><!--reverse link ScoreService to ScoreServiceImpl--><g id="link_ScoreService_ScoreServiceImpl"><path codeLine="41" d="M282,140.4102 C282,154.826 282,168.8532 282,179.9619 " fill="none" id="ScoreService-backto-ScoreServiceImpl" style="stroke:#181818;stroke-width:1.0;"/><polygon fill="none" points="275,140.0353,282,120.035,289,140.0352,275,140.0353" style="stroke:#181818;stroke-width:1.0;"/></g><!--SRC=[jPJ1RiCW38RlF0N7L5fV05MLrktIswIgkqmxf40hIoH4G2j5szvzrD0E49cwISqX2VYpyU_OWTv9is-vf1kkZTn8SmA_-224-giLeXc0kwEHB03FJZ_GevM6qQs_ut9Gtf_Hb_F3Rypygz4TMBdOQQrasoyns1vwiHhNeW71g7K6-aE2OlGKF8TlifDA-kqzvV7uw519vUhnHGXSHIDOY3v8zwWKMkna0cY-9E0z0huQNy723XIuiIcgT0eMDyRqViYfi5ZzlBP5xVzNQWnM5Y9yvT- -VqJkrW4n_iqz4FbQ5qpdapXb-fzqrydULVJpO64Nv6xwO_oRzKV-JrEG-7ZvNBNMPeE_xWOLjzFHIBUpHaaCUGNHG8ggBZxdObu3Y-uBNEMaR5mZLQQP_SS2Kohy1W00]--></g></svg>