<?xml version="1.0" encoding="us-ascii" standalone="no"?><svg xmlns="http://www.w3.org/2000/svg" xmlns:xlink="http://www.w3.org/1999/xlink" contentStyleType="text/css" height="397px" preserveAspectRatio="none" style="width:963px;height:397px;background:#FFFFFF;" version="1.1" viewBox="0 0 963 397" width="963px" zoomAndPan="magnify"><defs/><g><!--class PlaceController--><g id="elem_PlaceController"><rect codeLine="1" fill="#F1F1F1" height="178.375" id="PlaceController" rx="2.5" ry="2.5" style="stroke:#181818;stroke-width:0.5;" width="484" x="7" y="7"/><ellipse cx="189.25" cy="23" fill="#ADD1B2" rx="11" ry="11" style="stroke:#181818;stroke-width:1.0;"/><path d="M191.5938,18.6719 C190.6563,18.2344 190.0625,18.0938 189.1875,18.0938 C186.5625,18.0938 184.5625,20.1719 184.5625,22.8906 L184.5625,24.0156 C184.5625,26.5938 186.6719,28.4844 189.5625,28.4844 C190.7813,28.4844 191.9375,28.1875 192.6875,27.6406 C193.2656,27.2344 193.5938,26.7813 193.5938,26.3906 C193.5938,25.9375 193.2031,25.5469 192.7344,25.5469 C192.5156,25.5469 192.3125,25.625 192.125,25.8125 C191.6719,26.2969 191.6719,26.2969 191.4844,26.3906 C191.0625,26.6563 190.375,26.7813 189.6094,26.7813 C187.5625,26.7813 186.2656,25.6875 186.2656,23.9844 L186.2656,22.8906 C186.2656,21.1094 187.5156,19.7969 189.25,19.7969 C189.8281,19.7969 190.4375,19.9531 190.9063,20.2031 C191.3906,20.4844 191.5625,20.7031 191.6563,21.1094 C191.7188,21.5156 191.75,21.6406 191.8906,21.7656 C192.0313,21.9063 192.2656,22.0156 192.4844,22.0156 C192.75,22.0156 193.0156,21.875 193.1875,21.6563 C193.2969,21.5 193.3281,21.3125 193.3281,20.8906 L193.3281,19.4688 C193.3281,19.0313 193.3125,18.9063 193.2188,18.75 C193.0625,18.4844 192.7813,18.3438 192.4844,18.3438 C192.1875,18.3438 191.9844,18.4375 191.7656,18.75 L191.5938,18.6719 Z " fill="#000000"/><text fill="#000000" font-family="sans-serif" font-size="14" lengthAdjust="spacing" textLength="111" x="209.75" y="27.8467">PlaceController</text><line style="stroke:#181818;stroke-width:0.5;" x1="8" x2="490" y1="39" y2="39"/><line style="stroke:#181818;stroke-width:0.5;" x1="8" x2="490" y1="47" y2="47"/><text fill="#000000" font-family="sans-serif" font-size="14" lengthAdjust="spacing" textLength="396" x="13" y="63.9951">add(req: Request, res: Response): Promise&lt;Response&gt;</text><text fill="#000000" font-family="sans-serif" font-size="14" lengthAdjust="spacing" textLength="219" x="13" y="80.292">addChecks(): ValidationChain[]</text><text fill="#000000" font-family="sans-serif" font-size="14" lengthAdjust="spacing" textLength="392" x="13" y="96.5889">list(req: Request, res: Response): Promise&lt;Response&gt;</text><text fill="#000000" font-family="sans-serif" font-size="14" lengthAdjust="spacing" textLength="215" x="13" y="112.8857">listChecks(): ValidationChain[]</text><text fill="#000000" font-family="sans-serif" font-size="14" lengthAdjust="spacing" textLength="472" x="13" y="129.1826">listByVisibility(req: Request, res: Response): Promise&lt;Response&gt;</text><text fill="#000000" font-family="sans-serif" font-size="14" lengthAdjust="spacing" textLength="295" x="13" y="145.4795">listByVisibilityChecks(): ValidationChain[]</text><text fill="#000000" font-family="sans-serif" font-size="14" lengthAdjust="spacing" textLength="418" x="13" y="161.7764">details(req: Request, res: Response): Promise&lt;Response&gt;</text><text fill="#000000" font-family="sans-serif" font-size="14" lengthAdjust="spacing" textLength="241" x="13" y="178.0732">detailsChecks(): ValidationChain[]</text></g><!--class PictureController--><g id="elem_PictureController"><rect codeLine="12" fill="#F1F1F1" height="145.7813" id="PictureController" rx="2.5" ry="2.5" style="stroke:#181818;stroke-width:0.5;" width="430" x="526" y="23"/><ellipse cx="674.75" cy="39" fill="#ADD1B2" rx="11" ry="11" style="stroke:#181818;stroke-width:1.0;"/><path d="M677.0938,34.6719 C676.1563,34.2344 675.5625,34.0938 674.6875,34.0938 C672.0625,34.0938 670.0625,36.1719 670.0625,38.8906 L670.0625,40.0156 C670.0625,42.5938 672.1719,44.4844 675.0625,44.4844 C676.2813,44.4844 677.4375,44.1875 678.1875,43.6406 C678.7656,43.2344 679.0938,42.7813 679.0938,42.3906 C679.0938,41.9375 678.7031,41.5469 678.2344,41.5469 C678.0156,41.5469 677.8125,41.625 677.625,41.8125 C677.1719,42.2969 677.1719,42.2969 676.9844,42.3906 C676.5625,42.6563 675.875,42.7813 675.1094,42.7813 C673.0625,42.7813 671.7656,41.6875 671.7656,39.9844 L671.7656,38.8906 C671.7656,37.1094 673.0156,35.7969 674.75,35.7969 C675.3281,35.7969 675.9375,35.9531 676.4063,36.2031 C676.8906,36.4844 677.0625,36.7031 677.1563,37.1094 C677.2188,37.5156 677.25,37.6406 677.3906,37.7656 C677.5313,37.9063 677.7656,38.0156 677.9844,38.0156 C678.25,38.0156 678.5156,37.875 678.6875,37.6563 C678.7969,37.5 678.8281,37.3125 678.8281,36.8906 L678.8281,35.4688 C678.8281,35.0313 678.8125,34.9063 678.7188,34.75 C678.5625,34.4844 678.2813,34.3438 677.9844,34.3438 C677.6875,34.3438 677.4844,34.4375 677.2656,34.75 L677.0938,34.6719 Z " fill="#000000"/><text fill="#000000" font-family="sans-serif" font-size="14" lengthAdjust="spacing" textLength="124" x="695.25" y="43.8467">PictureController</text><line style="stroke:#181818;stroke-width:0.5;" x1="527" x2="955" y1="55" y2="55"/><line style="stroke:#181818;stroke-width:0.5;" x1="527" x2="955" y1="63" y2="63"/><text fill="#000000" font-family="sans-serif" font-size="14" lengthAdjust="spacing" textLength="396" x="532" y="79.9951">add(req: Request, res: Response): Promise&lt;Response&gt;</text><text fill="#000000" font-family="sans-serif" font-size="14" lengthAdjust="spacing" textLength="219" x="532" y="96.292">addChecks(): ValidationChain[]</text><text fill="#000000" font-family="sans-serif" font-size="14" lengthAdjust="spacing" textLength="392" x="532" y="112.5889">list(req: Request, res: Response): Promise&lt;Response&gt;</text><text fill="#000000" font-family="sans-serif" font-size="14" lengthAdjust="spacing" textLength="215" x="532" y="128.8857">listChecks(): ValidationChain[]</text><text fill="#000000" font-family="sans-serif" font-size="14" lengthAdjust="spacing" textLength="418" x="532" y="145.1826">details(req: Request, res: Response): Promise&lt;Response&gt;</text><text fill="#000000" font-family="sans-serif" font-size="14" lengthAdjust="spacing" textLength="241" x="532" y="161.4795">detailsChecks(): ValidationChain[]</text></g><!--class ScoreController--><g id="elem_ScoreController"><rect codeLine="21" fill="#F1F1F1" height="145.7813" id="ScoreController" rx="2.5" ry="2.5" style="stroke:#181818;stroke-width:0.5;" width="430" x="34" y="245"/><ellipse cx="187.75" cy="261" fill="#ADD1B2" rx="11" ry="11" style="stroke:#181818;stroke-width:1.0;"/><path d="M190.0938,256.6719 C189.1563,256.2344 188.5625,256.0938 187.6875,256.0938 C185.0625,256.0938 183.0625,258.1719 183.0625,260.8906 L183.0625,262.0156 C183.0625,264.5938 185.1719,266.4844 188.0625,266.4844 C189.2813,266.4844 190.4375,266.1875 191.1875,265.6406 C191.7656,265.2344 192.0938,264.7813 192.0938,264.3906 C192.0938,263.9375 191.7031,263.5469 191.2344,263.5469 C191.0156,263.5469 190.8125,263.625 190.625,263.8125 C190.1719,264.2969 190.1719,264.2969 189.9844,264.3906 C189.5625,264.6563 188.875,264.7813 188.1094,264.7813 C186.0625,264.7813 184.7656,263.6875 184.7656,261.9844 L184.7656,260.8906 C184.7656,259.1094 186.0156,257.7969 187.75,257.7969 C188.3281,257.7969 188.9375,257.9531 189.4063,258.2031 C189.8906,258.4844 190.0625,258.7031 190.1563,259.1094 C190.2188,259.5156 190.25,259.6406 190.3906,259.7656 C190.5313,259.9063 190.7656,260.0156 190.9844,260.0156 C191.25,260.0156 191.5156,259.875 191.6875,259.6563 C191.7969,259.5 191.8281,259.3125 191.8281,258.8906 L191.8281,257.4688 C191.8281,257.0313 191.8125,256.9063 191.7188,256.75 C191.5625,256.4844 191.2813,256.3438 190.9844,256.3438 C190.6875,256.3438 190.4844,256.4375 190.2656,256.75 L190.0938,256.6719 Z " fill="#000000"/><text fill="#000000" font-family="sans-serif" font-size="14" lengthAdjust="spacing" textLength="114" x="208.25" y="265.8467">ScoreController</text><line style="stroke:#181818;stroke-width:0.5;" x1="35" x2="463" y1="277" y2="277"/><line style="stroke:#181818;stroke-width:0.5;" x1="35" x2="463" y1="285" y2="285"/><text fill="#000000" font-family="sans-serif" font-size="14" lengthAdjust="spacing" textLength="396" x="40" y="301.9951">add(req: Request, res: Response): Promise&lt;Response&gt;</text><text fill="#000000" font-family="sans-serif" font-size="14" lengthAdjust="spacing" textLength="219" x="40" y="318.292">addChecks(): ValidationChain[]</text><text fill="#000000" font-family="sans-serif" font-size="14" lengthAdjust="spacing" textLength="392" x="40" y="334.5889">list(req: Request, res: Response): Promise&lt;Response&gt;</text><text fill="#000000" font-family="sans-serif" font-size="14" lengthAdjust="spacing" textLength="215" x="40" y="350.8857">listChecks(): ValidationChain[]</text><text fill="#000000" font-family="sans-serif" font-size="14" lengthAdjust="spacing" textLength="418" x="40" y="367.1826">details(req: Request, res: Response): Promise&lt;Response&gt;</text><text fill="#000000" font-family="sans-serif" font-size="14" lengthAdjust="spacing" textLength="241" x="40" y="383.4795">detailsChecks(): ValidationChain[]</text></g><!--class CommentController--><g id="elem_CommentController"><rect codeLine="30" fill="#F1F1F1" height="145.7813" id="CommentController" rx="2.5" ry="2.5" style="stroke:#181818;stroke-width:0.5;" width="430" x="499" y="245"/><ellipse cx="637.25" cy="261" fill="#ADD1B2" rx="11" ry="11" style="stroke:#181818;stroke-width:1.0;"/><path d="M639.5938,256.6719 C638.6563,256.2344 638.0625,256.0938 637.1875,256.0938 C634.5625,256.0938 632.5625,258.1719 632.5625,260.8906 L632.5625,262.0156 C632.5625,264.5938 634.6719,266.4844 637.5625,266.4844 C638.7813,266.4844 639.9375,266.1875 640.6875,265.6406 C641.2656,265.2344 641.5938,264.7813 641.5938,264.3906 C641.5938,263.9375 641.2031,263.5469 640.7344,263.5469 C640.5156,263.5469 640.3125,263.625 640.125,263.8125 C639.6719,264.2969 639.6719,264.2969 639.4844,264.3906 C639.0625,264.6563 638.375,264.7813 637.6094,264.7813 C635.5625,264.7813 634.2656,263.6875 634.2656,261.9844 L634.2656,260.8906 C634.2656,259.1094 635.5156,257.7969 637.25,257.7969 C637.8281,257.7969 638.4375,257.9531 638.9063,258.2031 C639.3906,258.4844 639.5625,258.7031 639.6563,259.1094 C639.7188,259.5156 639.75,259.6406 639.8906,259.7656 C640.0313,259.9063 640.2656,260.0156 640.4844,260.0156 C640.75,260.0156 641.0156,259.875 641.1875,259.6563 C641.2969,259.5 641.3281,259.3125 641.3281,258.8906 L641.3281,257.4688 C641.3281,257.0313 641.3125,256.9063 641.2188,256.75 C641.0625,256.4844 640.7813,256.3438 640.4844,256.3438 C640.1875,256.3438 639.9844,256.4375 639.7656,256.75 L639.5938,256.6719 Z " fill="#000000"/><text fill="#000000" font-family="sans-serif" font-size="14" lengthAdjust="spacing" textLength="145" x="657.75" y="265.8467">CommentController</text><line style="stroke:#181818;stroke-width:0.5;" x1="500" x2="928" y1="277" y2="277"/><line style="stroke:#181818;stroke-width:0.5;" x1="500" x2="928" y1="285" y2="285"/><text fill="#000000" font-family="sans-serif" font-size="14" lengthAdjust="spacing" textLength="396" x="505" y="301.9951">add(req: Request, res: Response): Promise&lt;Response&gt;</text><text fill="#000000" font-family="sans-serif" font-size="14" lengthAdjust="spacing" textLength="219" x="505" y="318.292">addChecks(): ValidationChain[]</text><text fill="#000000" font-family="sans-serif" font-size="14" lengthAdjust="spacing" textLength="392" x="505" y="334.5889">list(req: Request, res: Response): Promise&lt;Response&gt;</text><text fill="#000000" font-family="sans-serif" font-size="14" lengthAdjust="spacing" textLength="215" x="505" y="350.8857">listChecks(): ValidationChain[]</text><text fill="#000000" font-family="sans-serif" font-size="14" lengthAdjust="spacing" textLength="418" x="505" y="367.1826">details(req: Request, res: Response): Promise&lt;Response&gt;</text><text fill="#000000" font-family="sans-serif" font-size="14" lengthAdjust="spacing" textLength="241" x="505" y="383.4795">detailsChecks(): ValidationChain[]</text></g><!--SRC=[xP6z2i8m4CVtFaN62Zv14GVp0aMXYpZ4vA27ryJchaCHtrrBLPpyoE0WlUsE_mVypf9XLYKP2pfuYO48uYbJmnZdyWXjeTRGTi0oLn5usFWOFCEiK6KC3J8ixgVbmwXhi0VEhvhA43eZ6Bok3VhjRjGGigIb3ywFubTzXOnx99G-lUevvMsj0p58dDPsCxygEMUP7J-6LhhuNp_x6RoD3HEwD7GwD0rucU1z0-y2]--></g></svg>