<?xml version="1.0" encoding="us-ascii" standalone="no"?><svg xmlns="http://www.w3.org/2000/svg" xmlns:xlink="http://www.w3.org/1999/xlink" contentStyleType="text/css" height="418px" preserveAspectRatio="none" style="width:492px;height:418px;background:#FFFFFF;" version="1.1" viewBox="0 0 492 418" width="492px" zoomAndPan="magnify"><defs/><g><!--cluster Azure Server--><g id="cluster_Azure Server"><path d="M155,6 L258,6 A3.75,3.75 0 0 1 260.5,8.5 L267.5,28.2969 L370,28.2969 A2.5,2.5 0 0 1 372.5,30.7969 L372.5,408.5 A2.5,2.5 0 0 1 370,411 L155,411 A2.5,2.5 0 0 1 152.5,408.5 L152.5,8.5 A2.5,2.5 0 0 1 155,6 " fill="none" style="stroke:#000000;stroke-width:1.5;"/><line style="stroke:#000000;stroke-width:1.5;" x1="152.5" x2="267.5" y1="28.2969" y2="28.2969"/><text fill="#000000" font-family="sans-serif" font-size="14" font-weight="bold" lengthAdjust="spacing" textLength="102" x="156.5" y="20.9951">Azure Server</text></g><!--cluster Docker Container 1--><g id="cluster_Docker Container 1"><path d="M179,49 L334,49 A3.75,3.75 0 0 1 336.5,51.5 L343.5,71.2969 L346,71.2969 A2.5,2.5 0 0 1 348.5,73.7969 L348.5,142.5 A2.5,2.5 0 0 1 346,145 L179,145 A2.5,2.5 0 0 1 176.5,142.5 L176.5,51.5 A2.5,2.5 0 0 1 179,49 " fill="none" style="stroke:#000000;stroke-width:1.5;"/><line style="stroke:#000000;stroke-width:1.5;" x1="176.5" x2="343.5" y1="71.2969" y2="71.2969"/><text fill="#000000" font-family="sans-serif" font-size="14" font-weight="bold" lengthAdjust="spacing" textLength="154" x="180.5" y="63.9951">Docker Container 1</text></g><!--cluster Docker Container 2--><g id="cluster_Docker Container 2"><path d="M180,169 L335,169 A3.75,3.75 0 0 1 337.5,171.5 L344.5,191.2969 L345,191.2969 A2.5,2.5 0 0 1 347.5,193.7969 L347.5,263.5 A2.5,2.5 0 0 1 345,266 L180,266 A2.5,2.5 0 0 1 177.5,263.5 L177.5,171.5 A2.5,2.5 0 0 1 180,169 " fill="none" style="stroke:#000000;stroke-width:1.5;"/><line style="stroke:#000000;stroke-width:1.5;" x1="177.5" x2="344.5" y1="191.2969" y2="191.2969"/><text fill="#000000" font-family="sans-serif" font-size="14" font-weight="bold" lengthAdjust="spacing" textLength="154" x="181.5" y="183.9951">Docker Container 2</text></g><!--cluster Docker Container 3--><g id="cluster_Docker Container 3"><path d="M180,290 L335,290 A3.75,3.75 0 0 1 337.5,292.5 L344.5,312.2969 L345,312.2969 A2.5,2.5 0 0 1 347.5,314.7969 L347.5,384.5 A2.5,2.5 0 0 1 345,387 L180,387 A2.5,2.5 0 0 1 177.5,384.5 L177.5,292.5 A2.5,2.5 0 0 1 180,290 " fill="none" style="stroke:#000000;stroke-width:1.5;"/><line style="stroke:#000000;stroke-width:1.5;" x1="177.5" x2="344.5" y1="312.2969" y2="312.2969"/><text fill="#000000" font-family="sans-serif" font-size="14" font-weight="bold" lengthAdjust="spacing" textLength="154" x="181.5" y="304.9951">Docker Container 3</text></g><!--entity Web Application--><g id="elem_Web Application"><path d="M192.5,94 C192.5,84 262.5,84 262.5,84 C262.5,84 332.5,84 332.5,94 L332.5,119.2969 C332.5,129.2969 262.5,129.2969 262.5,129.2969 C262.5,129.2969 192.5,129.2969 192.5,119.2969 L192.5,94 " fill="#F1F1F1" style="stroke:#181818;stroke-width:0.5;"/><path d="M192.5,94 C192.5,104 262.5,104 262.5,104 C262.5,104 332.5,104 332.5,94 " fill="none" style="stroke:#181818;stroke-width:0.5;"/><text fill="#000000" font-family="sans-serif" font-size="14" lengthAdjust="spacing" textLength="120" x="202.5" y="120.9951">Web Application</text></g><!--entity Rest API--><g id="elem_Rest API"><rect fill="#F1F1F1" height="46.2969" rx="2.5" ry="2.5" style="stroke:#181818;stroke-width:0.5;" width="100" x="220.5" y="204"/><rect fill="#F1F1F1" height="10" style="stroke:#181818;stroke-width:0.5;" width="15" x="300.5" y="209"/><rect fill="#F1F1F1" height="2" style="stroke:#181818;stroke-width:0.5;" width="4" x="298.5" y="211"/><rect fill="#F1F1F1" height="2" style="stroke:#181818;stroke-width:0.5;" width="4" x="298.5" y="215"/><text fill="#000000" font-family="sans-serif" font-size="14" lengthAdjust="spacing" textLength="60" x="235.5" y="236.9951">Rest API</text></g><!--entity Database--><g id="elem_Database"><rect fill="#F1F1F1" height="46.2969" rx="2.5" ry="2.5" style="stroke:#181818;stroke-width:0.5;" width="108" x="216.5" y="325"/><rect fill="#F1F1F1" height="10" style="stroke:#181818;stroke-width:0.5;" width="15" x="304.5" y="330"/><rect fill="#F1F1F1" height="2" style="stroke:#181818;stroke-width:0.5;" width="4" x="302.5" y="332"/><rect fill="#F1F1F1" height="2" style="stroke:#181818;stroke-width:0.5;" width="4" x="302.5" y="336"/><text fill="#000000" font-family="sans-serif" font-size="14" lengthAdjust="spacing" textLength="68" x="231.5" y="357.9951">Database</text></g><!--entity User devices--><g id="elem_User devices"><rect fill="#F1F1F1" height="46.2969" rx="2.5" ry="2.5" style="stroke:#181818;stroke-width:0.5;" width="129" x="7" y="83.5"/><rect fill="#F1F1F1" height="10" style="stroke:#181818;stroke-width:0.5;" width="15" x="116" y="88.5"/><rect fill="#F1F1F1" height="2" style="stroke:#181818;stroke-width:0.5;" width="4" x="114" y="90.5"/><rect fill="#F1F1F1" height="2" style="stroke:#181818;stroke-width:0.5;" width="4" x="114" y="94.5"/><text fill="#000000" font-family="sans-serif" font-size="14" lengthAdjust="spacing" textLength="89" x="22" y="116.4951">User devices</text></g><!--entity PODs--><g id="elem_PODs"><rect fill="#F1F1F1" height="46.2969" rx="2.5" ry="2.5" style="stroke:#181818;stroke-width:0.5;" width="78" x="388.5" y="204"/><rect fill="#F1F1F1" height="10" style="stroke:#181818;stroke-width:0.5;" width="15" x="446.5" y="209"/><rect fill="#F1F1F1" height="2" style="stroke:#181818;stroke-width:0.5;" width="4" x="444.5" y="211"/><rect fill="#F1F1F1" height="2" style="stroke:#181818;stroke-width:0.5;" width="4" x="444.5" y="215"/><text fill="#000000" font-family="sans-serif" font-size="14" lengthAdjust="spacing" textLength="38" x="403.5" y="236.9951">PODs</text></g><!--entity Map API--><g id="elem_Map API"><rect fill="#F1F1F1" height="46.2969" rx="2.5" ry="2.5" style="stroke:#181818;stroke-width:0.5;" width="97" x="389" y="83.5"/><rect fill="#F1F1F1" height="10" style="stroke:#181818;stroke-width:0.5;" width="15" x="466" y="88.5"/><rect fill="#F1F1F1" height="2" style="stroke:#181818;stroke-width:0.5;" width="4" x="464" y="90.5"/><rect fill="#F1F1F1" height="2" style="stroke:#181818;stroke-width:0.5;" width="4" x="464" y="94.5"/><text fill="#000000" font-family="sans-serif" font-size="14" lengthAdjust="spacing" textLength="57" x="404" y="116.4951">Map API</text></g><!--link Web Application to Rest API--><g id="link_Web Application_Rest API"><path d="M263.967,129.235 C265.393,150.349 267.547,182.26 268.988,203.598 " fill="none" id="Web Application-Rest API" style="stroke:#181818;stroke-width:1.0;"/><path d="M273.0506,158.8012 A10,10 0 0 0 258.9406 159.7538" fill="none" style="stroke:#181818;stroke-width:1.5;"/><ellipse cx="266.4719" cy="166.3325" fill="#FFFFFF" rx="6" ry="6" style="stroke:#181818;stroke-width:1.5;"/></g><!--link Web Application to Map API--><g id="link_Web Application_Map API"><path d="M332.568,106.5 C351.287,106.5 370.005,106.5 388.723,106.5 " fill="none" id="Web Application-Map API" style="stroke:#181818;stroke-width:1.0;"/><path d="M353.5748,99.4289 A10,10 0 0 0 353.5748 113.5711" fill="none" style="stroke:#181818;stroke-width:1.5;"/><ellipse cx="360.6459" cy="106.5" fill="#FFFFFF" rx="6" ry="6" style="stroke:#181818;stroke-width:1.5;"/></g><!--link User devices to Web Application--><g id="link_User devices_Web Application"><path d="M136.037,106.5 C153.049,106.5 170.061,106.5 187.073,106.5 " fill="none" id="User devices-to-Web Application" style="stroke:#181818;stroke-width:1.0;"/><polygon fill="#181818" points="192.353,106.5,183.353,102.5,187.353,106.5,183.353,110.5,192.353,106.5" style="stroke:#181818;stroke-width:1.0;"/></g><!--link Rest API to Database--><g id="link_Rest API_Database"><path d="M270.5,250.104 C270.5,271.344 270.5,303.275 270.5,324.61 " fill="none" id="Rest API-Database" style="stroke:#181818;stroke-width:1.0;"/><path d="M277.5711,280.2503 A10,10 0 0 0 263.4289 280.2503" fill="none" style="stroke:#181818;stroke-width:1.5;"/><ellipse cx="270.5" cy="287.3214" fill="#FFFFFF" rx="6" ry="6" style="stroke:#181818;stroke-width:1.5;"/></g><!--link Rest API to PODs--><g id="link_Rest API_PODs"><path d="M320.789,227 C341.628,227 362.467,227 383.305,227 " fill="none" id="Rest API-to-PODs" style="stroke:#181818;stroke-width:1.0;"/><polygon fill="#181818" points="388.317,227,379.317,223,383.317,227,379.317,231,388.317,227" style="stroke:#181818;stroke-width:1.0;"/></g><!--SRC=[XOy_2y8m4CNtV8eZaql0Fwi8nIuEOb74EKrF2Qr9I687fT_TM8iDhUXst7k_k_VEkYhG0atkDujmG5kZfGy2XekINn1egaKP36kjF9SgJBEN30NtFESk64wOGs9C9GNtKYjAeFc5prjSwAlH2fK7kaVd8Sas_y3544ox22tO4199HnU00cifqD5Oo7PfMCIRBJVlxsJK1DXaokA0NnosjNoEZ1rBLh5X8DBVx7xqNMB9ibKN-Ga0]--></g></svg>