<?xml version="1.0" encoding="us-ascii" standalone="no"?><svg xmlns="http://www.w3.org/2000/svg" xmlns:xlink="http://www.w3.org/1999/xlink" contentStyleType="text/css" height="584px" preserveAspectRatio="none" style="width:737px;height:584px;background:#FFFFFF;" version="1.1" viewBox="0 0 737 584" width="737px" zoomAndPan="magnify"><defs/><g><!--class PlaceVisibility--><g id="elem_PlaceVisibility"><rect codeLine="1" fill="#F1F1F1" height="113.1875" id="PlaceVisibility" rx="2.5" ry="2.5" style="stroke:#181818;stroke-width:0.5;" width="132" x="240" y="7"/><ellipse cx="255" cy="23" fill="#EB937F" rx="11" ry="11" style="stroke:#181818;stroke-width:1.0;"/><path d="M253.7969,23.875 L255.25,23.875 L255.25,23.9844 C255.25,24.3906 255.2813,24.5469 255.3594,24.7031 C255.5156,24.9531 255.7969,25.1094 256.0938,25.1094 C256.3438,25.1094 256.6094,24.9688 256.7656,24.75 C256.8906,24.5938 256.9219,24.4375 256.9219,23.9844 L256.9219,22.0625 C256.9219,21.9063 256.9219,21.8594 256.9063,21.7031 C256.8438,21.2344 256.5313,20.9219 256.0781,20.9219 C255.8281,20.9219 255.5625,21.0625 255.3906,21.2813 C255.2813,21.4531 255.25,21.6094 255.25,22.0625 L255.25,22.1875 L253.7969,22.1875 L253.7969,19.7813 L257.7813,19.7813 L257.7813,20.6406 C257.7813,21.0469 257.8125,21.2188 257.8906,21.375 C258.0625,21.625 258.3438,21.7813 258.625,21.7813 C258.8906,21.7813 259.1563,21.6406 259.3281,21.4219 C259.4375,21.25 259.4688,21.1094 259.4688,20.6406 L259.4688,18.0938 L251.8438,18.0938 C251.4063,18.0938 251.2813,18.1094 251.125,18.2031 C250.875,18.3594 250.7188,18.6563 250.7188,18.9375 C250.7188,19.2188 250.8594,19.4688 251.0781,19.6406 C251.2344,19.75 251.4219,19.7813 251.8438,19.7813 L252.0938,19.7813 L252.0938,26.2969 L251.8438,26.2969 C251.4375,26.2969 251.2813,26.3125 251.125,26.4219 C250.875,26.5938 250.7188,26.8594 250.7188,27.1563 C250.7188,27.4219 250.8594,27.6719 251.0781,27.8281 C251.2188,27.9531 251.4531,28 251.8438,28 L259.8438,28 L259.8438,25.4219 C259.8438,24.9844 259.8125,24.8438 259.7344,24.6875 C259.5625,24.4375 259.2813,24.2813 259,24.2813 C258.7344,24.2813 258.4688,24.3906 258.2969,24.6406 C258.1875,24.7969 258.1563,24.9375 258.1563,25.4219 L258.1563,26.2969 L253.7969,26.2969 L253.7969,23.875 Z " fill="#000000"/><text fill="#000000" font-family="sans-serif" font-size="14" lengthAdjust="spacing" textLength="100" x="269" y="27.8467">PlaceVisibility</text><line style="stroke:#181818;stroke-width:0.5;" x1="241" x2="371" y1="39" y2="39"/><text fill="#000000" font-family="sans-serif" font-size="14" lengthAdjust="spacing" textLength="37" x="246" y="55.9951">USER</text><text fill="#000000" font-family="sans-serif" font-size="14" lengthAdjust="spacing" textLength="61" x="246" y="72.292">FRIENDS</text><text fill="#000000" font-family="sans-serif" font-size="14" lengthAdjust="spacing" textLength="50" x="246" y="88.5889">GROUP</text><text fill="#000000" font-family="sans-serif" font-size="14" lengthAdjust="spacing" textLength="33" x="246" y="104.8857">FULL</text><line style="stroke:#181818;stroke-width:0.5;" x1="241" x2="371" y1="112.1875" y2="112.1875"/></g><!--class GroupVisibility--><g id="elem_GroupVisibility"><rect codeLine="8" fill="#F1F1F1" height="80.5938" id="GroupVisibility" rx="2.5" ry="2.5" style="stroke:#181818;stroke-width:0.5;" width="138" x="7" y="181"/><ellipse cx="22" cy="197" fill="#EB937F" rx="11" ry="11" style="stroke:#181818;stroke-width:1.0;"/><path d="M20.7969,197.875 L22.25,197.875 L22.25,197.9844 C22.25,198.3906 22.2813,198.5469 22.3594,198.7031 C22.5156,198.9531 22.7969,199.1094 23.0938,199.1094 C23.3438,199.1094 23.6094,198.9688 23.7656,198.75 C23.8906,198.5938 23.9219,198.4375 23.9219,197.9844 L23.9219,196.0625 C23.9219,195.9063 23.9219,195.8594 23.9063,195.7031 C23.8438,195.2344 23.5313,194.9219 23.0781,194.9219 C22.8281,194.9219 22.5625,195.0625 22.3906,195.2813 C22.2813,195.4531 22.25,195.6094 22.25,196.0625 L22.25,196.1875 L20.7969,196.1875 L20.7969,193.7813 L24.7813,193.7813 L24.7813,194.6406 C24.7813,195.0469 24.8125,195.2188 24.8906,195.375 C25.0625,195.625 25.3438,195.7813 25.625,195.7813 C25.8906,195.7813 26.1563,195.6406 26.3281,195.4219 C26.4375,195.25 26.4688,195.1094 26.4688,194.6406 L26.4688,192.0938 L18.8438,192.0938 C18.4063,192.0938 18.2813,192.1094 18.125,192.2031 C17.875,192.3594 17.7188,192.6563 17.7188,192.9375 C17.7188,193.2188 17.8594,193.4688 18.0781,193.6406 C18.2344,193.75 18.4219,193.7813 18.8438,193.7813 L19.0938,193.7813 L19.0938,200.2969 L18.8438,200.2969 C18.4375,200.2969 18.2813,200.3125 18.125,200.4219 C17.875,200.5938 17.7188,200.8594 17.7188,201.1563 C17.7188,201.4219 17.8594,201.6719 18.0781,201.8281 C18.2188,201.9531 18.4531,202 18.8438,202 L26.8438,202 L26.8438,199.4219 C26.8438,198.9844 26.8125,198.8438 26.7344,198.6875 C26.5625,198.4375 26.2813,198.2813 26,198.2813 C25.7344,198.2813 25.4688,198.3906 25.2969,198.6406 C25.1875,198.7969 25.1563,198.9375 25.1563,199.4219 L25.1563,200.2969 L20.7969,200.2969 L20.7969,197.875 Z " fill="#000000"/><text fill="#000000" font-family="sans-serif" font-size="14" lengthAdjust="spacing" textLength="106" x="36" y="201.8467">GroupVisibility</text><line style="stroke:#181818;stroke-width:0.5;" x1="8" x2="144" y1="213" y2="213"/><text fill="#000000" font-family="sans-serif" font-size="14" lengthAdjust="spacing" textLength="61" x="13" y="229.9951">PRIVATE</text><text fill="#000000" font-family="sans-serif" font-size="14" lengthAdjust="spacing" textLength="50" x="13" y="246.292">GROUP</text><line style="stroke:#181818;stroke-width:0.5;" x1="8" x2="144" y1="253.5938" y2="253.5938"/></g><!--class Place--><g id="elem_Place"><rect codeLine="13" fill="#F1F1F1" height="113.1875" id="Place" rx="2.5" ry="2.5" style="stroke:#181818;stroke-width:0.5;" width="151" x="407.5" y="7"/><ellipse cx="459.75" cy="23" fill="#ADD1B2" rx="11" ry="11" style="stroke:#181818;stroke-width:1.0;"/><path d="M462.0938,18.6719 C461.1563,18.2344 460.5625,18.0938 459.6875,18.0938 C457.0625,18.0938 455.0625,20.1719 455.0625,22.8906 L455.0625,24.0156 C455.0625,26.5938 457.1719,28.4844 460.0625,28.4844 C461.2813,28.4844 462.4375,28.1875 463.1875,27.6406 C463.7656,27.2344 464.0938,26.7813 464.0938,26.3906 C464.0938,25.9375 463.7031,25.5469 463.2344,25.5469 C463.0156,25.5469 462.8125,25.625 462.625,25.8125 C462.1719,26.2969 462.1719,26.2969 461.9844,26.3906 C461.5625,26.6563 460.875,26.7813 460.1094,26.7813 C458.0625,26.7813 456.7656,25.6875 456.7656,23.9844 L456.7656,22.8906 C456.7656,21.1094 458.0156,19.7969 459.75,19.7969 C460.3281,19.7969 460.9375,19.9531 461.4063,20.2031 C461.8906,20.4844 462.0625,20.7031 462.1563,21.1094 C462.2188,21.5156 462.25,21.6406 462.3906,21.7656 C462.5313,21.9063 462.7656,22.0156 462.9844,22.0156 C463.25,22.0156 463.5156,21.875 463.6875,21.6563 C463.7969,21.5 463.8281,21.3125 463.8281,20.8906 L463.8281,19.4688 C463.8281,19.0313 463.8125,18.9063 463.7188,18.75 C463.5625,18.4844 463.2813,18.3438 462.9844,18.3438 C462.6875,18.3438 462.4844,18.4375 462.2656,18.75 L462.0938,18.6719 Z " fill="#000000"/><text fill="#000000" font-family="sans-serif" font-size="14" lengthAdjust="spacing" textLength="38" x="480.25" y="27.8467">Place</text><line style="stroke:#181818;stroke-width:0.5;" x1="408.5" x2="557.5" y1="39" y2="39"/><text fill="#000000" font-family="sans-serif" font-size="14" lengthAdjust="spacing" textLength="97" x="413.5" y="55.9951">name : String</text><text fill="#000000" font-family="sans-serif" font-size="14" lengthAdjust="spacing" textLength="121" x="413.5" y="72.292">latitude: number</text><text fill="#000000" font-family="sans-serif" font-size="14" lengthAdjust="spacing" textLength="133" x="413.5" y="88.5889">longitude: number</text><text fill="#000000" font-family="sans-serif" font-size="14" lengthAdjust="spacing" textLength="139" x="413.5" y="104.8857">category: Category</text><line style="stroke:#181818;stroke-width:0.5;" x1="408.5" x2="557.5" y1="112.1875" y2="112.1875"/></g><!--class Category--><g id="elem_Category"><rect codeLine="20" fill="#F1F1F1" height="48" id="Category" rx="2.5" ry="2.5" style="stroke:#181818;stroke-width:0.5;" width="98" x="632" y="197.5"/><ellipse cx="647" cy="213.5" fill="#EB937F" rx="11" ry="11" style="stroke:#181818;stroke-width:1.0;"/><path d="M645.7969,214.375 L647.25,214.375 L647.25,214.4844 C647.25,214.8906 647.2813,215.0469 647.3594,215.2031 C647.5156,215.4531 647.7969,215.6094 648.0938,215.6094 C648.3438,215.6094 648.6094,215.4688 648.7656,215.25 C648.8906,215.0938 648.9219,214.9375 648.9219,214.4844 L648.9219,212.5625 C648.9219,212.4063 648.9219,212.3594 648.9063,212.2031 C648.8438,211.7344 648.5313,211.4219 648.0781,211.4219 C647.8281,211.4219 647.5625,211.5625 647.3906,211.7813 C647.2813,211.9531 647.25,212.1094 647.25,212.5625 L647.25,212.6875 L645.7969,212.6875 L645.7969,210.2813 L649.7813,210.2813 L649.7813,211.1406 C649.7813,211.5469 649.8125,211.7188 649.8906,211.875 C650.0625,212.125 650.3438,212.2813 650.625,212.2813 C650.8906,212.2813 651.1563,212.1406 651.3281,211.9219 C651.4375,211.75 651.4688,211.6094 651.4688,211.1406 L651.4688,208.5938 L643.8438,208.5938 C643.4063,208.5938 643.2813,208.6094 643.125,208.7031 C642.875,208.8594 642.7188,209.1563 642.7188,209.4375 C642.7188,209.7188 642.8594,209.9688 643.0781,210.1406 C643.2344,210.25 643.4219,210.2813 643.8438,210.2813 L644.0938,210.2813 L644.0938,216.7969 L643.8438,216.7969 C643.4375,216.7969 643.2813,216.8125 643.125,216.9219 C642.875,217.0938 642.7188,217.3594 642.7188,217.6563 C642.7188,217.9219 642.8594,218.1719 643.0781,218.3281 C643.2188,218.4531 643.4531,218.5 643.8438,218.5 L651.8438,218.5 L651.8438,215.9219 C651.8438,215.4844 651.8125,215.3438 651.7344,215.1875 C651.5625,214.9375 651.2813,214.7813 651,214.7813 C650.7344,214.7813 650.4688,214.8906 650.2969,215.1406 C650.1875,215.2969 650.1563,215.4375 650.1563,215.9219 L650.1563,216.7969 L645.7969,216.7969 L645.7969,214.375 Z " fill="#000000"/><text fill="#000000" font-family="sans-serif" font-size="14" lengthAdjust="spacing" textLength="66" x="661" y="218.3467">Category</text><line style="stroke:#181818;stroke-width:0.5;" x1="633" x2="729" y1="229.5" y2="229.5"/><line style="stroke:#181818;stroke-width:0.5;" x1="633" x2="729" y1="237.5" y2="237.5"/></g><!--class Picture--><g id="elem_Picture"><rect codeLine="23" fill="#F1F1F1" height="64.2969" id="Picture" rx="2.5" ry="2.5" style="stroke:#181818;stroke-width:0.5;" width="87" x="319.5" y="189.5"/><ellipse cx="336.3" cy="205.5" fill="#ADD1B2" rx="11" ry="11" style="stroke:#181818;stroke-width:1.0;"/><path d="M338.6438,201.1719 C337.7063,200.7344 337.1125,200.5938 336.2375,200.5938 C333.6125,200.5938 331.6125,202.6719 331.6125,205.3906 L331.6125,206.5156 C331.6125,209.0938 333.7219,210.9844 336.6125,210.9844 C337.8313,210.9844 338.9875,210.6875 339.7375,210.1406 C340.3156,209.7344 340.6438,209.2813 340.6438,208.8906 C340.6438,208.4375 340.2531,208.0469 339.7844,208.0469 C339.5656,208.0469 339.3625,208.125 339.175,208.3125 C338.7219,208.7969 338.7219,208.7969 338.5344,208.8906 C338.1125,209.1563 337.425,209.2813 336.6594,209.2813 C334.6125,209.2813 333.3156,208.1875 333.3156,206.4844 L333.3156,205.3906 C333.3156,203.6094 334.5656,202.2969 336.3,202.2969 C336.8781,202.2969 337.4875,202.4531 337.9563,202.7031 C338.4406,202.9844 338.6125,203.2031 338.7063,203.6094 C338.7688,204.0156 338.8,204.1406 338.9406,204.2656 C339.0813,204.4063 339.3156,204.5156 339.5344,204.5156 C339.8,204.5156 340.0656,204.375 340.2375,204.1563 C340.3469,204 340.3781,203.8125 340.3781,203.3906 L340.3781,201.9688 C340.3781,201.5313 340.3625,201.4063 340.2688,201.25 C340.1125,200.9844 339.8313,200.8438 339.5344,200.8438 C339.2375,200.8438 339.0344,200.9375 338.8156,201.25 L338.6438,201.1719 Z " fill="#000000"/><text fill="#000000" font-family="sans-serif" font-size="14" lengthAdjust="spacing" textLength="51" x="350.7" y="210.3467">Picture</text><line style="stroke:#181818;stroke-width:0.5;" x1="320.5" x2="405.5" y1="221.5" y2="221.5"/><text fill="#000000" font-family="sans-serif" font-size="14" lengthAdjust="spacing" textLength="75" x="325.5" y="238.4951">url : String</text><line style="stroke:#181818;stroke-width:0.5;" x1="320.5" x2="405.5" y1="245.7969" y2="245.7969"/></g><!--class Comment--><g id="elem_Comment"><rect codeLine="27" fill="#F1F1F1" height="64.2969" id="Comment" rx="2.5" ry="2.5" style="stroke:#181818;stroke-width:0.5;" width="104" x="180" y="189.5"/><ellipse cx="195" cy="205.5" fill="#ADD1B2" rx="11" ry="11" style="stroke:#181818;stroke-width:1.0;"/><path d="M197.3438,201.1719 C196.4063,200.7344 195.8125,200.5938 194.9375,200.5938 C192.3125,200.5938 190.3125,202.6719 190.3125,205.3906 L190.3125,206.5156 C190.3125,209.0938 192.4219,210.9844 195.3125,210.9844 C196.5313,210.9844 197.6875,210.6875 198.4375,210.1406 C199.0156,209.7344 199.3438,209.2813 199.3438,208.8906 C199.3438,208.4375 198.9531,208.0469 198.4844,208.0469 C198.2656,208.0469 198.0625,208.125 197.875,208.3125 C197.4219,208.7969 197.4219,208.7969 197.2344,208.8906 C196.8125,209.1563 196.125,209.2813 195.3594,209.2813 C193.3125,209.2813 192.0156,208.1875 192.0156,206.4844 L192.0156,205.3906 C192.0156,203.6094 193.2656,202.2969 195,202.2969 C195.5781,202.2969 196.1875,202.4531 196.6563,202.7031 C197.1406,202.9844 197.3125,203.2031 197.4063,203.6094 C197.4688,204.0156 197.5,204.1406 197.6406,204.2656 C197.7813,204.4063 198.0156,204.5156 198.2344,204.5156 C198.5,204.5156 198.7656,204.375 198.9375,204.1563 C199.0469,204 199.0781,203.8125 199.0781,203.3906 L199.0781,201.9688 C199.0781,201.5313 199.0625,201.4063 198.9688,201.25 C198.8125,200.9844 198.5313,200.8438 198.2344,200.8438 C197.9375,200.8438 197.7344,200.9375 197.5156,201.25 L197.3438,201.1719 Z " fill="#000000"/><text fill="#000000" font-family="sans-serif" font-size="14" lengthAdjust="spacing" textLength="72" x="209" y="210.3467">Comment</text><line style="stroke:#181818;stroke-width:0.5;" x1="181" x2="283" y1="221.5" y2="221.5"/><text fill="#000000" font-family="sans-serif" font-size="14" lengthAdjust="spacing" textLength="88" x="186" y="238.4951">text : String</text><line style="stroke:#181818;stroke-width:0.5;" x1="181" x2="283" y1="245.7969" y2="245.7969"/></g><!--class Score--><g id="elem_Score"><rect codeLine="31" fill="#F1F1F1" height="64.2969" id="Score" rx="2.5" ry="2.5" style="stroke:#181818;stroke-width:0.5;" width="84" x="513" y="189.5"/><ellipse cx="532.95" cy="205.5" fill="#ADD1B2" rx="11" ry="11" style="stroke:#181818;stroke-width:1.0;"/><path d="M535.2938,201.1719 C534.3563,200.7344 533.7625,200.5938 532.8875,200.5938 C530.2625,200.5938 528.2625,202.6719 528.2625,205.3906 L528.2625,206.5156 C528.2625,209.0938 530.3719,210.9844 533.2625,210.9844 C534.4813,210.9844 535.6375,210.6875 536.3875,210.1406 C536.9656,209.7344 537.2938,209.2813 537.2938,208.8906 C537.2938,208.4375 536.9031,208.0469 536.4344,208.0469 C536.2156,208.0469 536.0125,208.125 535.825,208.3125 C535.3719,208.7969 535.3719,208.7969 535.1844,208.8906 C534.7625,209.1563 534.075,209.2813 533.3094,209.2813 C531.2625,209.2813 529.9656,208.1875 529.9656,206.4844 L529.9656,205.3906 C529.9656,203.6094 531.2156,202.2969 532.95,202.2969 C533.5281,202.2969 534.1375,202.4531 534.6063,202.7031 C535.0906,202.9844 535.2625,203.2031 535.3563,203.6094 C535.4188,204.0156 535.45,204.1406 535.5906,204.2656 C535.7313,204.4063 535.9656,204.5156 536.1844,204.5156 C536.45,204.5156 536.7156,204.375 536.8875,204.1563 C536.9969,204 537.0281,203.8125 537.0281,203.3906 L537.0281,201.9688 C537.0281,201.5313 537.0125,201.4063 536.9188,201.25 C536.7625,200.9844 536.4813,200.8438 536.1844,200.8438 C535.8875,200.8438 535.6844,200.9375 535.4656,201.25 L535.2938,201.1719 Z " fill="#000000"/><text fill="#000000" font-family="sans-serif" font-size="14" lengthAdjust="spacing" textLength="41" x="548.05" y="210.3467">Score</text><line style="stroke:#181818;stroke-width:0.5;" x1="514" x2="596" y1="221.5" y2="221.5"/><text fill="#000000" font-family="sans-serif" font-size="14" lengthAdjust="spacing" textLength="72" x="519" y="238.4951">score : int</text><line style="stroke:#181818;stroke-width:0.5;" x1="514" x2="596" y1="245.7969" y2="245.7969"/></g><!--class Route--><g id="elem_Route"><rect codeLine="35" fill="#F1F1F1" height="64.2969" id="Route" rx="2.5" ry="2.5" style="stroke:#181818;stroke-width:0.5;" width="109" x="606.5" y="31.5"/><ellipse cx="636.8" cy="47.5" fill="#ADD1B2" rx="11" ry="11" style="stroke:#181818;stroke-width:1.0;"/><path d="M639.1438,43.1719 C638.2063,42.7344 637.6125,42.5938 636.7375,42.5938 C634.1125,42.5938 632.1125,44.6719 632.1125,47.3906 L632.1125,48.5156 C632.1125,51.0938 634.2219,52.9844 637.1125,52.9844 C638.3313,52.9844 639.4875,52.6875 640.2375,52.1406 C640.8156,51.7344 641.1438,51.2813 641.1438,50.8906 C641.1438,50.4375 640.7531,50.0469 640.2844,50.0469 C640.0656,50.0469 639.8625,50.125 639.675,50.3125 C639.2219,50.7969 639.2219,50.7969 639.0344,50.8906 C638.6125,51.1563 637.925,51.2813 637.1594,51.2813 C635.1125,51.2813 633.8156,50.1875 633.8156,48.4844 L633.8156,47.3906 C633.8156,45.6094 635.0656,44.2969 636.8,44.2969 C637.3781,44.2969 637.9875,44.4531 638.4563,44.7031 C638.9406,44.9844 639.1125,45.2031 639.2063,45.6094 C639.2688,46.0156 639.3,46.1406 639.4406,46.2656 C639.5813,46.4063 639.8156,46.5156 640.0344,46.5156 C640.3,46.5156 640.5656,46.375 640.7375,46.1563 C640.8469,46 640.8781,45.8125 640.8781,45.3906 L640.8781,43.9688 C640.8781,43.5313 640.8625,43.4063 640.7688,43.25 C640.6125,42.9844 640.3313,42.8438 640.0344,42.8438 C639.7375,42.8438 639.5344,42.9375 639.3156,43.25 L639.1438,43.1719 Z " fill="#000000"/><text fill="#000000" font-family="sans-serif" font-size="14" lengthAdjust="spacing" textLength="43" x="654.2" y="52.3467">Route</text><line style="stroke:#181818;stroke-width:0.5;" x1="607.5" x2="714.5" y1="63.5" y2="63.5"/><text fill="#000000" font-family="sans-serif" font-size="14" lengthAdjust="spacing" textLength="97" x="612.5" y="80.4951">name : String</text><line style="stroke:#181818;stroke-width:0.5;" x1="607.5" x2="714.5" y1="87.7969" y2="87.7969"/></g><!--class User--><g id="elem_User"><rect codeLine="39" fill="#F1F1F1" height="96.8906" id="User" rx="2.5" ry="2.5" style="stroke:#181818;stroke-width:0.5;" width="139" x="293.5" y="323"/><ellipse cx="343.25" cy="339" fill="#ADD1B2" rx="11" ry="11" style="stroke:#181818;stroke-width:1.0;"/><path d="M345.5938,334.6719 C344.6563,334.2344 344.0625,334.0938 343.1875,334.0938 C340.5625,334.0938 338.5625,336.1719 338.5625,338.8906 L338.5625,340.0156 C338.5625,342.5938 340.6719,344.4844 343.5625,344.4844 C344.7813,344.4844 345.9375,344.1875 346.6875,343.6406 C347.2656,343.2344 347.5938,342.7813 347.5938,342.3906 C347.5938,341.9375 347.2031,341.5469 346.7344,341.5469 C346.5156,341.5469 346.3125,341.625 346.125,341.8125 C345.6719,342.2969 345.6719,342.2969 345.4844,342.3906 C345.0625,342.6563 344.375,342.7813 343.6094,342.7813 C341.5625,342.7813 340.2656,341.6875 340.2656,339.9844 L340.2656,338.8906 C340.2656,337.1094 341.5156,335.7969 343.25,335.7969 C343.8281,335.7969 344.4375,335.9531 344.9063,336.2031 C345.3906,336.4844 345.5625,336.7031 345.6563,337.1094 C345.7188,337.5156 345.75,337.6406 345.8906,337.7656 C346.0313,337.9063 346.2656,338.0156 346.4844,338.0156 C346.75,338.0156 347.0156,337.875 347.1875,337.6563 C347.2969,337.5 347.3281,337.3125 347.3281,336.8906 L347.3281,335.4688 C347.3281,335.0313 347.3125,334.9063 347.2188,334.75 C347.0625,334.4844 346.7813,334.3438 346.4844,334.3438 C346.1875,334.3438 345.9844,334.4375 345.7656,334.75 L345.5938,334.6719 Z " fill="#000000"/><text fill="#000000" font-family="sans-serif" font-size="14" lengthAdjust="spacing" textLength="31" x="363.75" y="343.8467">User</text><line style="stroke:#181818;stroke-width:0.5;" x1="294.5" x2="431.5" y1="355" y2="355"/><text fill="#000000" font-family="sans-serif" font-size="14" lengthAdjust="spacing" textLength="127" x="299.5" y="371.9951">username : String</text><text fill="#000000" font-family="sans-serif" font-size="14" lengthAdjust="spacing" textLength="124" x="299.5" y="388.292">password : String</text><text fill="#000000" font-family="sans-serif" font-size="14" lengthAdjust="spacing" textLength="98" x="299.5" y="404.5889">podId : String</text><line style="stroke:#181818;stroke-width:0.5;" x1="294.5" x2="431.5" y1="411.8906" y2="411.8906"/></g><!--class Role--><g id="elem_Role"><rect codeLine="45" fill="#F1F1F1" height="96.8906" id="Role" rx="2.5" ry="2.5" style="stroke:#181818;stroke-width:0.5;" width="81" x="322.5" y="481"/><ellipse cx="345.15" cy="497" fill="#EB937F" rx="11" ry="11" style="stroke:#181818;stroke-width:1.0;"/><path d="M343.9469,497.875 L345.4,497.875 L345.4,497.9844 C345.4,498.3906 345.4313,498.5469 345.5094,498.7031 C345.6656,498.9531 345.9469,499.1094 346.2438,499.1094 C346.4938,499.1094 346.7594,498.9688 346.9156,498.75 C347.0406,498.5938 347.0719,498.4375 347.0719,497.9844 L347.0719,496.0625 C347.0719,495.9063 347.0719,495.8594 347.0563,495.7031 C346.9938,495.2344 346.6813,494.9219 346.2281,494.9219 C345.9781,494.9219 345.7125,495.0625 345.5406,495.2813 C345.4313,495.4531 345.4,495.6094 345.4,496.0625 L345.4,496.1875 L343.9469,496.1875 L343.9469,493.7813 L347.9313,493.7813 L347.9313,494.6406 C347.9313,495.0469 347.9625,495.2188 348.0406,495.375 C348.2125,495.625 348.4938,495.7813 348.775,495.7813 C349.0406,495.7813 349.3063,495.6406 349.4781,495.4219 C349.5875,495.25 349.6188,495.1094 349.6188,494.6406 L349.6188,492.0938 L341.9938,492.0938 C341.5563,492.0938 341.4313,492.1094 341.275,492.2031 C341.025,492.3594 340.8688,492.6563 340.8688,492.9375 C340.8688,493.2188 341.0094,493.4688 341.2281,493.6406 C341.3844,493.75 341.5719,493.7813 341.9938,493.7813 L342.2438,493.7813 L342.2438,500.2969 L341.9938,500.2969 C341.5875,500.2969 341.4313,500.3125 341.275,500.4219 C341.025,500.5938 340.8688,500.8594 340.8688,501.1563 C340.8688,501.4219 341.0094,501.6719 341.2281,501.8281 C341.3688,501.9531 341.6031,502 341.9938,502 L349.9938,502 L349.9938,499.4219 C349.9938,498.9844 349.9625,498.8438 349.8844,498.6875 C349.7125,498.4375 349.4313,498.2813 349.15,498.2813 C348.8844,498.2813 348.6188,498.3906 348.4469,498.6406 C348.3375,498.7969 348.3063,498.9375 348.3063,499.4219 L348.3063,500.2969 L343.9469,500.2969 L343.9469,497.875 Z " fill="#000000"/><text fill="#000000" font-family="sans-serif" font-size="14" lengthAdjust="spacing" textLength="32" x="360.85" y="501.8467">Role</text><line style="stroke:#181818;stroke-width:0.5;" x1="323.5" x2="402.5" y1="513" y2="513"/><text fill="#000000" font-family="sans-serif" font-size="14" lengthAdjust="spacing" textLength="56" x="328.5" y="529.9951">CITIZEN</text><text fill="#000000" font-family="sans-serif" font-size="14" lengthAdjust="spacing" textLength="61" x="328.5" y="546.292">TOURIST</text><text fill="#000000" font-family="sans-serif" font-size="14" lengthAdjust="spacing" textLength="69" x="328.5" y="562.5889">BUSINESS</text><line style="stroke:#181818;stroke-width:0.5;" x1="323.5" x2="402.5" y1="569.8906" y2="569.8906"/></g><!--class Group--><g id="elem_Group"><rect codeLine="51" fill="#F1F1F1" height="64.2969" id="Group" rx="2.5" ry="2.5" style="stroke:#181818;stroke-width:0.5;" width="109" x="85.5" y="339.5"/><ellipse cx="115.35" cy="355.5" fill="#ADD1B2" rx="11" ry="11" style="stroke:#181818;stroke-width:1.0;"/><path d="M117.6938,351.1719 C116.7563,350.7344 116.1625,350.5938 115.2875,350.5938 C112.6625,350.5938 110.6625,352.6719 110.6625,355.3906 L110.6625,356.5156 C110.6625,359.0938 112.7719,360.9844 115.6625,360.9844 C116.8813,360.9844 118.0375,360.6875 118.7875,360.1406 C119.3656,359.7344 119.6938,359.2813 119.6938,358.8906 C119.6938,358.4375 119.3031,358.0469 118.8344,358.0469 C118.6156,358.0469 118.4125,358.125 118.225,358.3125 C117.7719,358.7969 117.7719,358.7969 117.5844,358.8906 C117.1625,359.1563 116.475,359.2813 115.7094,359.2813 C113.6625,359.2813 112.3656,358.1875 112.3656,356.4844 L112.3656,355.3906 C112.3656,353.6094 113.6156,352.2969 115.35,352.2969 C115.9281,352.2969 116.5375,352.4531 117.0063,352.7031 C117.4906,352.9844 117.6625,353.2031 117.7563,353.6094 C117.8188,354.0156 117.85,354.1406 117.9906,354.2656 C118.1313,354.4063 118.3656,354.5156 118.5844,354.5156 C118.85,354.5156 119.1156,354.375 119.2875,354.1563 C119.3969,354 119.4281,353.8125 119.4281,353.3906 L119.4281,351.9688 C119.4281,351.5313 119.4125,351.4063 119.3188,351.25 C119.1625,350.9844 118.8813,350.8438 118.5844,350.8438 C118.2875,350.8438 118.0844,350.9375 117.8656,351.25 L117.6938,351.1719 Z " fill="#000000"/><text fill="#000000" font-family="sans-serif" font-size="14" lengthAdjust="spacing" textLength="44" x="132.65" y="360.3467">Group</text><line style="stroke:#181818;stroke-width:0.5;" x1="86.5" x2="193.5" y1="371.5" y2="371.5"/><text fill="#000000" font-family="sans-serif" font-size="14" lengthAdjust="spacing" textLength="97" x="91.5" y="388.4951">name : String</text><line style="stroke:#181818;stroke-width:0.5;" x1="86.5" x2="193.5" y1="395.7969" y2="395.7969"/></g><!--link Place to Category--><g id="link_Place_Category"><path codeLine="55" d="M553.644,120.159 C587.406,146.759 625.974,177.146 651.738,197.445 " fill="none" id="Place-Category" style="stroke:#181818;stroke-width:1.0;"/><text fill="#000000" font-family="sans-serif" font-size="13" lengthAdjust="spacing" textLength="24" x="537.1578" y="140.4428">0..n</text><text fill="#000000" font-family="sans-serif" font-size="13" lengthAdjust="spacing" textLength="8" x="635.2146" y="186.4429">1</text></g><!--reverse link Place to Picture--><g id="link_Place_Picture"><path codeLine="56" d="M431.928,130.894 C416.272,151.247 399.786,172.678 386.864,189.477 " fill="none" id="Place-backto-Picture" style="stroke:#181818;stroke-width:1.0;"/><polygon fill="none" points="440.016,120.379,433.1873,122.6962,432.6999,129.8908,439.5285,127.5736,440.016,120.379" style="stroke:#181818;stroke-width:1.0;"/><text fill="#000000" font-family="sans-serif" font-size="13" lengthAdjust="spacing" textLength="24" x="365.311" y="178.3754">0..n</text></g><!--reverse link Place to Comment--><g id="link_Place_Comment"><path codeLine="57" d="M396.233,118.427 C358.116,142.117 314.714,169.092 282.104,189.36 " fill="none" id="Place-backto-Comment" style="stroke:#181818;stroke-width:1.0;"/><polygon fill="none" points="407.351,111.517,400.1435,111.2875,397.1596,117.8523,404.3671,118.0818,407.351,111.517" style="stroke:#181818;stroke-width:1.0;"/><text fill="#000000" font-family="sans-serif" font-size="13" lengthAdjust="spacing" textLength="24" x="265.963" y="178.2342">0..n</text></g><!--reverse link Place to Score--><g id="link_Place_Score"><path codeLine="58" d="M514.29,132.296 C523.49,152.227 533.106,173.064 540.682,189.477 " fill="none" id="Place-backto-Score" style="stroke:#181818;stroke-width:1.0;"/><polygon fill="none" points="508.79,120.379,507.6723,127.503,513.8184,131.2746,514.9361,124.1507,508.79,120.379" style="stroke:#181818;stroke-width:1.0;"/><text fill="#000000" font-family="sans-serif" font-size="13" lengthAdjust="spacing" textLength="24" x="511.2539" y="178.3754">0..n</text></g><!--link PlaceVisibility to Place--><g id="link_PlaceVisibility_Place"><path codeLine="59" d="M372.029,63.5 C383.733,63.5 395.437,63.5 407.141,63.5 " fill="none" id="PlaceVisibility-Place" style="stroke:#181818;stroke-width:1.0;"/><text fill="#000000" font-family="sans-serif" font-size="13" lengthAdjust="spacing" textLength="8" x="380.1261" y="59.6965">1</text><text fill="#000000" font-family="sans-serif" font-size="13" lengthAdjust="spacing" textLength="24" x="375.5906" y="59.92">0..n</text></g><!--link Picture to User--><g id="link_Picture_User"><path codeLine="61" d="M363,253.526 C363,273.614 363,300.169 363,322.899 " fill="none" id="Picture-User" style="stroke:#181818;stroke-width:1.0;"/><text fill="#000000" font-family="sans-serif" font-size="13" lengthAdjust="spacing" textLength="24" x="336.525" y="273.7282">0..n</text><text fill="#000000" font-family="sans-serif" font-size="13" lengthAdjust="spacing" textLength="8" x="354.4375" y="312.0937">1</text></g><!--link Comment to User--><g id="link_Comment_User"><path codeLine="62" d="M259.462,253.526 C277.243,273.614 300.748,300.169 320.867,322.899 " fill="none" id="Comment-User" style="stroke:#181818;stroke-width:1.0;"/><text fill="#000000" font-family="sans-serif" font-size="13" lengthAdjust="spacing" textLength="24" x="238.651" y="273.7282">0..n</text><text fill="#000000" font-family="sans-serif" font-size="13" lengthAdjust="spacing" textLength="8" x="306.3795" y="312.0937">1</text></g><!--link Score to User--><g id="link_Score_User"><path codeLine="63" d="M527.574,253.589 C515.459,266.485 500.658,281.166 486,293 C469.504,306.318 450.59,319.24 432.622,330.592 " fill="none" id="Score-User" style="stroke:#181818;stroke-width:1.0;"/><text fill="#000000" font-family="sans-serif" font-size="13" lengthAdjust="spacing" textLength="24" x="495.4424" y="273.8042">0..n</text><text fill="#000000" font-family="sans-serif" font-size="13" lengthAdjust="spacing" textLength="8" x="440.6744" y="322.3775">1</text></g><!--link User to User--><g id="link_User_User"><path codeLine="64" d="M432.836,356.947 C452.446,357.585 467.5,362.436 467.5,371.5 C467.5,380.564 452.446,385.415 432.836,386.053 " fill="none" id="User-User" style="stroke:#181818;stroke-width:1.0;"/><text fill="#000000" font-family="sans-serif" font-size="13" lengthAdjust="spacing" textLength="89" x="473.5" y="376.0669">is friends with</text><text fill="#000000" font-family="sans-serif" font-size="13" lengthAdjust="spacing" textLength="8" x="440.4503" y="351.7522">1</text><text fill="#000000" font-family="sans-serif" font-size="13" lengthAdjust="spacing" textLength="24" x="440.3803" y="383.7813">0..n</text></g><!--link Group to User--><g id="link_Group_User"><path codeLine="65" d="M194.879,371.5 C227.715,371.5 260.551,371.5 293.387,371.5 " fill="none" id="Group-User" style="stroke:#181818;stroke-width:1.0;"/><text fill="#000000" font-family="sans-serif" font-size="13" lengthAdjust="spacing" textLength="24" x="202.6119" y="367.6902">0..n</text><text fill="#000000" font-family="sans-serif" font-size="13" lengthAdjust="spacing" textLength="24" x="261.6083" y="367.8636">1..n</text></g><!--link User to Role--><g id="link_User_Role"><path codeLine="66" d="M363,420.153 C363,439.417 363,461.608 363,480.8704 " fill="none" id="User-Role" style="stroke:#181818;stroke-width:1.0;"/><text fill="#000000" font-family="sans-serif" font-size="13" lengthAdjust="spacing" textLength="24" x="337.3875" y="439.7817">0..n</text><text fill="#000000" font-family="sans-serif" font-size="13" lengthAdjust="spacing" textLength="8" x="354.4375" y="470.0606">1</text></g><!--link Place to User--><g id="link_Place_User"><path codeLine="67" d="M469.909,120.137 C459.603,160.354 443.706,215.55 424,262 C415.265,282.59 403.622,304.266 392.851,322.784 " fill="none" id="Place-User" style="stroke:#181818;stroke-width:1.0;"/><text fill="#000000" font-family="sans-serif" font-size="13" lengthAdjust="spacing" textLength="24" x="442.6942" y="140.4179">0..n</text><text fill="#000000" font-family="sans-serif" font-size="13" lengthAdjust="spacing" textLength="8" x="388.4863" y="311.9625">1</text></g><!--link Route to Category--><g id="link_Route_Category"><path codeLine="69" d="M664.999,95.694 C668.852,125.747 674.591,170.512 678.047,197.467 " fill="none" id="Route-Category" style="stroke:#181818;stroke-width:1.0;"/><text fill="#000000" font-family="sans-serif" font-size="13" lengthAdjust="spacing" textLength="24" x="639.3488" y="115.9309">0..n</text><text fill="#000000" font-family="sans-serif" font-size="13" lengthAdjust="spacing" textLength="8" x="668.2653" y="186.4706">1</text></g><!--link Place to Route--><g id="link_Place_Route"><path codeLine="70" d="M558.789,63.5 C574.626,63.5 590.464,63.5 606.301,63.5 " fill="none" id="Place-Route" style="stroke:#181818;stroke-width:1.0;"/><text fill="#000000" font-family="sans-serif" font-size="13" lengthAdjust="spacing" textLength="24" x="566.6077" y="59.8965">0..n</text><text fill="#000000" font-family="sans-serif" font-size="13" lengthAdjust="spacing" textLength="24" x="574.5889" y="59.6902">0..n</text></g><!--link GroupVisibility to Group--><g id="link_GroupVisibility_Group"><path codeLine="72" d="M93.1508,262.161 C103.5923,286.307 116.744,316.721 126.453,339.172 " fill="none" id="GroupVisibility-Group" style="stroke:#181818;stroke-width:1.0;"/><text fill="#000000" font-family="sans-serif" font-size="13" lengthAdjust="spacing" textLength="24" x="69.9395" y="281.6438">0..n</text><text fill="#000000" font-family="sans-serif" font-size="13" lengthAdjust="spacing" textLength="24" x="97.4233" y="328.3816">0..n</text></g><!--SRC=[TLFBRi8m4BpxAwpSGUsLMqjJP0a1iXCElON4K4kEZVmGHQZ_NiTsdgGvhNPcTtPd7Ifi3G-yAEcHQNPYd9dx0q3tvIJ5FlZ4ADrz41zly3u_X6o-tO9V06ZJOAEalVODOEXmmEZubgM3GiSlUQ5rK0miKTGKhY0nYecBp_32C6ChkeAkzucga9JYyfmj2qClKjrNS1sZRgOsyHYeij9O5NMjuhriHrdBkgR218gXFsQ6GqhPDj5Dw2XCc1x7qfhPvJf6hgcAKxZesO6h8zsagYPPMQ5grCqlYYMFQckKeQzqv-DidsD4CX-_vmJjKaBw0Vp1_XdHtmOcBykbIE2YaZUnWCbhqZiS2BA50Z5wEmz6L-T1R-T4bTEp2QgJjmb0uvr75lRwf3uBjkgpO53leGxmANTP3S-AKL5fU6FcksMEnWm5tjE8npN22is11WgZ8hyU0Fx9JCewlyVWNFdq_niq6ips1m00]--></g></svg>