<?xml version="1.0" encoding="UTF-8" standalone="no"?><svg xmlns="http://www.w3.org/2000/svg" xmlns:xlink="http://www.w3.org/1999/xlink" contentStyleType="text/css" height="141px" preserveAspectRatio="none" style="width:727px;height:141px;background:#FFFFFF;" version="1.1" viewBox="0 0 727 141" width="727px" zoomAndPan="magnify"><defs/><g><!--entity Quality--><g id="elem_Quality"><rect fill="#F1F1F1" height="36.2969" rx="2.5" ry="2.5" style="stroke:#181818;stroke-width:0.5;" width="70" x="318.5" y="7"/><text fill="#000000" font-family="sans-serif" font-size="14" lengthAdjust="spacing" textLength="50" x="328.5" y="29.9951">Quality</text></g><g id="elem_Usability"><ellipse cx="61.5868" cy="119.7397" fill="#F1F1F1" rx="55.5868" ry="14.7397" style="stroke:#181818;stroke-width:0.5;"/><text fill="#000000" font-family="sans-serif" font-size="14" lengthAdjust="spacing" textLength="61" x="28.0868" y="123.4873">Usability</text></g><g id="elem_Privacy"><ellipse cx="200.6224" cy="119.6723" fill="#F1F1F1" rx="48.1224" ry="14.6723" style="stroke:#181818;stroke-width:0.5;"/><text fill="#000000" font-family="sans-serif" font-size="14" lengthAdjust="spacing" textLength="51" x="172.1224" y="123.4198">Privacy</text></g><g id="elem_Performance"><ellipse cx="353.5634" cy="119.4127" fill="#F1F1F1" rx="70.0634" ry="16.4127" style="stroke:#181818;stroke-width:0.5;"/><text fill="#000000" font-family="sans-serif" font-size="14" lengthAdjust="spacing" textLength="93" x="304.0634" y="123.1602">Performance</text></g><g id="elem_Aviability"><ellipse cx="518.5664" cy="119.2722" fill="#F1F1F1" rx="60.0664" ry="14.7722" style="stroke:#181818;stroke-width:0.5;"/><text fill="#000000" font-family="sans-serif" font-size="14" lengthAdjust="spacing" textLength="67" x="482.0664" y="123.0198">Aviability</text></g><g id="elem_Security"><ellipse cx="667.5937" cy="119.7277" fill="#F1F1F1" rx="54.0937" ry="14.7277" style="stroke:#181818;stroke-width:0.5;"/><text fill="#000000" font-family="sans-serif" font-size="14" lengthAdjust="spacing" textLength="59" x="635.0937" y="123.4753">Security</text></g><!--link Quality to Usability--><g id="link_Quality_Usability"><path d="M318.278,37.1577 C263.21,54.6023 157.133,88.2052 100.0726,106.2809 " fill="none" id="Quality-to-Usability" style="stroke:#181818;stroke-width:1.0;"/><polygon fill="#181818" points="95.0428,107.8743,104.8306,108.9695,99.8093,106.3643,102.4145,101.343,95.0428,107.8743" style="stroke:#181818;stroke-width:1.0;"/></g><!--link Quality to Privacy--><g id="link_Quality_Privacy"><path d="M325.08,43.1818 C296.488,60.4681 252.826,86.8651 225.51,103.3795 " fill="none" id="Quality-to-Privacy" style="stroke:#181818;stroke-width:1.0;"/><polygon fill="#181818" points="220.94,106.1427,230.7113,104.909,225.2187,103.5557,226.572,98.0631,220.94,106.1427" style="stroke:#181818;stroke-width:1.0;"/></g><!--link Quality to Performance--><g id="link_Quality_Performance"><path d="M353.5,43.3985 C353.5,58.7267 353.5,81.0943 353.5,97.4315 " fill="none" id="Quality-to-Performance" style="stroke:#181818;stroke-width:1.0;"/><polygon fill="#181818" points="353.5,102.7218,357.5,93.7218,353.5,97.7218,349.5,93.7218,353.5,102.7218" style="stroke:#181818;stroke-width:1.0;"/></g><!--link Quality to Aviability--><g id="link_Quality_Aviability"><path d="M384.149,43.1818 C414.757,60.3411 461.38,86.4779 490.876,103.0141 " fill="none" id="Quality-to-Aviability" style="stroke:#181818;stroke-width:1.0;"/><polygon fill="#181818" points="495.458,105.5828,489.5644,97.6919,491.0969,103.1373,485.6516,104.6697,495.458,105.5828" style="stroke:#181818;stroke-width:1.0;"/></g><!--link Quality to Security--><g id="link_Quality_Security"><path d="M388.606,36.3417 C447.444,53.6747 565.594,88.4799 627.532,106.726 " fill="none" id="Quality-to-Security" style="stroke:#181818;stroke-width:1.0;"/><polygon fill="#181818" points="632.62,108.2249,625.117,101.8448,627.8238,106.8121,622.8565,109.5188,632.62,108.2249" style="stroke:#181818;stroke-width:1.0;"/></g><!--SRC=[IqnFpIjH22nDpCaigUJYAYrEJKuiJbK8BKvCoWGBmKG2YZBB4fEH-Ab5QVb5kObvoQbmCSUoJ7HjmQd9fKLWew5sAEYcwDeXcOyY3BC4LH399XG99EjGn65s0W00]--></g></svg>