<?xml version="1.0" encoding="us-ascii" standalone="no"?><svg xmlns="http://www.w3.org/2000/svg" xmlns:xlink="http://www.w3.org/1999/xlink" contentStyleType="text/css" height="483px" preserveAspectRatio="none" style="width:177px;height:483px;background:#FFFFFF;" version="1.1" viewBox="0 0 177 483" width="177px" zoomAndPan="magnify"><defs/><g><!--cluster RestAPI--><g id="cluster_RestAPI"><path d="M8.5,68 L72.5,68 A3.75,3.75 0 0 1 75,70.5 L82,90.2969 L167.5,90.2969 A2.5,2.5 0 0 1 170,92.7969 L170,374.5 A2.5,2.5 0 0 1 167.5,377 L8.5,377 A2.5,2.5 0 0 1 6,374.5 L6,70.5 A2.5,2.5 0 0 1 8.5,68 " fill="none" style="stroke:#000000;stroke-width:1.5;"/><line style="stroke:#000000;stroke-width:1.5;" x1="6" x2="82" y1="90.2969" y2="90.2969"/><text fill="#000000" font-family="sans-serif" font-size="14" font-weight="bold" lengthAdjust="spacing" textLength="63" x="10" y="82.9951">RestAPI</text></g><!--entity Controllers--><g id="elem_Controllers"><rect fill="#F1F1F1" height="46.2969" rx="2.5" ry="2.5" style="stroke:#181818;stroke-width:0.5;" width="120" x="28" y="103"/><rect fill="#F1F1F1" height="10" style="stroke:#181818;stroke-width:0.5;" width="15" x="128" y="108"/><rect fill="#F1F1F1" height="2" style="stroke:#181818;stroke-width:0.5;" width="4" x="126" y="110"/><rect fill="#F1F1F1" height="2" style="stroke:#181818;stroke-width:0.5;" width="4" x="126" y="114"/><text fill="#000000" font-family="sans-serif" font-size="14" lengthAdjust="spacing" textLength="80" x="43" y="135.9951">Controllers</text></g><!--entity Business--><g id="elem_Business"><rect fill="#F1F1F1" height="46.2969" rx="2.5" ry="2.5" style="stroke:#181818;stroke-width:0.5;" width="101" x="37.5" y="209"/><rect fill="#F1F1F1" height="10" style="stroke:#181818;stroke-width:0.5;" width="15" x="118.5" y="214"/><rect fill="#F1F1F1" height="2" style="stroke:#181818;stroke-width:0.5;" width="4" x="116.5" y="216"/><rect fill="#F1F1F1" height="2" style="stroke:#181818;stroke-width:0.5;" width="4" x="116.5" y="220"/><text fill="#000000" font-family="sans-serif" font-size="14" lengthAdjust="spacing" textLength="61" x="52.5" y="241.9951">Business</text></g><!--entity Repositories--><g id="elem_Repositories"><rect fill="#F1F1F1" height="46.2969" rx="2.5" ry="2.5" style="stroke:#181818;stroke-width:0.5;" width="131" x="22.5" y="315"/><rect fill="#F1F1F1" height="10" style="stroke:#181818;stroke-width:0.5;" width="15" x="133.5" y="320"/><rect fill="#F1F1F1" height="2" style="stroke:#181818;stroke-width:0.5;" width="4" x="131.5" y="322"/><rect fill="#F1F1F1" height="2" style="stroke:#181818;stroke-width:0.5;" width="4" x="131.5" y="326"/><text fill="#000000" font-family="sans-serif" font-size="14" lengthAdjust="spacing" textLength="91" x="37.5" y="347.9951">Repositories</text></g><!--entity Database--><g id="elem_Database"><path d="M44,431 C44,421 88,421 88,421 C88,421 132,421 132,431 L132,456.2969 C132,466.2969 88,466.2969 88,466.2969 C88,466.2969 44,466.2969 44,456.2969 L44,431 " fill="#F1F1F1" style="stroke:#181818;stroke-width:0.5;"/><path d="M44,431 C44,441 88,441 88,441 C88,441 132,441 132,431 " fill="none" style="stroke:#181818;stroke-width:0.5;"/><text fill="#000000" font-family="sans-serif" font-size="14" lengthAdjust="spacing" textLength="68" x="54" y="457.9951">Database</text></g><!--entity Request--><g id="elem_Request"><ellipse cx="88" cy="14" fill="#F1F1F1" rx="8" ry="8" style="stroke:#181818;stroke-width:0.5;"/><text fill="#000000" font-family="sans-serif" font-size="14" lengthAdjust="spacing" textLength="59" x="58.5" y="43.9951">Request</text></g><!--link Request to Controllers--><g id="link_Request_Controllers"><path d="M88,23.268 C88,38.848 88,73.184 88,97.652 " fill="none" id="Request-to-Controllers" style="stroke:#181818;stroke-width:1.0;"/><polygon fill="#181818" points="88,102.713,92,93.713,88,97.713,84,93.713,88,102.713" style="stroke:#181818;stroke-width:1.0;"/></g><!--link Controllers to Business--><g id="link_Controllers_Business"><path d="M88,149.056 C88,165.05 88,186.778 88,203.842 " fill="none" id="Controllers-to-Business" style="stroke:#181818;stroke-width:1.0;"/><polygon fill="#181818" points="88,208.976,92,199.976,88,203.976,84,199.976,88,208.976" style="stroke:#181818;stroke-width:1.0;"/></g><!--link Business to Repositories--><g id="link_Business_Repositories"><path d="M88,255.056 C88,271.05 88,292.778 88,309.842 " fill="none" id="Business-to-Repositories" style="stroke:#181818;stroke-width:1.0;"/><polygon fill="#181818" points="88,314.976,92,305.976,88,309.976,84,305.976,88,314.976" style="stroke:#181818;stroke-width:1.0;"/></g><!--link Repositories to Database--><g id="link_Repositories_Database"><path d="M88,361.203 C88,377.1368 88,398.6902 88,415.6009 " fill="none" id="Repositories-to-Database" style="stroke:#181818;stroke-width:1.0;"/><polygon fill="#181818" points="88,420.6886,92,411.6886,88,415.6886,84,411.6886,88,420.6886" style="stroke:#181818;stroke-width:1.0;"/></g><!--SRC=[IylFIKajKWXABIvn3F2ivb80WUJyt8BylDIy4WNd_BoIeloSdDIYOdGffzBYpBpKOWpneDI2_EBCaloYpDHYhbekhfJ4aiIanE9K1HSeWuihABMm56YXWcwAhXsA5KXiY2JS4XW38enY1p878Wsp2G00]--></g></svg>